G04*
G04 #@! TF.GenerationSoftware,Altium Limited,Altium Designer,23.3.1 (30)*
G04*
G04 Layer_Physical_Order=4*
G04 Layer_Color=16711680*
%FSLAX43Y43*%
%MOMM*%
G71*
G04*
G04 #@! TF.SameCoordinates,68B4457D-8A2E-4C3C-B976-16FA262DB654*
G04*
G04*
G04 #@! TF.FilePolarity,Positive*
G04*
G01*
G75*
%ADD12C,0.150*%
G04:AMPARAMS|DCode=14|XSize=0.7mm|YSize=0.9mm|CornerRadius=0.07mm|HoleSize=0mm|Usage=FLASHONLY|Rotation=0.000|XOffset=0mm|YOffset=0mm|HoleType=Round|Shape=RoundedRectangle|*
%AMROUNDEDRECTD14*
21,1,0.700,0.760,0,0,0.0*
21,1,0.560,0.900,0,0,0.0*
1,1,0.140,0.280,-0.380*
1,1,0.140,-0.280,-0.380*
1,1,0.140,-0.280,0.380*
1,1,0.140,0.280,0.380*
%
%ADD14ROUNDEDRECTD14*%
G04:AMPARAMS|DCode=15|XSize=0.3mm|YSize=0.7mm|CornerRadius=0.03mm|HoleSize=0mm|Usage=FLASHONLY|Rotation=180.000|XOffset=0mm|YOffset=0mm|HoleType=Round|Shape=RoundedRectangle|*
%AMROUNDEDRECTD15*
21,1,0.300,0.640,0,0,180.0*
21,1,0.240,0.700,0,0,180.0*
1,1,0.060,-0.120,0.320*
1,1,0.060,0.120,0.320*
1,1,0.060,0.120,-0.320*
1,1,0.060,-0.120,-0.320*
%
%ADD15ROUNDEDRECTD15*%
G04:AMPARAMS|DCode=24|XSize=0.75mm|YSize=0.96mm|CornerRadius=0.075mm|HoleSize=0mm|Usage=FLASHONLY|Rotation=0.000|XOffset=0mm|YOffset=0mm|HoleType=Round|Shape=RoundedRectangle|*
%AMROUNDEDRECTD24*
21,1,0.750,0.810,0,0,0.0*
21,1,0.600,0.960,0,0,0.0*
1,1,0.150,0.300,-0.405*
1,1,0.150,-0.300,-0.405*
1,1,0.150,-0.300,0.405*
1,1,0.150,0.300,0.405*
%
%ADD24ROUNDEDRECTD24*%
G04:AMPARAMS|DCode=28|XSize=0.7mm|YSize=0.9mm|CornerRadius=0.07mm|HoleSize=0mm|Usage=FLASHONLY|Rotation=90.000|XOffset=0mm|YOffset=0mm|HoleType=Round|Shape=RoundedRectangle|*
%AMROUNDEDRECTD28*
21,1,0.700,0.760,0,0,90.0*
21,1,0.560,0.900,0,0,90.0*
1,1,0.140,0.380,0.280*
1,1,0.140,0.380,-0.280*
1,1,0.140,-0.380,-0.280*
1,1,0.140,-0.380,0.280*
%
%ADD28ROUNDEDRECTD28*%
%ADD51C,0.300*%
%ADD52C,0.500*%
%ADD53C,0.200*%
G04:AMPARAMS|DCode=55|XSize=1.925mm|YSize=1.925mm|CornerRadius=0.193mm|HoleSize=0mm|Usage=FLASHONLY|Rotation=315.000|XOffset=0mm|YOffset=0mm|HoleType=Round|Shape=RoundedRectangle|*
%AMROUNDEDRECTD55*
21,1,1.925,1.540,0,0,315.0*
21,1,1.540,1.925,0,0,315.0*
1,1,0.385,0.000,-1.089*
1,1,0.385,-1.089,0.000*
1,1,0.385,0.000,1.089*
1,1,0.385,1.089,0.000*
%
%ADD55ROUNDEDRECTD55*%
%ADD56C,1.925*%
%ADD57O,1.100X2.100*%
%ADD58O,1.100X2.600*%
%ADD59C,0.550*%
G04:AMPARAMS|DCode=60|XSize=0.6mm|YSize=1.45mm|CornerRadius=0.15mm|HoleSize=0mm|Usage=FLASHONLY|Rotation=270.000|XOffset=0mm|YOffset=0mm|HoleType=Round|Shape=RoundedRectangle|*
%AMROUNDEDRECTD60*
21,1,0.600,1.150,0,0,270.0*
21,1,0.300,1.450,0,0,270.0*
1,1,0.300,-0.575,-0.150*
1,1,0.300,-0.575,0.150*
1,1,0.300,0.575,0.150*
1,1,0.300,0.575,-0.150*
%
%ADD60ROUNDEDRECTD60*%
G04:AMPARAMS|DCode=61|XSize=0.6mm|YSize=1.45mm|CornerRadius=0.06mm|HoleSize=0mm|Usage=FLASHONLY|Rotation=270.000|XOffset=0mm|YOffset=0mm|HoleType=Round|Shape=RoundedRectangle|*
%AMROUNDEDRECTD61*
21,1,0.600,1.330,0,0,270.0*
21,1,0.480,1.450,0,0,270.0*
1,1,0.120,-0.665,-0.240*
1,1,0.120,-0.665,0.240*
1,1,0.120,0.665,0.240*
1,1,0.120,0.665,-0.240*
%
%ADD61ROUNDEDRECTD61*%
G04:AMPARAMS|DCode=62|XSize=0.7mm|YSize=0.55mm|CornerRadius=0.055mm|HoleSize=0mm|Usage=FLASHONLY|Rotation=180.000|XOffset=0mm|YOffset=0mm|HoleType=Round|Shape=RoundedRectangle|*
%AMROUNDEDRECTD62*
21,1,0.700,0.440,0,0,180.0*
21,1,0.590,0.550,0,0,180.0*
1,1,0.110,-0.295,0.220*
1,1,0.110,0.295,0.220*
1,1,0.110,0.295,-0.220*
1,1,0.110,-0.295,-0.220*
%
%ADD62ROUNDEDRECTD62*%
G04:AMPARAMS|DCode=63|XSize=0.6mm|YSize=1.5mm|CornerRadius=0.06mm|HoleSize=0mm|Usage=FLASHONLY|Rotation=270.000|XOffset=0mm|YOffset=0mm|HoleType=Round|Shape=RoundedRectangle|*
%AMROUNDEDRECTD63*
21,1,0.600,1.380,0,0,270.0*
21,1,0.480,1.500,0,0,270.0*
1,1,0.120,-0.690,-0.240*
1,1,0.120,-0.690,0.240*
1,1,0.120,0.690,0.240*
1,1,0.120,0.690,-0.240*
%
%ADD63ROUNDEDRECTD63*%
D12*
X0Y12685D02*
X1500D01*
X-1500D02*
X0D01*
X1661Y6889D02*
Y11154D01*
X1500Y11315D02*
X1661Y11154D01*
X-1500Y11181D02*
X-474Y10155D01*
X-1500Y11181D02*
Y11315D01*
X5236Y-7829D02*
X7131D01*
X5044Y-7637D02*
X5236Y-7829D01*
X7131D02*
X7975Y-6985D01*
X3750Y-7637D02*
X5044D01*
X4947Y-6737D02*
X6350Y-5334D01*
X3750Y-6737D02*
X4947D01*
X6350Y-5334D02*
Y-4445D01*
X-3000Y-8537D02*
X-2925Y-8462D01*
X-3675Y-8537D02*
X-3000D01*
X4378Y-4481D02*
X4395Y-4464D01*
Y-3556D01*
X254Y127D02*
X1016D01*
X-762Y-889D02*
X254Y127D01*
X6604Y-2286D02*
X7239Y-2921D01*
X5765Y-2286D02*
X6604D01*
X5765Y-3556D02*
X7747D01*
X8128Y-3175D02*
X8578D01*
X7747Y-3556D02*
X8128Y-3175D01*
Y-1905D02*
X8578D01*
X7620Y-1397D02*
X8128Y-1905D01*
X5284Y-1397D02*
X7620D01*
X4395Y-2286D02*
X5284Y-1397D01*
X10225Y-5969D02*
X10541Y-5653D01*
Y-1397D01*
X2250Y-8537D02*
X2925D01*
X3000Y-8462D01*
X-2250Y-7637D02*
X2250D01*
X-2250Y-6737D02*
X-2250Y-6737D01*
X2250D01*
X8578Y-635D02*
X9779D01*
X10541Y-1397D01*
X5077Y2944D02*
X5878Y3745D01*
X5077Y47D02*
Y2944D01*
X4395Y-635D02*
X5077Y47D01*
X4395Y3347D02*
X5126Y4077D01*
X4395Y635D02*
Y3347D01*
X3409Y1210D02*
X3914Y1716D01*
Y3784D02*
X5231Y5101D01*
X3914Y1716D02*
Y3784D01*
X1871Y1210D02*
X3409D01*
X1867Y1206D02*
X1871Y1210D01*
X570Y493D02*
X1282Y1206D01*
X1867D01*
X5231Y5101D02*
X9885D01*
X2700Y-635D02*
X4395D01*
X2700Y635D02*
X4395D01*
X10287Y4699D02*
X10287Y4191D01*
X9885Y5101D02*
X10287Y4699D01*
X-532Y493D02*
X570D01*
X-674Y635D02*
X-532Y493D01*
X-2700Y635D02*
X-674D01*
X-5300Y5142D02*
X3799D01*
X-5848Y4594D02*
X-5300Y5142D01*
X3799D02*
X5889Y7232D01*
X-5482Y5525D02*
X3622D01*
X-6527Y4064D02*
Y4480D01*
X-5482Y5525D01*
X3622D02*
X5887Y7790D01*
X-7570Y4064D02*
X-7570Y4064D01*
X-6527D01*
X-7570Y2794D02*
X-6527D01*
X-5848Y3473D02*
Y4594D01*
X-6527Y2794D02*
X-5848Y3473D01*
X-6527Y2794D02*
X-4953Y1220D01*
Y0D02*
Y1220D01*
X-8248Y1535D02*
X-7348Y635D01*
X-5588D01*
X-8248Y1535D02*
Y3386D01*
X-7570Y4064D01*
X-4394Y2730D02*
X-2606Y4519D01*
X-4394Y-258D02*
Y2730D01*
X-2606Y4519D02*
X-1675D01*
X990D02*
X3810D01*
X154Y3683D02*
X990Y4519D01*
X3810D02*
X6137Y6846D01*
X-839Y3683D02*
X154D01*
X-1675Y4519D02*
X-839Y3683D01*
X11248Y6846D02*
X12192Y7790D01*
X6137Y6846D02*
X11248D01*
X5889Y7232D02*
X10820D01*
X11378Y7790D01*
X5887D02*
X10541D01*
X-4771Y-635D02*
X-4394Y-258D01*
X-5588Y-635D02*
X-4771D01*
X8705Y635D02*
X8971Y901D01*
X9906D01*
X8705Y1905D02*
X8959Y1651D01*
X9906D01*
X500Y6985D02*
Y10000D01*
D14*
X4395Y-635D02*
D03*
X5765D02*
D03*
X4395Y635D02*
D03*
X5765D02*
D03*
X4395Y-2286D02*
D03*
X5765Y-2286D02*
D03*
X5765Y-3556D02*
D03*
X4395D02*
D03*
X-6527Y2794D02*
D03*
X-5157D02*
D03*
X-6527Y4064D02*
D03*
X-5157Y4064D02*
D03*
X1524Y3683D02*
D03*
X154D02*
D03*
X-8940Y2794D02*
D03*
X-7570D02*
D03*
X-8940Y4064D02*
D03*
X-7570D02*
D03*
X-839Y3683D02*
D03*
X-2209D02*
D03*
D15*
X3000Y-6812D02*
D03*
Y-8462D02*
D03*
X-3000Y-6812D02*
D03*
Y-8462D02*
D03*
D24*
X8825Y-5969D02*
D03*
X10225D02*
D03*
X8825Y-7366D02*
D03*
X10225Y-7366D02*
D03*
X700Y-3810D02*
D03*
X-700D02*
D03*
X-2300Y-9637D02*
D03*
X-3700D02*
D03*
X3700D02*
D03*
X2300D02*
D03*
D28*
X-1500Y12685D02*
D03*
Y11315D02*
D03*
X1500Y12685D02*
D03*
Y11315D02*
D03*
D51*
X7797Y-4114D02*
X8128Y-4445D01*
X7239Y-4114D02*
X7797D01*
X8128Y-4445D02*
X8578D01*
X8825D01*
X8825D02*
X8825Y-4445D01*
Y-5969D02*
Y-4445D01*
Y-7366D02*
Y-5969D01*
X10225Y-7366D02*
X10984D01*
X3700Y-8587D02*
X3750Y-8537D01*
X3700Y-9637D02*
Y-8587D01*
X3750Y-8537D02*
X4560D01*
X4572Y-8525D01*
X-2250Y-8537D02*
X-1270D01*
X3000Y-6812D02*
Y-5858D01*
X-3000Y-6812D02*
Y-5858D01*
X-2300Y-9637D02*
X-2250Y-9587D01*
Y-8537D01*
X13905Y-4445D02*
X14028D01*
X10984Y-7366D02*
X13905Y-4445D01*
D52*
X-4700Y-10637D02*
X-3700Y-9637D01*
X-11938Y-4931D02*
Y5459D01*
X-9921Y7476D02*
X-6099D01*
X-11938Y5459D02*
X-9921Y7476D01*
X10225Y-8358D02*
Y-7366D01*
X6811Y-11772D02*
X10225Y-8358D01*
X4329Y-11772D02*
X6811D01*
X989Y-15113D02*
X4329Y-11772D01*
X-1016Y-15113D02*
X989D01*
X-2652Y-13477D02*
X-1016Y-15113D01*
X-5327Y-13477D02*
X-2652D01*
X-6232Y-12571D02*
X-5327Y-13477D01*
X-6232Y-12571D02*
Y-10637D01*
X2250Y-8537D02*
X2300Y-8587D01*
Y-9637D02*
Y-8587D01*
X-3750Y-9587D02*
X-3700Y-9637D01*
X-3750Y-9587D02*
Y-8537D01*
X-11938Y-4931D02*
X-6232Y-10637D01*
X-4700D01*
D53*
X-2907Y-10430D02*
X-1524D01*
X-3700Y-9637D02*
X-2907Y-10430D01*
X-731Y-9637D02*
X2300D01*
X-1524Y-10430D02*
X-731Y-9637D01*
X5765Y635D02*
X6604D01*
X5765Y-635D02*
Y635D01*
X-9906Y4064D02*
X-9906Y4064D01*
X-8940D01*
Y2794D02*
Y4064D01*
X-4701Y4064D02*
X-4320Y4445D01*
X-5157Y4064D02*
X-4701D01*
X-5157Y4064D02*
X-5157Y4064D01*
X-5157Y2794D02*
Y4064D01*
X2700Y1905D02*
Y2507D01*
X1524Y3683D02*
X2700Y2507D01*
X-3937Y121D02*
Y2540D01*
Y121D02*
X-3181Y-635D01*
X-2700D01*
X-3937Y2540D02*
X-2794Y3683D01*
X-2209D01*
X762Y1905D02*
X2700D01*
X0Y1143D02*
X762Y1905D01*
X-2700D02*
X-762D01*
X0Y1143D01*
X-700Y-3810D02*
Y-3589D01*
X-2384Y-1905D02*
X-700Y-3589D01*
X-2700Y-1905D02*
X-2384D01*
X700Y-3810D02*
Y-3587D01*
X2382Y-1905D02*
X2700D01*
X700Y-3587D02*
X2382Y-1905D01*
X700Y-4699D02*
Y-3810D01*
X-700Y-4699D02*
Y-3810D01*
X-2700Y-1905D02*
Y-635D01*
D55*
X-10804Y-9008D02*
D03*
D56*
X-9008Y-10804D02*
D03*
D57*
X-4320Y8250D02*
D03*
X4320D02*
D03*
D58*
X-4320Y13610D02*
D03*
X4320D02*
D03*
D59*
X0Y12685D02*
D03*
X1661Y6889D02*
D03*
X-474Y10155D02*
D03*
X4378Y-4481D02*
D03*
X1016Y127D02*
D03*
X-762Y-889D02*
D03*
X-4064Y-1143D02*
D03*
X6350Y-4445D02*
D03*
X7239Y-4114D02*
D03*
X7975Y-6985D02*
D03*
X7239Y-2921D02*
D03*
X9525Y-10160D02*
D03*
X4572Y-8525D02*
D03*
X-1270Y-8537D02*
D03*
X3000Y-5858D02*
D03*
X-3000Y-5858D02*
D03*
X-6099Y7476D02*
D03*
X12573Y-1250D02*
D03*
Y-250D02*
D03*
X6985Y-10160D02*
D03*
X5588D02*
D03*
Y-7112D02*
D03*
X6985D02*
D03*
X15240Y254D02*
D03*
X-7874Y-5969D02*
D03*
X5878Y3745D02*
D03*
X5126Y4077D02*
D03*
X6604Y635D02*
D03*
X10287Y4191D02*
D03*
X-8763Y-6477D02*
D03*
Y-5461D02*
D03*
Y-4445D02*
D03*
X-13589Y-6477D02*
D03*
Y-5461D02*
D03*
Y-4445D02*
D03*
X-9906Y4064D02*
D03*
X-4320Y4445D02*
D03*
X11378Y7790D02*
D03*
X10541D02*
D03*
X12192D02*
D03*
X-4953Y0D02*
D03*
X-5588Y635D02*
D03*
X-5588Y-635D02*
D03*
X0Y1143D02*
D03*
X700Y-4699D02*
D03*
X-700D02*
D03*
X3100Y10000D02*
D03*
X-3100D02*
D03*
X9906Y901D02*
D03*
Y1651D02*
D03*
X500Y10000D02*
D03*
Y6985D02*
D03*
X-4445Y-3175D02*
D03*
X-6604Y-1905D02*
D03*
X-9906Y5715D02*
D03*
X-9017D02*
D03*
X-10392Y2100D02*
D03*
Y-2100D02*
D03*
X-8714Y-2287D02*
D03*
X-10922Y-1524D02*
D03*
Y1524D02*
D03*
D60*
X14028Y4445D02*
D03*
X14028Y3175D02*
D03*
X14028Y1905D02*
D03*
Y635D02*
D03*
X14028Y-635D02*
D03*
X14028Y-1905D02*
D03*
X14028Y-3175D02*
D03*
X14028Y-4445D02*
D03*
X8578Y4445D02*
D03*
X8578Y3175D02*
D03*
X8578Y1905D02*
D03*
Y635D02*
D03*
Y-635D02*
D03*
X8578Y-1905D02*
D03*
X8578Y-3175D02*
D03*
D61*
Y-4445D02*
D03*
D62*
X3750Y-7637D02*
D03*
X3750Y-6737D02*
D03*
X2250D02*
D03*
Y-7637D02*
D03*
Y-8537D02*
D03*
X3750D02*
D03*
X-2250Y-7637D02*
D03*
X-2250Y-6737D02*
D03*
X-3750D02*
D03*
Y-7637D02*
D03*
Y-8537D02*
D03*
X-2250D02*
D03*
D63*
X-2700Y-1905D02*
D03*
Y-635D02*
D03*
Y635D02*
D03*
Y1905D02*
D03*
X2700Y-1905D02*
D03*
Y-635D02*
D03*
Y635D02*
D03*
Y1905D02*
D03*
M02*
