M48
;Layer_Color=9474304
;FILE_FORMAT=4:3
METRIC,LZ
;TYPE=PLATED
T1F00S00C0.300
T3F00S00C1.100
;TYPE=NON_PLATED
T4F00S00C3.000
%
T01
X-0013589Y-0006477
Y-0005461
Y-0004445
X-0008763
Y-0005461
Y-0006477
X-0007874Y-0005969
X-0008714Y-0002287
X-0010392Y-00021
X-0010922Y-0001524
Y0001524
X-0010392Y00021
X-0009906Y0004064
Y0005715
X-0009017
X-0006099Y0007476
X-000432Y0004445
X-0005588Y0000635
X-0004953Y0
X-0005588Y-0000635
X-0004064Y-0001143
X-0004445Y-0003175
X-0006604Y-0001905
X-0000762Y-0000889
X0001016Y0000127
X0Y0001143
X00005Y0006985
X0001661Y0006889
X00005Y001
X-0000474Y0010155
X-00031Y001
X0Y0012685
X00031Y001
X0005126Y0004077
X0005878Y0003745
X0006604Y0000635
X0009906Y0000901
Y0001651
X0010287Y0004191
X0010541Y000779
X0011378
X0012192
X0012573Y-000025
Y-000125
X001524Y0000254
X0007239Y-0002921
Y-0004114
X000635Y-0004445
X0004378Y-0004481
X0003Y-0005858
X00007Y-0004699
X-00007
X-0003Y-0005858
X-000127Y-0008537
X0004572Y-0008525
X0005588Y-0007112
X0006985
X0007975Y-0006985
X0006985Y-001016
X0005588
X0009525
T03
X-0010804Y-0009008
X-0009008Y-0010804
T04
X0Y-0013
X0009Y001
X-0009
M30
