G04*
G04 #@! TF.GenerationSoftware,Altium Limited,Altium Designer,23.3.1 (30)*
G04*
G04 Layer_Physical_Order=2*
G04 Layer_Color=36540*
%FSLAX43Y43*%
%MOMM*%
G71*
G04*
G04 #@! TF.SameCoordinates,68B4457D-8A2E-4C3C-B976-16FA262DB654*
G04*
G04*
G04 #@! TF.FilePolarity,Positive*
G04*
G01*
G75*
%ADD56C,1.925*%
%ADD57O,1.100X2.100*%
%ADD58O,1.100X2.600*%
%ADD59C,0.550*%
G36*
X4576Y14810D02*
X5685Y14421D01*
X6760Y13950D01*
X7797Y13398D01*
X8789Y12769D01*
X9730Y12067D01*
X9823Y11986D01*
X9743Y11857D01*
X9644Y11898D01*
X9391Y11966D01*
X9131Y12000D01*
X8869D01*
X8609Y11966D01*
X8356Y11898D01*
X8114Y11798D01*
X7886Y11667D01*
X7678Y11507D01*
X7493Y11322D01*
X7333Y11114D01*
X7202Y10886D01*
X7102Y10644D01*
X7034Y10391D01*
X7000Y10131D01*
Y9869D01*
X7034Y9609D01*
X7102Y9356D01*
X7202Y9114D01*
X7333Y8886D01*
X7493Y8678D01*
X7678Y8493D01*
X7886Y8333D01*
X8114Y8202D01*
X8356Y8102D01*
X8609Y8034D01*
X8869Y8000D01*
X9131D01*
X9391Y8034D01*
X9644Y8102D01*
X9886Y8202D01*
X10114Y8333D01*
X10322Y8493D01*
X10507Y8678D01*
X10667Y8886D01*
X10798Y9114D01*
X10898Y9356D01*
X10966Y9609D01*
X11000Y9869D01*
Y10131D01*
X10966Y10391D01*
X10898Y10644D01*
X10798Y10886D01*
X10782Y10914D01*
X10902Y11006D01*
X11441Y10459D01*
X12200Y9563D01*
X12889Y8612D01*
X13504Y7612D01*
X14041Y6567D01*
X14498Y5485D01*
X14872Y4372D01*
X15160Y3233D01*
X15362Y2076D01*
X15475Y907D01*
X15499Y-267D01*
X15434Y-1440D01*
X15281Y-2604D01*
X15040Y-3754D01*
X14713Y-4882D01*
X14301Y-5981D01*
X13807Y-7047D01*
X13234Y-8072D01*
X12585Y-9051D01*
X11863Y-9978D01*
X11074Y-10847D01*
X10221Y-11655D01*
X9309Y-12395D01*
X8344Y-13064D01*
X7331Y-13658D01*
X6276Y-14174D01*
X5185Y-14609D01*
X4064Y-14959D01*
X2919Y-15224D01*
X1758Y-15401D01*
X587Y-15490D01*
X-587D01*
X-1758Y-15401D01*
X-2919Y-15224D01*
X-4064Y-14959D01*
X-5185Y-14609D01*
X-6276Y-14174D01*
X-7331Y-13658D01*
X-8344Y-13064D01*
X-9309Y-12395D01*
X-10221Y-11655D01*
X-11074Y-10847D01*
X-11863Y-9978D01*
X-12585Y-9051D01*
X-13234Y-8072D01*
X-13807Y-7047D01*
X-14301Y-5981D01*
X-14713Y-4882D01*
X-15040Y-3754D01*
X-15281Y-2604D01*
X-15434Y-1440D01*
X-15499Y-267D01*
X-15475Y907D01*
X-15362Y2076D01*
X-15160Y3233D01*
X-14872Y4372D01*
X-14498Y5485D01*
X-14041Y6567D01*
X-13504Y7612D01*
X-12889Y8612D01*
X-12200Y9563D01*
X-11441Y10459D01*
X-10902Y11006D01*
X-10782Y10914D01*
X-10798Y10886D01*
X-10898Y10644D01*
X-10966Y10391D01*
X-11000Y10131D01*
Y9869D01*
X-10966Y9609D01*
X-10898Y9356D01*
X-10798Y9114D01*
X-10667Y8886D01*
X-10507Y8678D01*
X-10322Y8493D01*
X-10114Y8333D01*
X-9886Y8202D01*
X-9644Y8102D01*
X-9391Y8034D01*
X-9131Y8000D01*
X-8869D01*
X-8609Y8034D01*
X-8356Y8102D01*
X-8114Y8202D01*
X-7886Y8333D01*
X-7678Y8493D01*
X-7493Y8678D01*
X-7333Y8886D01*
X-7202Y9114D01*
X-7102Y9356D01*
X-7034Y9609D01*
X-7000Y9869D01*
Y10131D01*
X-7034Y10391D01*
X-7102Y10644D01*
X-7202Y10886D01*
X-7333Y11114D01*
X-7493Y11322D01*
X-7678Y11507D01*
X-7886Y11667D01*
X-8114Y11798D01*
X-8356Y11898D01*
X-8609Y11966D01*
X-8869Y12000D01*
X-9131D01*
X-9391Y11966D01*
X-9644Y11898D01*
X-9743Y11857D01*
X-9823Y11986D01*
X-9730Y12067D01*
X-8789Y12769D01*
X-7797Y13398D01*
X-6760Y13950D01*
X-5685Y14421D01*
X-4576Y14810D01*
X-4074Y14945D01*
X4074Y14945D01*
X4576Y14810D01*
D02*
G37*
%LPC*%
G36*
X-411Y10630D02*
X-536D01*
X-657Y10598D01*
X-766Y10536D01*
X-854Y10447D01*
X-917Y10339D01*
X-949Y10218D01*
Y10093D01*
X-917Y9972D01*
X-854Y9864D01*
X-766Y9775D01*
X-657Y9713D01*
X-536Y9680D01*
X-411D01*
X-291Y9713D01*
X-182Y9775D01*
X-107Y9851D01*
X-40Y9849D01*
X56Y9823D01*
X57Y9817D01*
X120Y9708D01*
X208Y9620D01*
X317Y9557D01*
X437Y9525D01*
X563D01*
X683Y9557D01*
X792Y9620D01*
X880Y9708D01*
X943Y9817D01*
X975Y9937D01*
Y10063D01*
X943Y10183D01*
X880Y10292D01*
X792Y10380D01*
X683Y10443D01*
X563Y10475D01*
X437D01*
X317Y10443D01*
X208Y10380D01*
X133Y10305D01*
X66Y10306D01*
X-30Y10333D01*
X-31Y10339D01*
X-94Y10447D01*
X-182Y10536D01*
X-291Y10598D01*
X-411Y10630D01*
D02*
G37*
G36*
X12255Y8265D02*
X12129D01*
X12009Y8233D01*
X11900Y8170D01*
X11887Y8157D01*
X11785Y8097D01*
X11683Y8157D01*
X11670Y8170D01*
X11561Y8233D01*
X11441Y8265D01*
X11315D01*
X11195Y8233D01*
X11086Y8170D01*
X11059Y8143D01*
X10960Y8099D01*
X10860Y8143D01*
X10833Y8170D01*
X10724Y8233D01*
X10604Y8265D01*
X10478D01*
X10358Y8233D01*
X10249Y8170D01*
X10161Y8082D01*
X10098Y7973D01*
X10066Y7853D01*
Y7727D01*
X10098Y7607D01*
X10161Y7498D01*
X10249Y7410D01*
X10358Y7347D01*
X10478Y7315D01*
X10604D01*
X10724Y7347D01*
X10833Y7410D01*
X10860Y7437D01*
X10960Y7481D01*
X11059Y7437D01*
X11086Y7410D01*
X11195Y7347D01*
X11315Y7315D01*
X11441D01*
X11561Y7347D01*
X11670Y7410D01*
X11683Y7423D01*
X11785Y7483D01*
X11887Y7423D01*
X11900Y7410D01*
X12009Y7347D01*
X12129Y7315D01*
X12255D01*
X12375Y7347D01*
X12484Y7410D01*
X12572Y7498D01*
X12635Y7607D01*
X12667Y7727D01*
Y7853D01*
X12635Y7973D01*
X12572Y8082D01*
X12484Y8170D01*
X12375Y8233D01*
X12255Y8265D01*
D02*
G37*
G36*
X-6037Y7951D02*
X-6162D01*
X-6282Y7919D01*
X-6391Y7856D01*
X-6479Y7768D01*
X-6542Y7659D01*
X-6574Y7539D01*
Y7413D01*
X-6542Y7293D01*
X-6479Y7184D01*
X-6391Y7096D01*
X-6282Y7033D01*
X-6162Y7001D01*
X-6037D01*
X-5916Y7033D01*
X-5807Y7096D01*
X-5719Y7184D01*
X-5657Y7293D01*
X-5624Y7413D01*
Y7539D01*
X-5657Y7659D01*
X-5719Y7768D01*
X-5807Y7856D01*
X-5916Y7919D01*
X-6037Y7951D01*
D02*
G37*
G36*
X563Y7460D02*
X437D01*
X317Y7428D01*
X208Y7365D01*
X120Y7277D01*
X57Y7168D01*
X25Y7048D01*
Y6922D01*
X57Y6802D01*
X120Y6693D01*
X208Y6605D01*
X317Y6542D01*
X437Y6510D01*
X563D01*
X683Y6542D01*
X792Y6605D01*
X880Y6693D01*
X943Y6802D01*
X975Y6922D01*
Y7048D01*
X943Y7168D01*
X880Y7277D01*
X792Y7365D01*
X683Y7428D01*
X563Y7460D01*
D02*
G37*
G36*
X1723Y7364D02*
X1598D01*
X1478Y7331D01*
X1369Y7269D01*
X1281Y7181D01*
X1218Y7072D01*
X1186Y6951D01*
Y6826D01*
X1218Y6706D01*
X1281Y6597D01*
X1369Y6509D01*
X1478Y6446D01*
X1598Y6414D01*
X1723D01*
X1844Y6446D01*
X1953Y6509D01*
X2041Y6597D01*
X2103Y6706D01*
X2136Y6826D01*
Y6951D01*
X2103Y7072D01*
X2041Y7181D01*
X1953Y7269D01*
X1844Y7331D01*
X1723Y7364D01*
D02*
G37*
G36*
X-8954Y6190D02*
X-9080D01*
X-9200Y6158D01*
X-9309Y6095D01*
X-9369Y6035D01*
X-9462Y6018D01*
X-9554Y6035D01*
X-9614Y6095D01*
X-9723Y6158D01*
X-9843Y6190D01*
X-9969D01*
X-10089Y6158D01*
X-10198Y6095D01*
X-10286Y6007D01*
X-10349Y5898D01*
X-10381Y5778D01*
Y5652D01*
X-10349Y5532D01*
X-10286Y5423D01*
X-10198Y5335D01*
X-10089Y5272D01*
X-9969Y5240D01*
X-9843D01*
X-9723Y5272D01*
X-9614Y5335D01*
X-9554Y5395D01*
X-9462Y5412D01*
X-9369Y5395D01*
X-9309Y5335D01*
X-9200Y5272D01*
X-9080Y5240D01*
X-8954D01*
X-8834Y5272D01*
X-8725Y5335D01*
X-8637Y5423D01*
X-8574Y5532D01*
X-8542Y5652D01*
Y5778D01*
X-8574Y5898D01*
X-8637Y6007D01*
X-8725Y6095D01*
X-8834Y6158D01*
X-8954Y6190D01*
D02*
G37*
G36*
X-4257Y4920D02*
X-4383D01*
X-4503Y4888D01*
X-4612Y4825D01*
X-4700Y4737D01*
X-4763Y4628D01*
X-4795Y4508D01*
Y4382D01*
X-4763Y4262D01*
X-4700Y4153D01*
X-4612Y4065D01*
X-4503Y4002D01*
X-4383Y3970D01*
X-4257D01*
X-4137Y4002D01*
X-4028Y4065D01*
X-3940Y4153D01*
X-3877Y4262D01*
X-3845Y4382D01*
Y4508D01*
X-3877Y4628D01*
X-3940Y4737D01*
X-4028Y4825D01*
X-4137Y4888D01*
X-4257Y4920D01*
D02*
G37*
G36*
X10350Y4666D02*
X10224D01*
X10104Y4634D01*
X9995Y4571D01*
X9907Y4483D01*
X9844Y4374D01*
X9812Y4254D01*
Y4128D01*
X9844Y4008D01*
X9907Y3899D01*
X9995Y3811D01*
X10104Y3748D01*
X10224Y3716D01*
X10350D01*
X10470Y3748D01*
X10579Y3811D01*
X10667Y3899D01*
X10730Y4008D01*
X10762Y4128D01*
Y4254D01*
X10730Y4374D01*
X10667Y4483D01*
X10579Y4571D01*
X10470Y4634D01*
X10350Y4666D01*
D02*
G37*
G36*
X5188Y4552D02*
X5063D01*
X4942Y4520D01*
X4834Y4458D01*
X4745Y4369D01*
X4683Y4261D01*
X4651Y4140D01*
Y4015D01*
X4683Y3894D01*
X4745Y3786D01*
X4834Y3697D01*
X4942Y3635D01*
X5063Y3602D01*
X5188D01*
X5276Y3626D01*
X5309Y3635D01*
X5389Y3588D01*
X5447Y3542D01*
X5498Y3454D01*
X5586Y3365D01*
X5695Y3303D01*
X5815Y3270D01*
X5941D01*
X6061Y3303D01*
X6170Y3365D01*
X6258Y3454D01*
X6321Y3562D01*
X6353Y3683D01*
Y3808D01*
X6321Y3929D01*
X6258Y4037D01*
X6170Y4125D01*
X6061Y4188D01*
X5941Y4220D01*
X5815D01*
X5727Y4197D01*
X5695Y4188D01*
X5614Y4234D01*
X5556Y4281D01*
X5506Y4369D01*
X5417Y4458D01*
X5309Y4520D01*
X5188Y4552D01*
D02*
G37*
G36*
X-10330Y2575D02*
X-10455D01*
X-10576Y2543D01*
X-10684Y2480D01*
X-10773Y2392D01*
X-10835Y2283D01*
X-10867Y2163D01*
Y2037D01*
X-10835Y1917D01*
X-10773Y1808D01*
X-10684Y1720D01*
X-10576Y1657D01*
X-10455Y1625D01*
X-10330D01*
X-10209Y1657D01*
X-10101Y1720D01*
X-10012Y1808D01*
X-9950Y1917D01*
X-9917Y2037D01*
Y2163D01*
X-9950Y2283D01*
X-10012Y2392D01*
X-10101Y2480D01*
X-10209Y2543D01*
X-10330Y2575D01*
D02*
G37*
G36*
X9969Y2126D02*
X9843D01*
X9723Y2094D01*
X9614Y2031D01*
X9526Y1943D01*
X9463Y1834D01*
X9431Y1714D01*
Y1588D01*
X9463Y1468D01*
X9526Y1359D01*
X9609Y1276D01*
X9526Y1193D01*
X9463Y1084D01*
X9431Y964D01*
Y838D01*
X9463Y718D01*
X9526Y609D01*
X9614Y521D01*
X9723Y458D01*
X9843Y426D01*
X9969D01*
X10089Y458D01*
X10198Y521D01*
X10286Y609D01*
X10349Y718D01*
X10381Y838D01*
Y964D01*
X10349Y1084D01*
X10286Y1193D01*
X10203Y1276D01*
X10286Y1359D01*
X10349Y1468D01*
X10381Y1588D01*
Y1714D01*
X10349Y1834D01*
X10286Y1943D01*
X10198Y2031D01*
X10089Y2094D01*
X9969Y2126D01*
D02*
G37*
G36*
X6667Y1110D02*
X6541D01*
X6421Y1078D01*
X6312Y1015D01*
X6224Y927D01*
X6161Y818D01*
X6129Y698D01*
Y572D01*
X6161Y452D01*
X6224Y343D01*
X6312Y255D01*
X6421Y192D01*
X6541Y160D01*
X6667D01*
X6787Y192D01*
X6896Y255D01*
X6984Y343D01*
X7047Y452D01*
X7079Y572D01*
Y698D01*
X7047Y818D01*
X6984Y927D01*
X6896Y1015D01*
X6787Y1078D01*
X6667Y1110D01*
D02*
G37*
G36*
X1079Y602D02*
X953D01*
X833Y570D01*
X724Y507D01*
X636Y419D01*
X573Y310D01*
X541Y190D01*
Y64D01*
X573Y-56D01*
X636Y-165D01*
X724Y-253D01*
X833Y-316D01*
X953Y-348D01*
X1079D01*
X1199Y-316D01*
X1308Y-253D01*
X1396Y-165D01*
X1459Y-56D01*
X1491Y64D01*
Y190D01*
X1459Y310D01*
X1396Y419D01*
X1308Y507D01*
X1199Y570D01*
X1079Y602D01*
D02*
G37*
G36*
X-5525Y1110D02*
X-5651D01*
X-5771Y1078D01*
X-5880Y1015D01*
X-5968Y927D01*
X-6031Y818D01*
X-6063Y698D01*
Y572D01*
X-6031Y452D01*
X-5968Y343D01*
X-5880Y255D01*
X-5771Y192D01*
X-5651Y160D01*
X-5557D01*
X-5484Y104D01*
X-5428Y31D01*
Y-31D01*
X-5484Y-104D01*
X-5557Y-160D01*
X-5651D01*
X-5771Y-192D01*
X-5880Y-255D01*
X-5968Y-343D01*
X-6031Y-452D01*
X-6063Y-572D01*
Y-698D01*
X-6031Y-818D01*
X-5968Y-927D01*
X-5880Y-1015D01*
X-5771Y-1078D01*
X-5651Y-1110D01*
X-5525D01*
X-5405Y-1078D01*
X-5296Y-1015D01*
X-5208Y-927D01*
X-5145Y-818D01*
X-5113Y-698D01*
Y-604D01*
X-5057Y-531D01*
X-4984Y-475D01*
X-4890D01*
X-4770Y-443D01*
X-4661Y-380D01*
X-4573Y-292D01*
X-4510Y-183D01*
X-4478Y-63D01*
Y63D01*
X-4510Y183D01*
X-4573Y292D01*
X-4661Y380D01*
X-4770Y443D01*
X-4890Y475D01*
X-4984D01*
X-5057Y531D01*
X-5113Y604D01*
Y698D01*
X-5145Y818D01*
X-5208Y927D01*
X-5296Y1015D01*
X-5405Y1078D01*
X-5525Y1110D01*
D02*
G37*
G36*
X-699Y-414D02*
X-825D01*
X-945Y-446D01*
X-1054Y-509D01*
X-1142Y-597D01*
X-1205Y-706D01*
X-1237Y-826D01*
Y-952D01*
X-1205Y-1072D01*
X-1142Y-1181D01*
X-1054Y-1269D01*
X-945Y-1332D01*
X-825Y-1364D01*
X-699D01*
X-579Y-1332D01*
X-470Y-1269D01*
X-382Y-1181D01*
X-319Y-1072D01*
X-287Y-952D01*
Y-826D01*
X-319Y-706D01*
X-382Y-597D01*
X-470Y-509D01*
X-579Y-446D01*
X-699Y-414D01*
D02*
G37*
G36*
X12636Y225D02*
X12510D01*
X12390Y193D01*
X12281Y130D01*
X12193Y42D01*
X12130Y-67D01*
X12098Y-187D01*
Y-313D01*
X12130Y-433D01*
X12193Y-542D01*
X12281Y-630D01*
X12345Y-667D01*
X12354Y-696D01*
Y-804D01*
X12345Y-833D01*
X12281Y-870D01*
X12193Y-958D01*
X12130Y-1067D01*
X12098Y-1187D01*
Y-1313D01*
X12130Y-1433D01*
X12193Y-1542D01*
X12281Y-1630D01*
X12390Y-1693D01*
X12510Y-1725D01*
X12636D01*
X12756Y-1693D01*
X12865Y-1630D01*
X12953Y-1542D01*
X13016Y-1433D01*
X13048Y-1313D01*
Y-1187D01*
X13016Y-1067D01*
X12953Y-958D01*
X12865Y-870D01*
X12801Y-833D01*
X12792Y-804D01*
Y-696D01*
X12801Y-667D01*
X12865Y-630D01*
X12953Y-542D01*
X13016Y-433D01*
X13048Y-313D01*
Y-187D01*
X13016Y-67D01*
X12953Y42D01*
X12865Y130D01*
X12756Y193D01*
X12636Y225D01*
D02*
G37*
G36*
X-6541Y-1430D02*
X-6667D01*
X-6787Y-1462D01*
X-6896Y-1525D01*
X-6984Y-1613D01*
X-7047Y-1722D01*
X-7079Y-1842D01*
Y-1968D01*
X-7047Y-2088D01*
X-6984Y-2197D01*
X-6896Y-2285D01*
X-6787Y-2348D01*
X-6667Y-2380D01*
X-6541D01*
X-6421Y-2348D01*
X-6312Y-2285D01*
X-6224Y-2197D01*
X-6161Y-2088D01*
X-6129Y-1968D01*
Y-1842D01*
X-6161Y-1722D01*
X-6224Y-1613D01*
X-6312Y-1525D01*
X-6421Y-1462D01*
X-6541Y-1430D01*
D02*
G37*
G36*
X-10330Y-1625D02*
X-10455D01*
X-10576Y-1657D01*
X-10684Y-1720D01*
X-10773Y-1808D01*
X-10835Y-1917D01*
X-10867Y-2037D01*
Y-2163D01*
X-10835Y-2283D01*
X-10773Y-2392D01*
X-10684Y-2480D01*
X-10576Y-2543D01*
X-10455Y-2575D01*
X-10330D01*
X-10209Y-2543D01*
X-10101Y-2480D01*
X-10012Y-2392D01*
X-9950Y-2283D01*
X-9917Y-2163D01*
Y-2037D01*
X-9950Y-1917D01*
X-10012Y-1808D01*
X-10101Y-1720D01*
X-10209Y-1657D01*
X-10330Y-1625D01*
D02*
G37*
G36*
X-8651Y-1812D02*
X-8777D01*
X-8897Y-1844D01*
X-9006Y-1907D01*
X-9094Y-1995D01*
X-9157Y-2103D01*
X-9189Y-2224D01*
Y-2349D01*
X-9157Y-2470D01*
X-9094Y-2578D01*
X-9006Y-2667D01*
X-8897Y-2729D01*
X-8777Y-2762D01*
X-8651D01*
X-8531Y-2729D01*
X-8422Y-2667D01*
X-8334Y-2578D01*
X-8271Y-2470D01*
X-8239Y-2349D01*
Y-2224D01*
X-8271Y-2103D01*
X-8334Y-1995D01*
X-8422Y-1907D01*
X-8531Y-1844D01*
X-8651Y-1812D01*
D02*
G37*
G36*
X7302Y-2446D02*
X7176D01*
X7056Y-2478D01*
X6947Y-2541D01*
X6859Y-2629D01*
X6796Y-2738D01*
X6764Y-2858D01*
Y-2984D01*
X6796Y-3104D01*
X6859Y-3213D01*
X6947Y-3301D01*
X7056Y-3364D01*
X7176Y-3396D01*
X7302D01*
X7422Y-3364D01*
X7531Y-3301D01*
X7619Y-3213D01*
X7682Y-3104D01*
X7714Y-2984D01*
Y-2858D01*
X7682Y-2738D01*
X7619Y-2629D01*
X7531Y-2541D01*
X7422Y-2478D01*
X7302Y-2446D01*
D02*
G37*
G36*
X6413Y-3970D02*
X6287D01*
X6167Y-4002D01*
X6058Y-4065D01*
X5970Y-4153D01*
X5907Y-4262D01*
X5875Y-4382D01*
Y-4508D01*
X5907Y-4628D01*
X5970Y-4737D01*
X6058Y-4825D01*
X6167Y-4888D01*
X6287Y-4920D01*
X6413D01*
X6533Y-4888D01*
X6642Y-4825D01*
X6730Y-4737D01*
X6793Y-4628D01*
X6825Y-4508D01*
Y-4382D01*
X6793Y-4262D01*
X6730Y-4153D01*
X6642Y-4065D01*
X6533Y-4002D01*
X6413Y-3970D01*
D02*
G37*
G36*
X4441Y-4006D02*
X4315D01*
X4195Y-4038D01*
X4086Y-4101D01*
X3998Y-4189D01*
X3935Y-4298D01*
X3903Y-4418D01*
Y-4544D01*
X3935Y-4664D01*
X3998Y-4773D01*
X4086Y-4861D01*
X4195Y-4924D01*
X4315Y-4956D01*
X4441D01*
X4561Y-4924D01*
X4670Y-4861D01*
X4758Y-4773D01*
X4821Y-4664D01*
X4853Y-4544D01*
Y-4418D01*
X4821Y-4298D01*
X4758Y-4189D01*
X4670Y-4101D01*
X4561Y-4038D01*
X4441Y-4006D01*
D02*
G37*
G36*
X-637Y-4224D02*
X-763D01*
X-883Y-4256D01*
X-992Y-4319D01*
X-1080Y-4407D01*
X-1143Y-4516D01*
X-1175Y-4636D01*
Y-4762D01*
X-1143Y-4882D01*
X-1080Y-4991D01*
X-992Y-5079D01*
X-883Y-5142D01*
X-763Y-5174D01*
X-637D01*
X-517Y-5142D01*
X-408Y-5079D01*
X-320Y-4991D01*
X-257Y-4882D01*
X-225Y-4762D01*
Y-4636D01*
X-257Y-4516D01*
X-320Y-4407D01*
X-408Y-4319D01*
X-517Y-4256D01*
X-637Y-4224D01*
D02*
G37*
G36*
X8038Y-6510D02*
X7912D01*
X7792Y-6542D01*
X7683Y-6605D01*
X7595Y-6693D01*
X7532Y-6802D01*
X7531Y-6807D01*
X7370Y-6829D01*
X7365Y-6820D01*
X7277Y-6732D01*
X7168Y-6669D01*
X7048Y-6637D01*
X6922D01*
X6802Y-6669D01*
X6693Y-6732D01*
X6605Y-6820D01*
X6542Y-6929D01*
X6510Y-7049D01*
Y-7175D01*
X6542Y-7295D01*
X6605Y-7404D01*
X6693Y-7492D01*
X6802Y-7555D01*
X6922Y-7587D01*
X7048D01*
X7168Y-7555D01*
X7277Y-7492D01*
X7365Y-7404D01*
X7428Y-7295D01*
X7429Y-7290D01*
X7590Y-7268D01*
X7595Y-7277D01*
X7683Y-7365D01*
X7792Y-7428D01*
X7912Y-7460D01*
X8038D01*
X8158Y-7428D01*
X8267Y-7365D01*
X8355Y-7277D01*
X8418Y-7168D01*
X8450Y-7048D01*
Y-6922D01*
X8418Y-6802D01*
X8355Y-6693D01*
X8267Y-6605D01*
X8158Y-6542D01*
X8038Y-6510D01*
D02*
G37*
G36*
X-8700Y-3970D02*
X-8826D01*
X-8946Y-4002D01*
X-9055Y-4065D01*
X-9143Y-4153D01*
X-9206Y-4262D01*
X-9238Y-4382D01*
Y-4508D01*
X-9206Y-4628D01*
X-9143Y-4737D01*
X-9055Y-4825D01*
X-8975Y-4871D01*
X-8959Y-4953D01*
X-8975Y-5035D01*
X-9055Y-5081D01*
X-9143Y-5169D01*
X-9206Y-5278D01*
X-9238Y-5398D01*
Y-5524D01*
X-9206Y-5644D01*
X-9143Y-5753D01*
X-9055Y-5841D01*
X-8975Y-5887D01*
X-8959Y-5969D01*
X-8975Y-6051D01*
X-9055Y-6097D01*
X-9143Y-6185D01*
X-9206Y-6294D01*
X-9238Y-6414D01*
Y-6540D01*
X-9206Y-6660D01*
X-9143Y-6769D01*
X-9055Y-6857D01*
X-8946Y-6920D01*
X-8826Y-6952D01*
X-8700D01*
X-8580Y-6920D01*
X-8471Y-6857D01*
X-8383Y-6769D01*
X-8320Y-6660D01*
X-8288Y-6540D01*
Y-6414D01*
X-8320Y-6294D01*
X-8383Y-6185D01*
X-8471Y-6097D01*
X-8551Y-6051D01*
X-8567Y-5969D01*
X-8551Y-5887D01*
X-8471Y-5841D01*
X-8383Y-5753D01*
X-8320Y-5644D01*
X-8288Y-5524D01*
Y-5398D01*
X-8320Y-5278D01*
X-8383Y-5169D01*
X-8471Y-5081D01*
X-8551Y-5035D01*
X-8567Y-4953D01*
X-8551Y-4871D01*
X-8471Y-4825D01*
X-8383Y-4737D01*
X-8320Y-4628D01*
X-8288Y-4508D01*
Y-4382D01*
X-8320Y-4262D01*
X-8383Y-4153D01*
X-8471Y-4065D01*
X-8580Y-4002D01*
X-8700Y-3970D01*
D02*
G37*
G36*
X5651Y-6637D02*
X5525D01*
X5405Y-6669D01*
X5296Y-6732D01*
X5208Y-6820D01*
X5145Y-6929D01*
X5113Y-7049D01*
Y-7175D01*
X5145Y-7295D01*
X5208Y-7404D01*
X5296Y-7492D01*
X5405Y-7555D01*
X5525Y-7587D01*
X5651D01*
X5771Y-7555D01*
X5880Y-7492D01*
X5968Y-7404D01*
X6031Y-7295D01*
X6063Y-7175D01*
Y-7049D01*
X6031Y-6929D01*
X5968Y-6820D01*
X5880Y-6732D01*
X5771Y-6669D01*
X5651Y-6637D01*
D02*
G37*
G36*
X-10804Y-7523D02*
X-10906Y-7537D01*
X-11002Y-7576D01*
X-11084Y-7639D01*
X-12173Y-8728D01*
X-12236Y-8810D01*
X-12275Y-8906D01*
X-12289Y-9008D01*
X-12275Y-9110D01*
X-12236Y-9206D01*
X-12173Y-9288D01*
X-11084Y-10377D01*
X-11002Y-10440D01*
X-10906Y-10479D01*
X-10804Y-10493D01*
X-10702Y-10479D01*
X-10606Y-10440D01*
X-10524Y-10377D01*
X-9435Y-9288D01*
X-9372Y-9206D01*
X-9333Y-9110D01*
X-9319Y-9008D01*
X-9333Y-8906D01*
X-9372Y-8810D01*
X-9435Y-8728D01*
X-10524Y-7639D01*
X-10606Y-7576D01*
X-10702Y-7537D01*
X-10804Y-7523D01*
D02*
G37*
G36*
X131Y-11000D02*
X-131D01*
X-391Y-11034D01*
X-644Y-11102D01*
X-886Y-11202D01*
X-1114Y-11333D01*
X-1322Y-11493D01*
X-1507Y-11678D01*
X-1667Y-11886D01*
X-1798Y-12114D01*
X-1898Y-12356D01*
X-1966Y-12609D01*
X-2000Y-12869D01*
Y-13131D01*
X-1966Y-13391D01*
X-1898Y-13644D01*
X-1798Y-13886D01*
X-1667Y-14114D01*
X-1507Y-14322D01*
X-1322Y-14507D01*
X-1114Y-14667D01*
X-886Y-14798D01*
X-644Y-14898D01*
X-391Y-14966D01*
X-131Y-15000D01*
X131D01*
X391Y-14966D01*
X644Y-14898D01*
X886Y-14798D01*
X1114Y-14667D01*
X1322Y-14507D01*
X1507Y-14322D01*
X1667Y-14114D01*
X1798Y-13886D01*
X1898Y-13644D01*
X1966Y-13391D01*
X2000Y-13131D01*
Y-12869D01*
X1966Y-12609D01*
X1898Y-12356D01*
X1798Y-12114D01*
X1667Y-11886D01*
X1507Y-11678D01*
X1322Y-11493D01*
X1114Y-11333D01*
X886Y-11202D01*
X644Y-11102D01*
X391Y-11034D01*
X131Y-11000D01*
D02*
G37*
%LPD*%
D56*
X-9008Y-10804D02*
D03*
D57*
X-4320Y8250D02*
D03*
X4320D02*
D03*
D58*
X-4320Y13610D02*
D03*
X4320D02*
D03*
D59*
X0Y12685D02*
D03*
X-4064Y-1143D02*
D03*
X7239Y-4114D02*
D03*
X9525Y-10160D02*
D03*
X4572Y-8525D02*
D03*
X-1270Y-8537D02*
D03*
X3000Y-5858D02*
D03*
X-3000Y-5858D02*
D03*
X6985Y-10160D02*
D03*
X5588D02*
D03*
X15240Y254D02*
D03*
X-7874Y-5969D02*
D03*
X-13589Y-6477D02*
D03*
Y-5461D02*
D03*
Y-4445D02*
D03*
X-9906Y4064D02*
D03*
X0Y1143D02*
D03*
X700Y-4699D02*
D03*
X3100Y10000D02*
D03*
X-3100D02*
D03*
X-4445Y-3175D02*
D03*
X-10922Y-1524D02*
D03*
Y1524D02*
D03*
M02*
