G04*
G04 #@! TF.GenerationSoftware,Altium Limited,Altium Designer,23.3.1 (30)*
G04*
G04 Layer_Physical_Order=3*
G04 Layer_Color=16440176*
%FSLAX43Y43*%
%MOMM*%
G71*
G04*
G04 #@! TF.SameCoordinates,68B4457D-8A2E-4C3C-B976-16FA262DB654*
G04*
G04*
G04 #@! TF.FilePolarity,Positive*
G04*
G01*
G75*
G04:AMPARAMS|DCode=55|XSize=1.925mm|YSize=1.925mm|CornerRadius=0.193mm|HoleSize=0mm|Usage=FLASHONLY|Rotation=315.000|XOffset=0mm|YOffset=0mm|HoleType=Round|Shape=RoundedRectangle|*
%AMROUNDEDRECTD55*
21,1,1.925,1.540,0,0,315.0*
21,1,1.540,1.925,0,0,315.0*
1,1,0.385,0.000,-1.089*
1,1,0.385,-1.089,0.000*
1,1,0.385,0.000,1.089*
1,1,0.385,1.089,0.000*
%
%ADD55ROUNDEDRECTD55*%
%ADD59C,0.550*%
G36*
X-10782Y10914D02*
X-10798Y10886D01*
X-10898Y10644D01*
X-10966Y10391D01*
X-11000Y10131D01*
Y9869D01*
X-10966Y9609D01*
X-10898Y9356D01*
X-10798Y9114D01*
X-10667Y8886D01*
X-10507Y8678D01*
X-10322Y8493D01*
X-10114Y8333D01*
X-9886Y8202D01*
X-9644Y8102D01*
X-9391Y8034D01*
X-9131Y8000D01*
X-8869D01*
X-8609Y8034D01*
X-8356Y8102D01*
X-8114Y8202D01*
X-7974Y8283D01*
X-7824Y8196D01*
Y-5494D01*
X-7937D01*
X-8057Y-5526D01*
X-8166Y-5589D01*
X-8254Y-5677D01*
X-8317Y-5786D01*
X-8349Y-5906D01*
Y-6032D01*
X-8317Y-6152D01*
X-8254Y-6261D01*
X-8166Y-6349D01*
X-8057Y-6412D01*
X-7937Y-6444D01*
X-7824D01*
Y-10237D01*
X-7974Y-10273D01*
X-8014Y-10195D01*
X-8121Y-10047D01*
X-8251Y-9917D01*
X-8399Y-9810D01*
X-8562Y-9727D01*
X-8736Y-9670D01*
X-8916Y-9642D01*
X-9099D01*
X-9280Y-9670D01*
X-9454Y-9727D01*
X-9617Y-9810D01*
X-9765Y-9917D01*
X-9895Y-10047D01*
X-10002Y-10195D01*
X-10085Y-10358D01*
X-10142Y-10532D01*
X-10170Y-10713D01*
Y-10896D01*
X-10142Y-11076D01*
X-10085Y-11250D01*
X-10002Y-11413D01*
X-9895Y-11561D01*
X-9765Y-11691D01*
X-9617Y-11798D01*
X-9454Y-11881D01*
X-9280Y-11938D01*
X-9099Y-11967D01*
X-8916D01*
X-8736Y-11938D01*
X-8562Y-11881D01*
X-8399Y-11798D01*
X-8251Y-11691D01*
X-8121Y-11561D01*
X-8014Y-11413D01*
X-7974Y-11335D01*
X-7824Y-11371D01*
Y-13218D01*
X-7954Y-13293D01*
X-8344Y-13064D01*
X-9309Y-12395D01*
X-10221Y-11655D01*
X-11074Y-10847D01*
X-11863Y-9978D01*
X-12585Y-9051D01*
X-13234Y-8072D01*
X-13795Y-7069D01*
X-13768Y-7012D01*
X-13691Y-6942D01*
X-13652Y-6952D01*
X-13526D01*
X-13406Y-6920D01*
X-13297Y-6857D01*
X-13209Y-6769D01*
X-13146Y-6660D01*
X-13114Y-6540D01*
Y-6414D01*
X-13146Y-6294D01*
X-13209Y-6185D01*
X-13297Y-6097D01*
X-13377Y-6051D01*
X-13393Y-5969D01*
X-13377Y-5887D01*
X-13297Y-5841D01*
X-13209Y-5753D01*
X-13146Y-5644D01*
X-13114Y-5524D01*
Y-5398D01*
X-13146Y-5278D01*
X-13209Y-5169D01*
X-13297Y-5081D01*
X-13377Y-5035D01*
X-13393Y-4953D01*
X-13377Y-4871D01*
X-13297Y-4825D01*
X-13209Y-4737D01*
X-13146Y-4628D01*
X-13114Y-4508D01*
Y-4382D01*
X-13146Y-4262D01*
X-13209Y-4153D01*
X-13297Y-4065D01*
X-13406Y-4002D01*
X-13526Y-3970D01*
X-13652D01*
X-13772Y-4002D01*
X-13881Y-4065D01*
X-13969Y-4153D01*
X-14032Y-4262D01*
X-14064Y-4382D01*
Y-4508D01*
X-14032Y-4628D01*
X-13969Y-4737D01*
X-13881Y-4825D01*
X-13801Y-4871D01*
X-13785Y-4953D01*
X-13801Y-5035D01*
X-13881Y-5081D01*
X-13969Y-5169D01*
X-14032Y-5278D01*
X-14064Y-5398D01*
Y-5524D01*
X-14032Y-5644D01*
X-13969Y-5753D01*
X-13881Y-5841D01*
X-13801Y-5887D01*
X-13785Y-5969D01*
X-13801Y-6051D01*
X-13881Y-6097D01*
X-13969Y-6185D01*
X-14009Y-6254D01*
X-14133Y-6265D01*
X-14175Y-6253D01*
X-14301Y-5981D01*
X-14713Y-4882D01*
X-15040Y-3754D01*
X-15281Y-2604D01*
X-15434Y-1440D01*
X-15499Y-267D01*
X-15475Y907D01*
X-15362Y2076D01*
X-15160Y3233D01*
X-14872Y4372D01*
X-14498Y5485D01*
X-14041Y6567D01*
X-13504Y7612D01*
X-12889Y8612D01*
X-12200Y9563D01*
X-11441Y10459D01*
X-10902Y11006D01*
X-10782Y10914D01*
D02*
G37*
G36*
X3707Y14795D02*
X3693Y14779D01*
X3624Y14648D01*
X3581Y14507D01*
X3566Y14360D01*
Y12860D01*
X3581Y12713D01*
X3624Y12572D01*
X3693Y12441D01*
X3787Y12327D01*
X3901Y12233D01*
X4032Y12164D01*
X4173Y12121D01*
X4320Y12106D01*
X4467Y12121D01*
X4608Y12164D01*
X4739Y12233D01*
X4853Y12327D01*
X4947Y12441D01*
X5016Y12572D01*
X5059Y12713D01*
X5074Y12860D01*
Y14360D01*
X5062Y14481D01*
X5115Y14545D01*
X5189Y14595D01*
X5685Y14421D01*
X6760Y13950D01*
X7797Y13398D01*
X8789Y12769D01*
X9730Y12067D01*
X9823Y11986D01*
X9743Y11857D01*
X9644Y11898D01*
X9391Y11966D01*
X9131Y12000D01*
X8869D01*
X8609Y11966D01*
X8356Y11898D01*
X8114Y11798D01*
X7886Y11667D01*
X7678Y11507D01*
X7493Y11322D01*
X7333Y11114D01*
X7202Y10886D01*
X7102Y10644D01*
X7034Y10391D01*
X7000Y10131D01*
Y9869D01*
X7034Y9609D01*
X7102Y9356D01*
X7202Y9114D01*
X7333Y8886D01*
X7493Y8678D01*
X7678Y8493D01*
X7886Y8333D01*
X8114Y8202D01*
X8356Y8102D01*
X8609Y8034D01*
X8869Y8000D01*
X9131D01*
X9391Y8034D01*
X9644Y8102D01*
X9886Y8202D01*
X10114Y8333D01*
X10322Y8493D01*
X10507Y8678D01*
X10667Y8886D01*
X10798Y9114D01*
X10898Y9356D01*
X10966Y9609D01*
X11000Y9869D01*
Y10131D01*
X10966Y10391D01*
X10898Y10644D01*
X10798Y10886D01*
X10782Y10914D01*
X10902Y11006D01*
X11441Y10459D01*
X12200Y9563D01*
X12889Y8612D01*
X13504Y7612D01*
X14041Y6567D01*
X14498Y5485D01*
X14872Y4372D01*
X15160Y3233D01*
X15362Y2076D01*
X15475Y907D01*
X15476Y831D01*
X15329Y722D01*
X15303Y729D01*
X15177D01*
X15057Y697D01*
X14948Y634D01*
X14860Y546D01*
X14797Y437D01*
X14765Y317D01*
Y191D01*
X14797Y71D01*
X14860Y-38D01*
X14948Y-126D01*
X15057Y-189D01*
X15177Y-221D01*
X15303D01*
X15348Y-209D01*
X15415Y-235D01*
X15482Y-294D01*
X15496Y-319D01*
X15434Y-1440D01*
X15281Y-2604D01*
X15040Y-3754D01*
X14713Y-4882D01*
X14301Y-5981D01*
X13807Y-7047D01*
X13234Y-8072D01*
X12585Y-9051D01*
X11863Y-9978D01*
X11074Y-10847D01*
X10221Y-11655D01*
X9309Y-12395D01*
X8344Y-13064D01*
X7331Y-13658D01*
X6276Y-14174D01*
X5185Y-14609D01*
X4064Y-14959D01*
X2919Y-15224D01*
X1758Y-15401D01*
X587Y-15490D01*
X-587D01*
X-1758Y-15401D01*
X-2919Y-15224D01*
X-4064Y-14959D01*
X-5185Y-14609D01*
X-6276Y-14174D01*
X-7331Y-13658D01*
X-7620Y-13489D01*
Y-6371D01*
X-7582Y-6349D01*
X-7494Y-6261D01*
X-7431Y-6152D01*
X-7399Y-6032D01*
Y-5906D01*
X-7431Y-5786D01*
X-7494Y-5677D01*
X-7582Y-5589D01*
X-7620Y-5567D01*
Y8552D01*
X-7493Y8678D01*
X-7333Y8886D01*
X-7202Y9114D01*
X-7102Y9356D01*
X-7034Y9609D01*
X-7000Y9869D01*
Y10131D01*
X-7034Y10391D01*
X-7102Y10644D01*
X-7202Y10886D01*
X-7333Y11114D01*
X-7493Y11322D01*
X-7620Y11448D01*
Y13492D01*
X-6760Y13950D01*
X-5685Y14421D01*
X-5189Y14595D01*
X-5115Y14545D01*
X-5062Y14481D01*
X-5074Y14360D01*
Y12860D01*
X-5059Y12713D01*
X-5016Y12572D01*
X-4947Y12441D01*
X-4853Y12327D01*
X-4739Y12233D01*
X-4608Y12164D01*
X-4467Y12121D01*
X-4320Y12106D01*
X-4173Y12121D01*
X-4032Y12164D01*
X-3901Y12233D01*
X-3787Y12327D01*
X-3693Y12441D01*
X-3624Y12572D01*
X-3581Y12713D01*
X-3566Y12860D01*
Y14360D01*
X-3581Y14507D01*
X-3624Y14648D01*
X-3693Y14779D01*
X-3707Y14795D01*
X-3636Y14945D01*
X3636Y14945D01*
X3707Y14795D01*
D02*
G37*
%LPC*%
G36*
X-9843Y4539D02*
X-9969D01*
X-10089Y4507D01*
X-10198Y4444D01*
X-10286Y4356D01*
X-10349Y4247D01*
X-10381Y4127D01*
Y4001D01*
X-10349Y3881D01*
X-10286Y3772D01*
X-10198Y3684D01*
X-10089Y3621D01*
X-9969Y3589D01*
X-9843D01*
X-9723Y3621D01*
X-9614Y3684D01*
X-9526Y3772D01*
X-9463Y3881D01*
X-9431Y4001D01*
Y4127D01*
X-9463Y4247D01*
X-9526Y4356D01*
X-9614Y4444D01*
X-9723Y4507D01*
X-9843Y4539D01*
D02*
G37*
G36*
X-10859Y1999D02*
X-10985D01*
X-11105Y1967D01*
X-11214Y1904D01*
X-11302Y1816D01*
X-11365Y1707D01*
X-11397Y1587D01*
Y1461D01*
X-11365Y1341D01*
X-11302Y1232D01*
X-11214Y1144D01*
X-11105Y1081D01*
X-10985Y1049D01*
X-10859D01*
X-10739Y1081D01*
X-10630Y1144D01*
X-10542Y1232D01*
X-10479Y1341D01*
X-10447Y1461D01*
Y1587D01*
X-10479Y1707D01*
X-10542Y1816D01*
X-10630Y1904D01*
X-10739Y1967D01*
X-10859Y1999D01*
D02*
G37*
G36*
Y-1049D02*
X-10985D01*
X-11105Y-1081D01*
X-11214Y-1144D01*
X-11302Y-1232D01*
X-11365Y-1341D01*
X-11397Y-1461D01*
Y-1587D01*
X-11365Y-1707D01*
X-11302Y-1816D01*
X-11214Y-1904D01*
X-11105Y-1967D01*
X-10985Y-1999D01*
X-10859D01*
X-10739Y-1967D01*
X-10630Y-1904D01*
X-10542Y-1816D01*
X-10479Y-1707D01*
X-10447Y-1587D01*
Y-1461D01*
X-10479Y-1341D01*
X-10542Y-1232D01*
X-10630Y-1144D01*
X-10739Y-1081D01*
X-10859Y-1049D01*
D02*
G37*
G36*
X63Y13160D02*
X-63D01*
X-183Y13128D01*
X-292Y13065D01*
X-380Y12977D01*
X-443Y12868D01*
X-475Y12748D01*
Y12622D01*
X-443Y12502D01*
X-380Y12393D01*
X-292Y12305D01*
X-183Y12242D01*
X-63Y12210D01*
X63D01*
X183Y12242D01*
X292Y12305D01*
X380Y12393D01*
X443Y12502D01*
X475Y12622D01*
Y12748D01*
X443Y12868D01*
X380Y12977D01*
X292Y13065D01*
X183Y13128D01*
X63Y13160D01*
D02*
G37*
G36*
X3163Y10475D02*
X3037D01*
X2917Y10443D01*
X2808Y10380D01*
X2720Y10292D01*
X2657Y10183D01*
X2625Y10063D01*
Y9937D01*
X2657Y9817D01*
X2720Y9708D01*
X2808Y9620D01*
X2917Y9557D01*
X3037Y9525D01*
X3163D01*
X3283Y9557D01*
X3392Y9620D01*
X3480Y9708D01*
X3543Y9817D01*
X3575Y9937D01*
Y10063D01*
X3543Y10183D01*
X3480Y10292D01*
X3392Y10380D01*
X3283Y10443D01*
X3163Y10475D01*
D02*
G37*
G36*
X-411Y10630D02*
X-536D01*
X-657Y10598D01*
X-766Y10536D01*
X-854Y10447D01*
X-917Y10339D01*
X-949Y10218D01*
Y10093D01*
X-917Y9972D01*
X-854Y9864D01*
X-766Y9775D01*
X-657Y9713D01*
X-536Y9680D01*
X-411D01*
X-291Y9713D01*
X-182Y9775D01*
X-107Y9851D01*
X-40Y9849D01*
X56Y9823D01*
X57Y9817D01*
X120Y9708D01*
X208Y9620D01*
X317Y9557D01*
X437Y9525D01*
X563D01*
X683Y9557D01*
X792Y9620D01*
X880Y9708D01*
X943Y9817D01*
X975Y9937D01*
Y10063D01*
X943Y10183D01*
X880Y10292D01*
X792Y10380D01*
X683Y10443D01*
X563Y10475D01*
X437D01*
X317Y10443D01*
X208Y10380D01*
X133Y10305D01*
X66Y10306D01*
X-30Y10333D01*
X-31Y10339D01*
X-94Y10447D01*
X-182Y10536D01*
X-291Y10598D01*
X-411Y10630D01*
D02*
G37*
G36*
X-3037Y10475D02*
X-3163D01*
X-3283Y10443D01*
X-3392Y10380D01*
X-3480Y10292D01*
X-3543Y10183D01*
X-3575Y10063D01*
Y9937D01*
X-3543Y9817D01*
X-3480Y9708D01*
X-3392Y9620D01*
X-3283Y9557D01*
X-3163Y9525D01*
X-3037D01*
X-2917Y9557D01*
X-2808Y9620D01*
X-2720Y9708D01*
X-2657Y9817D01*
X-2625Y9937D01*
Y10063D01*
X-2657Y10183D01*
X-2720Y10292D01*
X-2808Y10380D01*
X-2917Y10443D01*
X-3037Y10475D01*
D02*
G37*
G36*
X12255Y8265D02*
X12129D01*
X12009Y8233D01*
X11900Y8170D01*
X11887Y8157D01*
X11785Y8097D01*
X11683Y8157D01*
X11670Y8170D01*
X11561Y8233D01*
X11441Y8265D01*
X11315D01*
X11195Y8233D01*
X11086Y8170D01*
X11059Y8143D01*
X10960Y8099D01*
X10860Y8143D01*
X10833Y8170D01*
X10724Y8233D01*
X10604Y8265D01*
X10478D01*
X10358Y8233D01*
X10249Y8170D01*
X10161Y8082D01*
X10098Y7973D01*
X10066Y7853D01*
Y7727D01*
X10098Y7607D01*
X10161Y7498D01*
X10249Y7410D01*
X10358Y7347D01*
X10478Y7315D01*
X10604D01*
X10724Y7347D01*
X10833Y7410D01*
X10860Y7437D01*
X10960Y7481D01*
X11059Y7437D01*
X11086Y7410D01*
X11195Y7347D01*
X11315Y7315D01*
X11441D01*
X11561Y7347D01*
X11670Y7410D01*
X11683Y7423D01*
X11785Y7483D01*
X11887Y7423D01*
X11900Y7410D01*
X12009Y7347D01*
X12129Y7315D01*
X12255D01*
X12375Y7347D01*
X12484Y7410D01*
X12572Y7498D01*
X12635Y7607D01*
X12667Y7727D01*
Y7853D01*
X12635Y7973D01*
X12572Y8082D01*
X12484Y8170D01*
X12375Y8233D01*
X12255Y8265D01*
D02*
G37*
G36*
X-6037Y7951D02*
X-6162D01*
X-6282Y7919D01*
X-6391Y7856D01*
X-6479Y7768D01*
X-6542Y7659D01*
X-6574Y7539D01*
Y7413D01*
X-6542Y7293D01*
X-6479Y7184D01*
X-6391Y7096D01*
X-6282Y7033D01*
X-6162Y7001D01*
X-6037D01*
X-5916Y7033D01*
X-5807Y7096D01*
X-5719Y7184D01*
X-5657Y7293D01*
X-5624Y7413D01*
Y7539D01*
X-5657Y7659D01*
X-5719Y7768D01*
X-5807Y7856D01*
X-5916Y7919D01*
X-6037Y7951D01*
D02*
G37*
G36*
X4320Y9504D02*
X4173Y9489D01*
X4032Y9446D01*
X3901Y9377D01*
X3787Y9283D01*
X3693Y9169D01*
X3624Y9038D01*
X3581Y8897D01*
X3566Y8750D01*
Y7750D01*
X3581Y7603D01*
X3624Y7462D01*
X3693Y7331D01*
X3787Y7217D01*
X3901Y7123D01*
X4032Y7054D01*
X4173Y7011D01*
X4320Y6996D01*
X4467Y7011D01*
X4608Y7054D01*
X4739Y7123D01*
X4853Y7217D01*
X4947Y7331D01*
X5016Y7462D01*
X5059Y7603D01*
X5074Y7750D01*
Y8750D01*
X5059Y8897D01*
X5016Y9038D01*
X4947Y9169D01*
X4853Y9283D01*
X4739Y9377D01*
X4608Y9446D01*
X4467Y9489D01*
X4320Y9504D01*
D02*
G37*
G36*
X-4320D02*
X-4467Y9489D01*
X-4608Y9446D01*
X-4739Y9377D01*
X-4853Y9283D01*
X-4947Y9169D01*
X-5016Y9038D01*
X-5059Y8897D01*
X-5074Y8750D01*
Y7750D01*
X-5059Y7603D01*
X-5016Y7462D01*
X-4947Y7331D01*
X-4853Y7217D01*
X-4739Y7123D01*
X-4608Y7054D01*
X-4467Y7011D01*
X-4320Y6996D01*
X-4173Y7011D01*
X-4032Y7054D01*
X-3901Y7123D01*
X-3787Y7217D01*
X-3693Y7331D01*
X-3624Y7462D01*
X-3581Y7603D01*
X-3566Y7750D01*
Y8750D01*
X-3581Y8897D01*
X-3624Y9038D01*
X-3693Y9169D01*
X-3787Y9283D01*
X-3901Y9377D01*
X-4032Y9446D01*
X-4173Y9489D01*
X-4320Y9504D01*
D02*
G37*
G36*
X563Y7460D02*
X437D01*
X317Y7428D01*
X208Y7365D01*
X120Y7277D01*
X57Y7168D01*
X25Y7048D01*
Y6922D01*
X57Y6802D01*
X120Y6693D01*
X208Y6605D01*
X317Y6542D01*
X437Y6510D01*
X563D01*
X683Y6542D01*
X792Y6605D01*
X880Y6693D01*
X943Y6802D01*
X975Y6922D01*
Y7048D01*
X943Y7168D01*
X880Y7277D01*
X792Y7365D01*
X683Y7428D01*
X563Y7460D01*
D02*
G37*
G36*
X1723Y7364D02*
X1598D01*
X1478Y7331D01*
X1369Y7269D01*
X1281Y7181D01*
X1218Y7072D01*
X1186Y6951D01*
Y6826D01*
X1218Y6706D01*
X1281Y6597D01*
X1369Y6509D01*
X1478Y6446D01*
X1598Y6414D01*
X1723D01*
X1844Y6446D01*
X1953Y6509D01*
X2041Y6597D01*
X2103Y6706D01*
X2136Y6826D01*
Y6951D01*
X2103Y7072D01*
X2041Y7181D01*
X1953Y7269D01*
X1844Y7331D01*
X1723Y7364D01*
D02*
G37*
G36*
X10350Y4666D02*
X10224D01*
X10104Y4634D01*
X9995Y4571D01*
X9907Y4483D01*
X9844Y4374D01*
X9812Y4254D01*
Y4128D01*
X9844Y4008D01*
X9907Y3899D01*
X9995Y3811D01*
X10104Y3748D01*
X10224Y3716D01*
X10350D01*
X10470Y3748D01*
X10579Y3811D01*
X10667Y3899D01*
X10730Y4008D01*
X10762Y4128D01*
Y4254D01*
X10730Y4374D01*
X10667Y4483D01*
X10579Y4571D01*
X10470Y4634D01*
X10350Y4666D01*
D02*
G37*
G36*
X5188Y4552D02*
X5063D01*
X4942Y4520D01*
X4834Y4458D01*
X4745Y4369D01*
X4683Y4261D01*
X4651Y4140D01*
Y4015D01*
X4683Y3894D01*
X4745Y3786D01*
X4834Y3697D01*
X4942Y3635D01*
X5063Y3602D01*
X5188D01*
X5276Y3626D01*
X5309Y3635D01*
X5389Y3588D01*
X5447Y3542D01*
X5498Y3454D01*
X5586Y3365D01*
X5695Y3303D01*
X5815Y3270D01*
X5941D01*
X6061Y3303D01*
X6170Y3365D01*
X6258Y3454D01*
X6321Y3562D01*
X6353Y3683D01*
Y3808D01*
X6321Y3929D01*
X6258Y4037D01*
X6170Y4125D01*
X6061Y4188D01*
X5941Y4220D01*
X5815D01*
X5727Y4197D01*
X5695Y4188D01*
X5614Y4234D01*
X5556Y4281D01*
X5506Y4369D01*
X5417Y4458D01*
X5309Y4520D01*
X5188Y4552D01*
D02*
G37*
G36*
X63Y1618D02*
X-63D01*
X-183Y1586D01*
X-292Y1523D01*
X-380Y1435D01*
X-443Y1326D01*
X-475Y1206D01*
Y1080D01*
X-443Y960D01*
X-380Y851D01*
X-292Y763D01*
X-183Y700D01*
X-63Y668D01*
X63D01*
X183Y700D01*
X292Y763D01*
X380Y851D01*
X443Y960D01*
X475Y1080D01*
Y1206D01*
X443Y1326D01*
X380Y1435D01*
X292Y1523D01*
X183Y1586D01*
X63Y1618D01*
D02*
G37*
G36*
X9969Y2126D02*
X9843D01*
X9723Y2094D01*
X9614Y2031D01*
X9526Y1943D01*
X9463Y1834D01*
X9431Y1714D01*
Y1588D01*
X9463Y1468D01*
X9526Y1359D01*
X9609Y1276D01*
X9526Y1193D01*
X9463Y1084D01*
X9431Y964D01*
Y838D01*
X9463Y718D01*
X9526Y609D01*
X9614Y521D01*
X9723Y458D01*
X9843Y426D01*
X9969D01*
X10089Y458D01*
X10198Y521D01*
X10286Y609D01*
X10349Y718D01*
X10381Y838D01*
Y964D01*
X10349Y1084D01*
X10286Y1193D01*
X10203Y1276D01*
X10286Y1359D01*
X10349Y1468D01*
X10381Y1588D01*
Y1714D01*
X10349Y1834D01*
X10286Y1943D01*
X10198Y2031D01*
X10089Y2094D01*
X9969Y2126D01*
D02*
G37*
G36*
X1079Y602D02*
X953D01*
X833Y570D01*
X724Y507D01*
X636Y419D01*
X573Y310D01*
X541Y190D01*
Y64D01*
X573Y-56D01*
X636Y-165D01*
X724Y-253D01*
X833Y-316D01*
X953Y-348D01*
X1079D01*
X1199Y-316D01*
X1308Y-253D01*
X1396Y-165D01*
X1459Y-56D01*
X1491Y64D01*
Y190D01*
X1459Y310D01*
X1396Y419D01*
X1308Y507D01*
X1199Y570D01*
X1079Y602D01*
D02*
G37*
G36*
X-5525Y1110D02*
X-5651D01*
X-5771Y1078D01*
X-5880Y1015D01*
X-5968Y927D01*
X-6031Y818D01*
X-6063Y698D01*
Y572D01*
X-6031Y452D01*
X-5968Y343D01*
X-5880Y255D01*
X-5771Y192D01*
X-5651Y160D01*
X-5557D01*
X-5484Y104D01*
X-5428Y31D01*
Y-31D01*
X-5484Y-104D01*
X-5557Y-160D01*
X-5651D01*
X-5771Y-192D01*
X-5880Y-255D01*
X-5968Y-343D01*
X-6031Y-452D01*
X-6063Y-572D01*
Y-698D01*
X-6031Y-818D01*
X-5968Y-927D01*
X-5880Y-1015D01*
X-5771Y-1078D01*
X-5651Y-1110D01*
X-5525D01*
X-5405Y-1078D01*
X-5296Y-1015D01*
X-5208Y-927D01*
X-5145Y-818D01*
X-5113Y-698D01*
Y-604D01*
X-5057Y-531D01*
X-4984Y-475D01*
X-4890D01*
X-4770Y-443D01*
X-4661Y-380D01*
X-4573Y-292D01*
X-4510Y-183D01*
X-4478Y-63D01*
Y63D01*
X-4510Y183D01*
X-4573Y292D01*
X-4661Y380D01*
X-4770Y443D01*
X-4890Y475D01*
X-4984D01*
X-5057Y531D01*
X-5113Y604D01*
Y698D01*
X-5145Y818D01*
X-5208Y927D01*
X-5296Y1015D01*
X-5405Y1078D01*
X-5525Y1110D01*
D02*
G37*
G36*
X-699Y-414D02*
X-825D01*
X-945Y-446D01*
X-1054Y-509D01*
X-1142Y-597D01*
X-1205Y-706D01*
X-1237Y-826D01*
Y-952D01*
X-1205Y-1072D01*
X-1142Y-1181D01*
X-1054Y-1269D01*
X-945Y-1332D01*
X-825Y-1364D01*
X-699D01*
X-579Y-1332D01*
X-470Y-1269D01*
X-382Y-1181D01*
X-319Y-1072D01*
X-287Y-952D01*
Y-826D01*
X-319Y-706D01*
X-382Y-597D01*
X-470Y-509D01*
X-579Y-446D01*
X-699Y-414D01*
D02*
G37*
G36*
X-4001Y-668D02*
X-4127D01*
X-4247Y-700D01*
X-4356Y-763D01*
X-4444Y-851D01*
X-4507Y-960D01*
X-4539Y-1080D01*
Y-1206D01*
X-4507Y-1326D01*
X-4444Y-1435D01*
X-4356Y-1523D01*
X-4247Y-1586D01*
X-4127Y-1618D01*
X-4001D01*
X-3881Y-1586D01*
X-3772Y-1523D01*
X-3684Y-1435D01*
X-3621Y-1326D01*
X-3589Y-1206D01*
Y-1080D01*
X-3621Y-960D01*
X-3684Y-851D01*
X-3772Y-763D01*
X-3881Y-700D01*
X-4001Y-668D01*
D02*
G37*
G36*
X7302Y-2446D02*
X7176D01*
X7056Y-2478D01*
X6947Y-2541D01*
X6859Y-2629D01*
X6796Y-2738D01*
X6764Y-2858D01*
Y-2984D01*
X6796Y-3104D01*
X6859Y-3213D01*
X6947Y-3301D01*
X7056Y-3364D01*
X7176Y-3396D01*
X7302D01*
X7422Y-3364D01*
X7531Y-3301D01*
X7619Y-3213D01*
X7682Y-3104D01*
X7714Y-2984D01*
Y-2858D01*
X7682Y-2738D01*
X7619Y-2629D01*
X7531Y-2541D01*
X7422Y-2478D01*
X7302Y-2446D01*
D02*
G37*
G36*
X-4382Y-2700D02*
X-4508D01*
X-4628Y-2732D01*
X-4737Y-2795D01*
X-4825Y-2883D01*
X-4888Y-2992D01*
X-4920Y-3112D01*
Y-3238D01*
X-4888Y-3358D01*
X-4825Y-3467D01*
X-4737Y-3555D01*
X-4628Y-3618D01*
X-4508Y-3650D01*
X-4382D01*
X-4262Y-3618D01*
X-4153Y-3555D01*
X-4065Y-3467D01*
X-4002Y-3358D01*
X-3970Y-3238D01*
Y-3112D01*
X-4002Y-2992D01*
X-4065Y-2883D01*
X-4153Y-2795D01*
X-4262Y-2732D01*
X-4382Y-2700D01*
D02*
G37*
G36*
X7302Y-3639D02*
X7176D01*
X7056Y-3671D01*
X6947Y-3734D01*
X6859Y-3822D01*
X6796Y-3931D01*
X6780Y-3991D01*
X6704Y-4032D01*
X6643Y-4050D01*
X6615Y-4049D01*
X6533Y-4002D01*
X6413Y-3970D01*
X6287D01*
X6167Y-4002D01*
X6058Y-4065D01*
X5970Y-4153D01*
X5907Y-4262D01*
X5875Y-4382D01*
Y-4508D01*
X5907Y-4628D01*
X5970Y-4737D01*
X6058Y-4825D01*
X6167Y-4888D01*
X6287Y-4920D01*
X6413D01*
X6533Y-4888D01*
X6642Y-4825D01*
X6730Y-4737D01*
X6793Y-4628D01*
X6809Y-4568D01*
X6885Y-4527D01*
X6946Y-4509D01*
X6974Y-4510D01*
X7056Y-4557D01*
X7176Y-4589D01*
X7302D01*
X7422Y-4557D01*
X7531Y-4494D01*
X7619Y-4406D01*
X7682Y-4297D01*
X7714Y-4177D01*
Y-4051D01*
X7682Y-3931D01*
X7619Y-3822D01*
X7531Y-3734D01*
X7422Y-3671D01*
X7302Y-3639D01*
D02*
G37*
G36*
X4441Y-4006D02*
X4315D01*
X4195Y-4038D01*
X4086Y-4101D01*
X3998Y-4189D01*
X3935Y-4298D01*
X3903Y-4418D01*
Y-4544D01*
X3935Y-4664D01*
X3998Y-4773D01*
X4086Y-4861D01*
X4195Y-4924D01*
X4315Y-4956D01*
X4441D01*
X4561Y-4924D01*
X4670Y-4861D01*
X4758Y-4773D01*
X4821Y-4664D01*
X4853Y-4544D01*
Y-4418D01*
X4821Y-4298D01*
X4758Y-4189D01*
X4670Y-4101D01*
X4561Y-4038D01*
X4441Y-4006D01*
D02*
G37*
G36*
X763Y-4224D02*
X637D01*
X517Y-4256D01*
X408Y-4319D01*
X320Y-4407D01*
X257Y-4516D01*
X225Y-4636D01*
Y-4762D01*
X257Y-4882D01*
X320Y-4991D01*
X408Y-5079D01*
X517Y-5142D01*
X637Y-5174D01*
X763D01*
X883Y-5142D01*
X992Y-5079D01*
X1080Y-4991D01*
X1143Y-4882D01*
X1175Y-4762D01*
Y-4636D01*
X1143Y-4516D01*
X1080Y-4407D01*
X992Y-4319D01*
X883Y-4256D01*
X763Y-4224D01*
D02*
G37*
G36*
X-2937Y-5383D02*
X-3063D01*
X-3183Y-5415D01*
X-3292Y-5478D01*
X-3380Y-5566D01*
X-3443Y-5675D01*
X-3475Y-5795D01*
Y-5921D01*
X-3443Y-6041D01*
X-3380Y-6150D01*
X-3292Y-6238D01*
X-3183Y-6301D01*
X-3063Y-6333D01*
X-2937D01*
X-2817Y-6301D01*
X-2708Y-6238D01*
X-2620Y-6150D01*
X-2557Y-6041D01*
X-2525Y-5921D01*
Y-5795D01*
X-2557Y-5675D01*
X-2620Y-5566D01*
X-2708Y-5478D01*
X-2817Y-5415D01*
X-2937Y-5383D01*
D02*
G37*
G36*
X3063Y-5383D02*
X2937D01*
X2817Y-5415D01*
X2708Y-5478D01*
X2620Y-5566D01*
X2557Y-5675D01*
X2525Y-5795D01*
Y-5921D01*
X2557Y-6041D01*
X2620Y-6150D01*
X2708Y-6238D01*
X2817Y-6301D01*
X2937Y-6333D01*
X3063D01*
X3183Y-6301D01*
X3292Y-6238D01*
X3380Y-6150D01*
X3443Y-6041D01*
X3475Y-5921D01*
Y-5795D01*
X3443Y-5675D01*
X3380Y-5566D01*
X3292Y-5478D01*
X3183Y-5415D01*
X3063Y-5383D01*
D02*
G37*
G36*
X8038Y-6510D02*
X7912D01*
X7792Y-6542D01*
X7683Y-6605D01*
X7595Y-6693D01*
X7532Y-6802D01*
X7500Y-6922D01*
Y-7048D01*
X7532Y-7168D01*
X7595Y-7277D01*
X7683Y-7365D01*
X7792Y-7428D01*
X7912Y-7460D01*
X8038D01*
X8158Y-7428D01*
X8267Y-7365D01*
X8355Y-7277D01*
X8418Y-7168D01*
X8450Y-7048D01*
Y-6922D01*
X8418Y-6802D01*
X8355Y-6693D01*
X8267Y-6605D01*
X8158Y-6542D01*
X8038Y-6510D01*
D02*
G37*
G36*
X4635Y-8050D02*
X4509D01*
X4389Y-8082D01*
X4280Y-8145D01*
X4192Y-8233D01*
X4129Y-8342D01*
X4097Y-8462D01*
Y-8588D01*
X4129Y-8708D01*
X4192Y-8817D01*
X4280Y-8905D01*
X4389Y-8968D01*
X4509Y-9000D01*
X4635D01*
X4755Y-8968D01*
X4864Y-8905D01*
X4952Y-8817D01*
X5015Y-8708D01*
X5047Y-8588D01*
Y-8462D01*
X5015Y-8342D01*
X4952Y-8233D01*
X4864Y-8145D01*
X4755Y-8082D01*
X4635Y-8050D01*
D02*
G37*
G36*
X-1207Y-8062D02*
X-1333D01*
X-1453Y-8094D01*
X-1562Y-8157D01*
X-1650Y-8245D01*
X-1713Y-8354D01*
X-1745Y-8474D01*
Y-8600D01*
X-1713Y-8720D01*
X-1650Y-8829D01*
X-1562Y-8917D01*
X-1453Y-8980D01*
X-1333Y-9012D01*
X-1207D01*
X-1087Y-8980D01*
X-978Y-8917D01*
X-890Y-8829D01*
X-827Y-8720D01*
X-795Y-8600D01*
Y-8474D01*
X-827Y-8354D01*
X-890Y-8245D01*
X-978Y-8157D01*
X-1087Y-8094D01*
X-1207Y-8062D01*
D02*
G37*
G36*
X9588Y-9685D02*
X9462D01*
X9342Y-9717D01*
X9233Y-9780D01*
X9145Y-9868D01*
X9082Y-9977D01*
X9050Y-10097D01*
Y-10223D01*
X9082Y-10343D01*
X9145Y-10452D01*
X9233Y-10540D01*
X9342Y-10603D01*
X9462Y-10635D01*
X9588D01*
X9708Y-10603D01*
X9817Y-10540D01*
X9905Y-10452D01*
X9968Y-10343D01*
X10000Y-10223D01*
Y-10097D01*
X9968Y-9977D01*
X9905Y-9868D01*
X9817Y-9780D01*
X9708Y-9717D01*
X9588Y-9685D01*
D02*
G37*
G36*
X7048D02*
X6922D01*
X6802Y-9717D01*
X6693Y-9780D01*
X6605Y-9868D01*
X6542Y-9977D01*
X6510Y-10097D01*
Y-10223D01*
X6542Y-10343D01*
X6605Y-10452D01*
X6693Y-10540D01*
X6802Y-10603D01*
X6922Y-10635D01*
X7048D01*
X7168Y-10603D01*
X7277Y-10540D01*
X7365Y-10452D01*
X7428Y-10343D01*
X7460Y-10223D01*
Y-10097D01*
X7428Y-9977D01*
X7365Y-9868D01*
X7277Y-9780D01*
X7168Y-9717D01*
X7048Y-9685D01*
D02*
G37*
G36*
X5651D02*
X5525D01*
X5405Y-9717D01*
X5296Y-9780D01*
X5208Y-9868D01*
X5145Y-9977D01*
X5113Y-10097D01*
Y-10223D01*
X5145Y-10343D01*
X5208Y-10452D01*
X5296Y-10540D01*
X5405Y-10603D01*
X5525Y-10635D01*
X5651D01*
X5771Y-10603D01*
X5880Y-10540D01*
X5968Y-10452D01*
X6031Y-10343D01*
X6063Y-10223D01*
Y-10097D01*
X6031Y-9977D01*
X5968Y-9868D01*
X5880Y-9780D01*
X5771Y-9717D01*
X5651Y-9685D01*
D02*
G37*
G36*
X131Y-11000D02*
X-131D01*
X-391Y-11034D01*
X-644Y-11102D01*
X-886Y-11202D01*
X-1114Y-11333D01*
X-1322Y-11493D01*
X-1507Y-11678D01*
X-1667Y-11886D01*
X-1798Y-12114D01*
X-1898Y-12356D01*
X-1966Y-12609D01*
X-2000Y-12869D01*
Y-13131D01*
X-1966Y-13391D01*
X-1898Y-13644D01*
X-1798Y-13886D01*
X-1667Y-14114D01*
X-1507Y-14322D01*
X-1322Y-14507D01*
X-1114Y-14667D01*
X-886Y-14798D01*
X-644Y-14898D01*
X-391Y-14966D01*
X-131Y-15000D01*
X131D01*
X391Y-14966D01*
X644Y-14898D01*
X886Y-14798D01*
X1114Y-14667D01*
X1322Y-14507D01*
X1507Y-14322D01*
X1667Y-14114D01*
X1798Y-13886D01*
X1898Y-13644D01*
X1966Y-13391D01*
X2000Y-13131D01*
Y-12869D01*
X1966Y-12609D01*
X1898Y-12356D01*
X1798Y-12114D01*
X1667Y-11886D01*
X1507Y-11678D01*
X1322Y-11493D01*
X1114Y-11333D01*
X886Y-11202D01*
X644Y-11102D01*
X391Y-11034D01*
X131Y-11000D01*
D02*
G37*
%LPD*%
D55*
X-10804Y-9008D02*
D03*
D59*
X12573Y-1250D02*
D03*
Y-250D02*
D03*
X5588Y-7112D02*
D03*
X6985D02*
D03*
X6604Y635D02*
D03*
X-8763Y-6477D02*
D03*
Y-5461D02*
D03*
Y-4445D02*
D03*
X-4320Y4445D02*
D03*
X-700Y-4699D02*
D03*
X-6604Y-1905D02*
D03*
X-9906Y5715D02*
D03*
X-9017D02*
D03*
X-10392Y2100D02*
D03*
Y-2100D02*
D03*
X-8714Y-2287D02*
D03*
M02*
