G04*
G04 #@! TF.GenerationSoftware,Altium Limited,Altium Designer,25.1.2 (22)*
G04*
G04 Layer_Color=8388736*
%FSLAX43Y43*%
%MOMM*%
G71*
G04*
G04 #@! TF.SameCoordinates,66C82C06-DC23-4D2E-A039-6B46B43C7AA7*
G04*
G04*
G04 #@! TF.FilePolarity,Negative*
G04*
G01*
G75*
%ADD28C,0.900*%
G04:AMPARAMS|DCode=29|XSize=1.6mm|YSize=1.1mm|CornerRadius=0.15mm|HoleSize=0mm|Usage=FLASHONLY|Rotation=90.000|XOffset=0mm|YOffset=0mm|HoleType=Round|Shape=RoundedRectangle|*
%AMROUNDEDRECTD29*
21,1,1.600,0.800,0,0,90.0*
21,1,1.300,1.100,0,0,90.0*
1,1,0.300,0.400,0.650*
1,1,0.300,0.400,-0.650*
1,1,0.300,-0.400,-0.650*
1,1,0.300,-0.400,0.650*
%
%ADD29ROUNDEDRECTD29*%
G04:AMPARAMS|DCode=30|XSize=0.65mm|YSize=1.55mm|CornerRadius=0.105mm|HoleSize=0mm|Usage=FLASHONLY|Rotation=270.000|XOffset=0mm|YOffset=0mm|HoleType=Round|Shape=RoundedRectangle|*
%AMROUNDEDRECTD30*
21,1,0.650,1.340,0,0,270.0*
21,1,0.440,1.550,0,0,270.0*
1,1,0.210,-0.670,-0.220*
1,1,0.210,-0.670,0.220*
1,1,0.210,0.670,0.220*
1,1,0.210,0.670,-0.220*
%
%ADD30ROUNDEDRECTD30*%
G04:AMPARAMS|DCode=31|XSize=0.65mm|YSize=1.55mm|CornerRadius=0.105mm|HoleSize=0mm|Usage=FLASHONLY|Rotation=180.000|XOffset=0mm|YOffset=0mm|HoleType=Round|Shape=RoundedRectangle|*
%AMROUNDEDRECTD31*
21,1,0.650,1.340,0,0,180.0*
21,1,0.440,1.550,0,0,180.0*
1,1,0.210,-0.220,0.670*
1,1,0.210,0.220,0.670*
1,1,0.210,0.220,-0.670*
1,1,0.210,-0.220,-0.670*
%
%ADD31ROUNDEDRECTD31*%
G04:AMPARAMS|DCode=32|XSize=0.8mm|YSize=1mm|CornerRadius=0.12mm|HoleSize=0mm|Usage=FLASHONLY|Rotation=180.000|XOffset=0mm|YOffset=0mm|HoleType=Round|Shape=RoundedRectangle|*
%AMROUNDEDRECTD32*
21,1,0.800,0.760,0,0,180.0*
21,1,0.560,1.000,0,0,180.0*
1,1,0.240,-0.280,0.380*
1,1,0.240,0.280,0.380*
1,1,0.240,0.280,-0.380*
1,1,0.240,-0.280,-0.380*
%
%ADD32ROUNDEDRECTD32*%
G04:AMPARAMS|DCode=33|XSize=0.4mm|YSize=0.8mm|CornerRadius=0.08mm|HoleSize=0mm|Usage=FLASHONLY|Rotation=180.000|XOffset=0mm|YOffset=0mm|HoleType=Round|Shape=RoundedRectangle|*
%AMROUNDEDRECTD33*
21,1,0.400,0.640,0,0,180.0*
21,1,0.240,0.800,0,0,180.0*
1,1,0.160,-0.120,0.320*
1,1,0.160,0.120,0.320*
1,1,0.160,0.120,-0.320*
1,1,0.160,-0.120,-0.320*
%
%ADD33ROUNDEDRECTD33*%
G04:AMPARAMS|DCode=34|XSize=1.3mm|YSize=1mm|CornerRadius=0.22mm|HoleSize=0mm|Usage=FLASHONLY|Rotation=180.000|XOffset=0mm|YOffset=0mm|HoleType=Round|Shape=RoundedRectangle|*
%AMROUNDEDRECTD34*
21,1,1.300,0.560,0,0,180.0*
21,1,0.860,1.000,0,0,180.0*
1,1,0.440,-0.430,0.280*
1,1,0.440,0.430,0.280*
1,1,0.440,0.430,-0.280*
1,1,0.440,-0.430,-0.280*
%
%ADD34ROUNDEDRECTD34*%
G04:AMPARAMS|DCode=35|XSize=2.1mm|YSize=3.1mm|CornerRadius=0.25mm|HoleSize=0mm|Usage=FLASHONLY|Rotation=90.000|XOffset=0mm|YOffset=0mm|HoleType=Round|Shape=RoundedRectangle|*
%AMROUNDEDRECTD35*
21,1,2.100,2.600,0,0,90.0*
21,1,1.600,3.100,0,0,90.0*
1,1,0.500,1.300,0.800*
1,1,0.500,1.300,-0.800*
1,1,0.500,-1.300,-0.800*
1,1,0.500,-1.300,0.800*
%
%ADD35ROUNDEDRECTD35*%
G04:AMPARAMS|DCode=36|XSize=0.3mm|YSize=0.8mm|CornerRadius=0.07mm|HoleSize=0mm|Usage=FLASHONLY|Rotation=0.000|XOffset=0mm|YOffset=0mm|HoleType=Round|Shape=RoundedRectangle|*
%AMROUNDEDRECTD36*
21,1,0.300,0.660,0,0,0.0*
21,1,0.160,0.800,0,0,0.0*
1,1,0.140,0.080,-0.330*
1,1,0.140,-0.080,-0.330*
1,1,0.140,-0.080,0.330*
1,1,0.140,0.080,0.330*
%
%ADD36ROUNDEDRECTD36*%
G04:AMPARAMS|DCode=37|XSize=0.3mm|YSize=0.8mm|CornerRadius=0.07mm|HoleSize=0mm|Usage=FLASHONLY|Rotation=270.000|XOffset=0mm|YOffset=0mm|HoleType=Round|Shape=RoundedRectangle|*
%AMROUNDEDRECTD37*
21,1,0.300,0.660,0,0,270.0*
21,1,0.160,0.800,0,0,270.0*
1,1,0.140,-0.330,-0.080*
1,1,0.140,-0.330,0.080*
1,1,0.140,0.330,0.080*
1,1,0.140,0.330,-0.080*
%
%ADD37ROUNDEDRECTD37*%
%ADD38R,2.800X1.800*%
G04:AMPARAMS|DCode=39|XSize=1.27mm|YSize=2.8mm|CornerRadius=0.167mm|HoleSize=0mm|Usage=FLASHONLY|Rotation=0.000|XOffset=0mm|YOffset=0mm|HoleType=Round|Shape=RoundedRectangle|*
%AMROUNDEDRECTD39*
21,1,1.270,2.466,0,0,0.0*
21,1,0.936,2.800,0,0,0.0*
1,1,0.334,0.468,-1.233*
1,1,0.334,-0.468,-1.233*
1,1,0.334,-0.468,1.233*
1,1,0.334,0.468,1.233*
%
%ADD39ROUNDEDRECTD39*%
G04:AMPARAMS|DCode=40|XSize=0.85mm|YSize=1.06mm|CornerRadius=0.125mm|HoleSize=0mm|Usage=FLASHONLY|Rotation=0.000|XOffset=0mm|YOffset=0mm|HoleType=Round|Shape=RoundedRectangle|*
%AMROUNDEDRECTD40*
21,1,0.850,0.810,0,0,0.0*
21,1,0.600,1.060,0,0,0.0*
1,1,0.250,0.300,-0.405*
1,1,0.250,-0.300,-0.405*
1,1,0.250,-0.300,0.405*
1,1,0.250,0.300,0.405*
%
%ADD40ROUNDEDRECTD40*%
G04:AMPARAMS|DCode=41|XSize=1.05mm|YSize=1.55mm|CornerRadius=0.145mm|HoleSize=0mm|Usage=FLASHONLY|Rotation=0.000|XOffset=0mm|YOffset=0mm|HoleType=Round|Shape=RoundedRectangle|*
%AMROUNDEDRECTD41*
21,1,1.050,1.260,0,0,0.0*
21,1,0.760,1.550,0,0,0.0*
1,1,0.290,0.380,-0.630*
1,1,0.290,-0.380,-0.630*
1,1,0.290,-0.380,0.630*
1,1,0.290,0.380,0.630*
%
%ADD41ROUNDEDRECTD41*%
G04:AMPARAMS|DCode=42|XSize=1mm|YSize=1.05mm|CornerRadius=0.14mm|HoleSize=0mm|Usage=FLASHONLY|Rotation=90.000|XOffset=0mm|YOffset=0mm|HoleType=Round|Shape=RoundedRectangle|*
%AMROUNDEDRECTD42*
21,1,1.000,0.770,0,0,90.0*
21,1,0.720,1.050,0,0,90.0*
1,1,0.280,0.385,0.360*
1,1,0.280,0.385,-0.360*
1,1,0.280,-0.385,-0.360*
1,1,0.280,-0.385,0.360*
%
%ADD42ROUNDEDRECTD42*%
%ADD43C,2.025*%
G04:AMPARAMS|DCode=44|XSize=2.025mm|YSize=2.025mm|CornerRadius=0.242mm|HoleSize=0mm|Usage=FLASHONLY|Rotation=45.000|XOffset=0mm|YOffset=0mm|HoleType=Round|Shape=RoundedRectangle|*
%AMROUNDEDRECTD44*
21,1,2.025,1.540,0,0,45.0*
21,1,1.540,2.025,0,0,45.0*
1,1,0.485,1.089,0.000*
1,1,0.485,0.000,-1.089*
1,1,0.485,-1.089,0.000*
1,1,0.485,0.000,1.089*
%
%ADD44ROUNDEDRECTD44*%
%ADD45C,3.100*%
G04:AMPARAMS|DCode=46|XSize=2.025mm|YSize=2.025mm|CornerRadius=0.242mm|HoleSize=0mm|Usage=FLASHONLY|Rotation=315.000|XOffset=0mm|YOffset=0mm|HoleType=Round|Shape=RoundedRectangle|*
%AMROUNDEDRECTD46*
21,1,2.025,1.540,0,0,315.0*
21,1,1.540,2.025,0,0,315.0*
1,1,0.485,0.000,-1.089*
1,1,0.485,-1.089,0.000*
1,1,0.485,0.000,1.089*
1,1,0.485,1.089,0.000*
%
%ADD46ROUNDEDRECTD46*%
%ADD47O,1.303X2.303*%
%ADD48O,1.200X2.700*%
G36*
X-6568Y5115D02*
X-8418D01*
Y6315D01*
X-6568D01*
Y5115D01*
D02*
G37*
D28*
X-5600Y-12600D02*
D03*
X-11430Y5207D02*
D03*
X9000Y-6800D02*
D03*
X-700Y-6400D02*
D03*
X-5000Y-1300D02*
D03*
X-3100Y500D02*
D03*
X-5400Y4200D02*
D03*
X-3700D02*
D03*
X-2000D02*
D03*
X-10804Y7207D02*
D03*
X-3100Y2200D02*
D03*
X14700Y200D02*
D03*
X-7378Y7476D02*
D03*
X7300Y-6700D02*
D03*
D29*
X0Y3950D02*
D03*
Y-3950D02*
D03*
D30*
X13225Y-2200D02*
D03*
Y-1400D02*
D03*
Y-600D02*
D03*
Y200D02*
D03*
Y1000D02*
D03*
Y1800D02*
D03*
Y2600D02*
D03*
Y3400D02*
D03*
X4775D02*
D03*
Y2600D02*
D03*
Y1800D02*
D03*
Y1000D02*
D03*
Y200D02*
D03*
Y-600D02*
D03*
Y-1400D02*
D03*
Y-2200D02*
D03*
D31*
X11800Y4825D02*
D03*
X11000D02*
D03*
X10200D02*
D03*
X9400D02*
D03*
X8600D02*
D03*
X7800D02*
D03*
X7000D02*
D03*
X6200D02*
D03*
Y-3625D02*
D03*
X7000D02*
D03*
X7800D02*
D03*
X8600D02*
D03*
X9400D02*
D03*
X10200D02*
D03*
X11000D02*
D03*
X11800D02*
D03*
D32*
X-5665Y-4699D02*
D03*
X-7035D02*
D03*
Y-5969D02*
D03*
X-5665D02*
D03*
X-3098Y-4699D02*
D03*
X-1728D02*
D03*
D33*
X3000Y7790D02*
D03*
X2500D02*
D03*
X2000D02*
D03*
X1500D02*
D03*
X1000D02*
D03*
X500Y7790D02*
D03*
X-500D02*
D03*
X-1000Y7790D02*
D03*
X-1500D02*
D03*
X-2000D02*
D03*
X-2500D02*
D03*
X-3000D02*
D03*
X-2250Y9140D02*
D03*
X-1750D02*
D03*
X-1250D02*
D03*
X-750D02*
D03*
X-250D02*
D03*
X250D02*
D03*
X750D02*
D03*
X1250D02*
D03*
X1750D02*
D03*
X2250D02*
D03*
D34*
X-3100D02*
D03*
X3100D02*
D03*
D35*
X-13405Y2500D02*
D03*
X-13905Y0D02*
D03*
X-13405Y-2500D02*
D03*
D36*
X-7455Y1450D02*
D03*
X-7855D02*
D03*
X-8255D02*
D03*
X-8655D02*
D03*
X-9055D02*
D03*
X-9455Y1450D02*
D03*
X-9855D02*
D03*
Y-1450D02*
D03*
X-9455D02*
D03*
X-9055Y-1450D02*
D03*
X-8655Y-1450D02*
D03*
X-8255Y-1450D02*
D03*
X-7855D02*
D03*
X-7455D02*
D03*
D37*
X-10605Y800D02*
D03*
Y400D02*
D03*
Y0D02*
D03*
Y-400D02*
D03*
Y-800D02*
D03*
X-6705Y-800D02*
D03*
X-6705Y-400D02*
D03*
X-6705Y0D02*
D03*
Y400D02*
D03*
Y800D02*
D03*
D38*
X-8655Y0D02*
D03*
D39*
X-12496Y-5461D02*
D03*
X-9856D02*
D03*
D40*
X-10225Y-3175D02*
D03*
X-8825D02*
D03*
D41*
X-5423D02*
D03*
X-7023D02*
D03*
D42*
X-2362Y5715D02*
D03*
X-5512D02*
D03*
D43*
X12094Y-6706D02*
D03*
X10298Y-8502D02*
D03*
X8502Y-10298D02*
D03*
X-9008Y-10804D02*
D03*
D44*
X6706Y-12094D02*
D03*
D45*
X9000Y10000D02*
D03*
X-9000D02*
D03*
X0Y-13000D02*
D03*
D46*
X-10804Y-9008D02*
D03*
D47*
X-4320Y8250D02*
D03*
X4320D02*
D03*
D48*
X-4320Y13610D02*
D03*
X4320D02*
D03*
M02*
