G04*
G04 #@! TF.GenerationSoftware,Altium Limited,Altium Designer,25.1.2 (22)*
G04*
G04 Layer_Physical_Order=3*
G04 Layer_Color=16440176*
%FSLAX43Y43*%
%MOMM*%
G71*
G04*
G04 #@! TF.SameCoordinates,66C82C06-DC23-4D2E-A039-6B46B43C7AA7*
G04*
G04*
G04 #@! TF.FilePolarity,Positive*
G04*
G01*
G75*
G04:AMPARAMS|DCode=55|XSize=1.925mm|YSize=1.925mm|CornerRadius=0.193mm|HoleSize=0mm|Usage=FLASHONLY|Rotation=45.000|XOffset=0mm|YOffset=0mm|HoleType=Round|Shape=RoundedRectangle|*
%AMROUNDEDRECTD55*
21,1,1.925,1.540,0,0,45.0*
21,1,1.540,1.925,0,0,45.0*
1,1,0.385,1.089,0.000*
1,1,0.385,0.000,-1.089*
1,1,0.385,-1.089,0.000*
1,1,0.385,0.000,1.089*
%
%ADD55ROUNDEDRECTD55*%
G04:AMPARAMS|DCode=56|XSize=1.925mm|YSize=1.925mm|CornerRadius=0.193mm|HoleSize=0mm|Usage=FLASHONLY|Rotation=315.000|XOffset=0mm|YOffset=0mm|HoleType=Round|Shape=RoundedRectangle|*
%AMROUNDEDRECTD56*
21,1,1.925,1.540,0,0,315.0*
21,1,1.540,1.925,0,0,315.0*
1,1,0.385,0.000,-1.089*
1,1,0.385,-1.089,0.000*
1,1,0.385,0.000,1.089*
1,1,0.385,1.089,0.000*
%
%ADD56ROUNDEDRECTD56*%
%ADD59C,0.550*%
G36*
X-10782Y10914D02*
X-10798Y10886D01*
X-10898Y10644D01*
X-10966Y10391D01*
X-11000Y10131D01*
Y9869D01*
X-10966Y9609D01*
X-10898Y9356D01*
X-10798Y9114D01*
X-10667Y8886D01*
X-10507Y8678D01*
X-10322Y8493D01*
X-10114Y8333D01*
X-9886Y8202D01*
X-9644Y8102D01*
X-9391Y8034D01*
X-9131Y8000D01*
X-8869D01*
X-8609Y8034D01*
X-8356Y8102D01*
X-8114Y8202D01*
X-7974Y8283D01*
X-7824Y8196D01*
Y3491D01*
X-7974Y3419D01*
X-8057Y3483D01*
X-8120Y3592D01*
X-8208Y3680D01*
X-8249Y3704D01*
X-8321Y3778D01*
X-8334Y3903D01*
X-8325Y3937D01*
Y4063D01*
X-8357Y4183D01*
X-8420Y4292D01*
X-8508Y4380D01*
X-8617Y4443D01*
X-8737Y4475D01*
X-8841D01*
X-8878Y4492D01*
X-8980Y4599D01*
Y4663D01*
X-9012Y4783D01*
X-9075Y4892D01*
X-9163Y4980D01*
X-9272Y5043D01*
X-9392Y5075D01*
X-9518D01*
X-9638Y5043D01*
X-9747Y4980D01*
X-9835Y4892D01*
X-9898Y4783D01*
X-9930Y4663D01*
Y4537D01*
X-9898Y4417D01*
X-9835Y4308D01*
X-9747Y4220D01*
X-9638Y4157D01*
X-9518Y4125D01*
X-9414D01*
X-9377Y4108D01*
X-9275Y4001D01*
Y3937D01*
X-9243Y3817D01*
X-9180Y3708D01*
X-9092Y3620D01*
X-9051Y3596D01*
X-8979Y3522D01*
X-8966Y3397D01*
X-8975Y3363D01*
Y3237D01*
X-8943Y3117D01*
X-8880Y3008D01*
X-8792Y2920D01*
X-8683Y2857D01*
X-8563Y2825D01*
X-8437D01*
X-8298Y2717D01*
X-8235Y2608D01*
X-8147Y2520D01*
X-8038Y2457D01*
X-7918Y2425D01*
X-7824D01*
Y-5494D01*
X-7937D01*
X-8057Y-5526D01*
X-8166Y-5589D01*
X-8254Y-5677D01*
X-8317Y-5786D01*
X-8349Y-5906D01*
Y-6032D01*
X-8317Y-6152D01*
X-8254Y-6261D01*
X-8166Y-6349D01*
X-8057Y-6412D01*
X-7937Y-6444D01*
X-7824D01*
Y-10237D01*
X-7974Y-10273D01*
X-8014Y-10195D01*
X-8121Y-10047D01*
X-8251Y-9917D01*
X-8399Y-9810D01*
X-8562Y-9727D01*
X-8736Y-9670D01*
X-8916Y-9642D01*
X-9099D01*
X-9280Y-9670D01*
X-9454Y-9727D01*
X-9617Y-9810D01*
X-9765Y-9917D01*
X-9895Y-10047D01*
X-10002Y-10195D01*
X-10085Y-10358D01*
X-10142Y-10532D01*
X-10170Y-10713D01*
Y-10896D01*
X-10142Y-11076D01*
X-10085Y-11250D01*
X-10002Y-11413D01*
X-9895Y-11561D01*
X-9765Y-11691D01*
X-9617Y-11798D01*
X-9454Y-11881D01*
X-9280Y-11938D01*
X-9099Y-11967D01*
X-8916D01*
X-8736Y-11938D01*
X-8562Y-11881D01*
X-8399Y-11798D01*
X-8251Y-11691D01*
X-8121Y-11561D01*
X-8014Y-11413D01*
X-7974Y-11335D01*
X-7824Y-11371D01*
Y-13218D01*
X-7954Y-13293D01*
X-8344Y-13064D01*
X-9309Y-12395D01*
X-10221Y-11655D01*
X-11074Y-10847D01*
X-11863Y-9978D01*
X-12585Y-9051D01*
X-13234Y-8072D01*
X-13795Y-7069D01*
X-13768Y-7012D01*
X-13691Y-6942D01*
X-13652Y-6952D01*
X-13526D01*
X-13406Y-6920D01*
X-13297Y-6857D01*
X-13209Y-6769D01*
X-13146Y-6660D01*
X-13114Y-6540D01*
Y-6414D01*
X-13146Y-6294D01*
X-13209Y-6185D01*
X-13297Y-6097D01*
X-13377Y-6051D01*
X-13393Y-5969D01*
X-13377Y-5887D01*
X-13297Y-5841D01*
X-13209Y-5753D01*
X-13146Y-5644D01*
X-13114Y-5524D01*
Y-5398D01*
X-13146Y-5278D01*
X-13209Y-5169D01*
X-13297Y-5081D01*
X-13377Y-5035D01*
X-13393Y-4953D01*
X-13377Y-4871D01*
X-13297Y-4825D01*
X-13209Y-4737D01*
X-13146Y-4628D01*
X-13114Y-4508D01*
Y-4382D01*
X-13146Y-4262D01*
X-13209Y-4153D01*
X-13297Y-4065D01*
X-13406Y-4002D01*
X-13526Y-3970D01*
X-13652D01*
X-13772Y-4002D01*
X-13881Y-4065D01*
X-13969Y-4153D01*
X-14032Y-4262D01*
X-14064Y-4382D01*
Y-4508D01*
X-14032Y-4628D01*
X-13969Y-4737D01*
X-13881Y-4825D01*
X-13801Y-4871D01*
X-13785Y-4953D01*
X-13801Y-5035D01*
X-13881Y-5081D01*
X-13969Y-5169D01*
X-14032Y-5278D01*
X-14064Y-5398D01*
Y-5524D01*
X-14032Y-5644D01*
X-13969Y-5753D01*
X-13881Y-5841D01*
X-13801Y-5887D01*
X-13785Y-5969D01*
X-13801Y-6051D01*
X-13881Y-6097D01*
X-13969Y-6185D01*
X-14009Y-6254D01*
X-14133Y-6265D01*
X-14175Y-6253D01*
X-14301Y-5981D01*
X-14713Y-4882D01*
X-15040Y-3754D01*
X-15281Y-2604D01*
X-15434Y-1440D01*
X-15499Y-267D01*
X-15475Y907D01*
X-15362Y2076D01*
X-15160Y3233D01*
X-14872Y4372D01*
X-14498Y5485D01*
X-14041Y6567D01*
X-13504Y7612D01*
X-12889Y8612D01*
X-12200Y9563D01*
X-11441Y10459D01*
X-10902Y11006D01*
X-10782Y10914D01*
D02*
G37*
G36*
X3707Y14795D02*
X3693Y14779D01*
X3624Y14648D01*
X3581Y14507D01*
X3566Y14360D01*
Y12860D01*
X3581Y12713D01*
X3624Y12572D01*
X3693Y12441D01*
X3787Y12327D01*
X3901Y12233D01*
X4032Y12164D01*
X4173Y12121D01*
X4320Y12106D01*
X4467Y12121D01*
X4608Y12164D01*
X4739Y12233D01*
X4853Y12327D01*
X4947Y12441D01*
X5016Y12572D01*
X5059Y12713D01*
X5074Y12860D01*
Y14360D01*
X5062Y14481D01*
X5115Y14545D01*
X5189Y14595D01*
X5685Y14421D01*
X6760Y13950D01*
X7797Y13398D01*
X8789Y12769D01*
X9730Y12067D01*
X9823Y11986D01*
X9743Y11857D01*
X9644Y11898D01*
X9391Y11966D01*
X9131Y12000D01*
X8869D01*
X8609Y11966D01*
X8356Y11898D01*
X8114Y11798D01*
X7886Y11667D01*
X7678Y11507D01*
X7493Y11322D01*
X7333Y11114D01*
X7202Y10886D01*
X7102Y10644D01*
X7034Y10391D01*
X7000Y10131D01*
Y9869D01*
X7034Y9609D01*
X7102Y9356D01*
X7202Y9114D01*
X7333Y8886D01*
X7493Y8678D01*
X7678Y8493D01*
X7886Y8333D01*
X8114Y8202D01*
X8356Y8102D01*
X8609Y8034D01*
X8869Y8000D01*
X9131D01*
X9391Y8034D01*
X9644Y8102D01*
X9886Y8202D01*
X10114Y8333D01*
X10322Y8493D01*
X10507Y8678D01*
X10667Y8886D01*
X10798Y9114D01*
X10898Y9356D01*
X10966Y9609D01*
X11000Y9869D01*
Y10131D01*
X10966Y10391D01*
X10898Y10644D01*
X10798Y10886D01*
X10782Y10914D01*
X10902Y11006D01*
X11441Y10459D01*
X12200Y9563D01*
X12889Y8612D01*
X13504Y7612D01*
X14041Y6567D01*
X14498Y5485D01*
X14872Y4372D01*
X15160Y3233D01*
X15362Y2076D01*
X15475Y907D01*
X15499Y-267D01*
X15434Y-1440D01*
X15281Y-2604D01*
X15040Y-3754D01*
X14713Y-4882D01*
X14301Y-5981D01*
X13807Y-7047D01*
X13234Y-8072D01*
X12585Y-9051D01*
X11863Y-9978D01*
X11074Y-10847D01*
X10221Y-11655D01*
X9309Y-12395D01*
X8344Y-13064D01*
X7331Y-13658D01*
X6276Y-14174D01*
X5185Y-14609D01*
X4064Y-14959D01*
X2919Y-15224D01*
X1758Y-15401D01*
X587Y-15490D01*
X-587D01*
X-1758Y-15401D01*
X-2919Y-15224D01*
X-4064Y-14959D01*
X-5185Y-14609D01*
X-6276Y-14174D01*
X-7331Y-13658D01*
X-7620Y-13489D01*
Y-6371D01*
X-7582Y-6349D01*
X-7494Y-6261D01*
X-7431Y-6152D01*
X-7399Y-6032D01*
Y-5906D01*
X-7431Y-5786D01*
X-7494Y-5677D01*
X-7582Y-5589D01*
X-7620Y-5567D01*
Y2487D01*
X-7563Y2520D01*
X-7497Y2586D01*
X-7390Y2546D01*
X-7359Y2523D01*
X-7375Y2463D01*
Y2337D01*
X-7343Y2217D01*
X-7280Y2108D01*
X-7192Y2020D01*
X-7083Y1957D01*
X-6963Y1925D01*
X-6837D01*
X-6717Y1957D01*
X-6608Y2020D01*
X-6520Y2108D01*
X-6457Y2217D01*
X-6425Y2337D01*
Y2463D01*
X-6457Y2583D01*
X-6520Y2692D01*
X-6608Y2780D01*
X-6717Y2843D01*
X-6837Y2875D01*
X-6963D01*
X-7083Y2843D01*
X-7192Y2780D01*
X-7258Y2714D01*
X-7365Y2754D01*
X-7396Y2777D01*
X-7380Y2837D01*
Y2963D01*
X-7412Y3083D01*
X-7475Y3192D01*
X-7563Y3280D01*
X-7620Y3313D01*
Y8552D01*
X-7493Y8678D01*
X-7333Y8886D01*
X-7202Y9114D01*
X-7102Y9356D01*
X-7034Y9609D01*
X-7000Y9869D01*
Y10131D01*
X-7034Y10391D01*
X-7102Y10644D01*
X-7202Y10886D01*
X-7333Y11114D01*
X-7493Y11322D01*
X-7620Y11448D01*
Y13492D01*
X-6760Y13950D01*
X-5685Y14421D01*
X-5189Y14595D01*
X-5115Y14545D01*
X-5062Y14481D01*
X-5074Y14360D01*
Y12860D01*
X-5059Y12713D01*
X-5016Y12572D01*
X-4947Y12441D01*
X-4853Y12327D01*
X-4739Y12233D01*
X-4608Y12164D01*
X-4467Y12121D01*
X-4320Y12106D01*
X-4173Y12121D01*
X-4032Y12164D01*
X-3901Y12233D01*
X-3787Y12327D01*
X-3693Y12441D01*
X-3624Y12572D01*
X-3581Y12713D01*
X-3566Y12860D01*
Y14360D01*
X-3581Y14507D01*
X-3624Y14648D01*
X-3693Y14779D01*
X-3707Y14795D01*
X-3636Y14945D01*
X3636Y14945D01*
X3707Y14795D01*
D02*
G37*
%LPC*%
G36*
X-10741Y4975D02*
X-10867D01*
X-10987Y4943D01*
X-11096Y4880D01*
X-11184Y4792D01*
X-11247Y4683D01*
X-11279Y4563D01*
Y4437D01*
X-11247Y4317D01*
X-11184Y4208D01*
X-11096Y4120D01*
X-10987Y4057D01*
X-10867Y4025D01*
X-10741D01*
X-10621Y4057D01*
X-10512Y4120D01*
X-10424Y4208D01*
X-10361Y4317D01*
X-10329Y4437D01*
Y4563D01*
X-10361Y4683D01*
X-10424Y4792D01*
X-10512Y4880D01*
X-10621Y4943D01*
X-10741Y4975D01*
D02*
G37*
G36*
X-10859Y1999D02*
X-10985D01*
X-11105Y1967D01*
X-11214Y1904D01*
X-11302Y1816D01*
X-11365Y1707D01*
X-11397Y1587D01*
Y1461D01*
X-11365Y1341D01*
X-11302Y1232D01*
X-11214Y1144D01*
X-11105Y1081D01*
X-10985Y1049D01*
X-10859D01*
X-10739Y1081D01*
X-10630Y1144D01*
X-10542Y1232D01*
X-10479Y1341D01*
X-10447Y1461D01*
Y1587D01*
X-10479Y1707D01*
X-10542Y1816D01*
X-10630Y1904D01*
X-10739Y1967D01*
X-10859Y1999D01*
D02*
G37*
G36*
Y-1049D02*
X-10985D01*
X-11105Y-1081D01*
X-11214Y-1144D01*
X-11302Y-1232D01*
X-11365Y-1341D01*
X-11397Y-1461D01*
Y-1587D01*
X-11365Y-1707D01*
X-11302Y-1816D01*
X-11214Y-1904D01*
X-11105Y-1967D01*
X-10985Y-1999D01*
X-10859D01*
X-10739Y-1967D01*
X-10630Y-1904D01*
X-10542Y-1816D01*
X-10479Y-1707D01*
X-10447Y-1587D01*
Y-1461D01*
X-10479Y-1341D01*
X-10542Y-1232D01*
X-10630Y-1144D01*
X-10739Y-1081D01*
X-10859Y-1049D01*
D02*
G37*
G36*
X63Y13160D02*
X-63D01*
X-183Y13128D01*
X-292Y13065D01*
X-380Y12977D01*
X-443Y12868D01*
X-475Y12748D01*
Y12622D01*
X-443Y12502D01*
X-380Y12393D01*
X-292Y12305D01*
X-183Y12242D01*
X-63Y12210D01*
X63D01*
X183Y12242D01*
X292Y12305D01*
X380Y12393D01*
X443Y12502D01*
X475Y12622D01*
Y12748D01*
X443Y12868D01*
X380Y12977D01*
X292Y13065D01*
X183Y13128D01*
X63Y13160D01*
D02*
G37*
G36*
X-411Y10630D02*
X-536D01*
X-657Y10598D01*
X-766Y10536D01*
X-854Y10447D01*
X-917Y10339D01*
X-949Y10218D01*
Y10093D01*
X-917Y9972D01*
X-854Y9864D01*
X-766Y9775D01*
X-657Y9713D01*
X-536Y9680D01*
X-411D01*
X-291Y9713D01*
X-182Y9775D01*
X-63Y9836D01*
X11Y9769D01*
X31Y9750D01*
X139Y9687D01*
X260Y9655D01*
X385D01*
X506Y9687D01*
X614Y9750D01*
X702Y9838D01*
X765Y9947D01*
X797Y10067D01*
Y10193D01*
X765Y10313D01*
X702Y10422D01*
X614Y10510D01*
X506Y10573D01*
X385Y10605D01*
X260D01*
X139Y10573D01*
X31Y10510D01*
X-89Y10450D01*
X-163Y10516D01*
X-182Y10536D01*
X-291Y10598D01*
X-411Y10630D01*
D02*
G37*
G36*
X3163Y10475D02*
X3037D01*
X2917Y10443D01*
X2808Y10380D01*
X2720Y10292D01*
X2657Y10183D01*
X2625Y10063D01*
Y9937D01*
X2657Y9817D01*
X2720Y9708D01*
X2808Y9620D01*
X2917Y9557D01*
X3037Y9525D01*
X3163D01*
X3283Y9557D01*
X3392Y9620D01*
X3480Y9708D01*
X3543Y9817D01*
X3575Y9937D01*
Y10063D01*
X3543Y10183D01*
X3480Y10292D01*
X3392Y10380D01*
X3283Y10443D01*
X3163Y10475D01*
D02*
G37*
G36*
X-3037D02*
X-3163D01*
X-3283Y10443D01*
X-3392Y10380D01*
X-3480Y10292D01*
X-3543Y10183D01*
X-3575Y10063D01*
Y9937D01*
X-3543Y9817D01*
X-3480Y9708D01*
X-3392Y9620D01*
X-3283Y9557D01*
X-3163Y9525D01*
X-3037D01*
X-2917Y9557D01*
X-2808Y9620D01*
X-2720Y9708D01*
X-2657Y9817D01*
X-2625Y9937D01*
Y10063D01*
X-2657Y10183D01*
X-2720Y10292D01*
X-2808Y10380D01*
X-2917Y10443D01*
X-3037Y10475D01*
D02*
G37*
G36*
X-6037Y7951D02*
X-6162D01*
X-6282Y7919D01*
X-6391Y7856D01*
X-6479Y7768D01*
X-6542Y7659D01*
X-6574Y7539D01*
Y7413D01*
X-6542Y7293D01*
X-6479Y7184D01*
X-6391Y7096D01*
X-6282Y7033D01*
X-6162Y7001D01*
X-6037D01*
X-5916Y7033D01*
X-5807Y7096D01*
X-5719Y7184D01*
X-5657Y7293D01*
X-5624Y7413D01*
Y7539D01*
X-5657Y7659D01*
X-5719Y7768D01*
X-5807Y7856D01*
X-5916Y7919D01*
X-6037Y7951D01*
D02*
G37*
G36*
X4320Y9504D02*
X4173Y9489D01*
X4032Y9446D01*
X3901Y9377D01*
X3787Y9283D01*
X3693Y9169D01*
X3624Y9038D01*
X3581Y8897D01*
X3566Y8750D01*
Y7750D01*
X3581Y7603D01*
X3624Y7462D01*
X3693Y7331D01*
X3787Y7217D01*
X3901Y7123D01*
X4032Y7054D01*
X4173Y7011D01*
X4320Y6996D01*
X4467Y7011D01*
X4608Y7054D01*
X4739Y7123D01*
X4853Y7217D01*
X4947Y7331D01*
X5016Y7462D01*
X5059Y7603D01*
X5074Y7750D01*
Y8750D01*
X5059Y8897D01*
X5016Y9038D01*
X4947Y9169D01*
X4853Y9283D01*
X4739Y9377D01*
X4608Y9446D01*
X4467Y9489D01*
X4320Y9504D01*
D02*
G37*
G36*
X-4320D02*
X-4467Y9489D01*
X-4608Y9446D01*
X-4739Y9377D01*
X-4853Y9283D01*
X-4947Y9169D01*
X-5016Y9038D01*
X-5059Y8897D01*
X-5074Y8750D01*
Y7750D01*
X-5059Y7603D01*
X-5016Y7462D01*
X-4947Y7331D01*
X-4853Y7217D01*
X-4739Y7123D01*
X-4608Y7054D01*
X-4467Y7011D01*
X-4320Y6996D01*
X-4173Y7011D01*
X-4032Y7054D01*
X-3901Y7123D01*
X-3787Y7217D01*
X-3693Y7331D01*
X-3624Y7462D01*
X-3581Y7603D01*
X-3566Y7750D01*
Y8750D01*
X-3581Y8897D01*
X-3624Y9038D01*
X-3693Y9169D01*
X-3787Y9283D01*
X-3901Y9377D01*
X-4032Y9446D01*
X-4173Y9489D01*
X-4320Y9504D01*
D02*
G37*
G36*
X6763Y7375D02*
X6637D01*
X6517Y7343D01*
X6408Y7280D01*
X6320Y7192D01*
X6257Y7083D01*
X6225Y6963D01*
Y6837D01*
X6257Y6717D01*
X6320Y6608D01*
X6408Y6520D01*
X6517Y6457D01*
X6637Y6425D01*
X6763D01*
X6788Y6432D01*
X6832Y6410D01*
X6925Y6315D01*
Y6237D01*
X6957Y6117D01*
X7020Y6008D01*
X7108Y5920D01*
X7217Y5857D01*
X7337Y5825D01*
X7463D01*
X7583Y5857D01*
X7692Y5920D01*
X7780Y6008D01*
X7843Y6117D01*
X7875Y6237D01*
Y6363D01*
X7843Y6483D01*
X7780Y6592D01*
X7692Y6680D01*
X7583Y6743D01*
X7463Y6775D01*
X7337D01*
X7312Y6768D01*
X7268Y6790D01*
X7175Y6885D01*
Y6963D01*
X7143Y7083D01*
X7080Y7192D01*
X6992Y7280D01*
X6883Y7343D01*
X6763Y7375D01*
D02*
G37*
G36*
X5413Y5975D02*
X5287D01*
X5167Y5943D01*
X5058Y5880D01*
X4970Y5792D01*
X4907Y5683D01*
X4875Y5563D01*
Y5437D01*
X4907Y5317D01*
X4970Y5208D01*
X5058Y5120D01*
X5167Y5057D01*
X5287Y5025D01*
X5413D01*
X5533Y5057D01*
X5642Y5120D01*
X5730Y5208D01*
X5793Y5317D01*
X5825Y5437D01*
Y5563D01*
X5793Y5683D01*
X5730Y5792D01*
X5642Y5880D01*
X5533Y5943D01*
X5413Y5975D01*
D02*
G37*
G36*
X-3337Y5975D02*
X-3463D01*
X-3583Y5943D01*
X-3692Y5880D01*
X-3780Y5792D01*
X-3843Y5683D01*
X-3875Y5563D01*
Y5437D01*
X-3843Y5317D01*
X-3780Y5208D01*
X-3692Y5120D01*
X-3583Y5057D01*
X-3463Y5025D01*
X-3337D01*
X-3217Y5057D01*
X-3108Y5120D01*
X-3020Y5208D01*
X-2957Y5317D01*
X-2925Y5437D01*
Y5563D01*
X-2957Y5683D01*
X-3020Y5792D01*
X-3108Y5880D01*
X-3217Y5943D01*
X-3337Y5975D01*
D02*
G37*
G36*
X13813Y5475D02*
X13687D01*
X13567Y5443D01*
X13458Y5380D01*
X13370Y5292D01*
X13307Y5183D01*
X13275Y5063D01*
Y5040D01*
X13125Y5014D01*
X13080Y5092D01*
X12992Y5180D01*
X12883Y5243D01*
X12763Y5275D01*
X12637D01*
X12517Y5243D01*
X12408Y5180D01*
X12320Y5092D01*
X12257Y4983D01*
X12225Y4863D01*
Y4737D01*
X12257Y4617D01*
X12320Y4508D01*
X12408Y4420D01*
X12517Y4357D01*
X12637Y4325D01*
X12763D01*
X12883Y4357D01*
X12992Y4420D01*
X13080Y4508D01*
X13143Y4617D01*
X13175Y4737D01*
Y4760D01*
X13325Y4786D01*
X13370Y4708D01*
X13458Y4620D01*
X13567Y4557D01*
X13687Y4525D01*
X13813D01*
X13933Y4557D01*
X14042Y4620D01*
X14130Y4708D01*
X14193Y4817D01*
X14225Y4937D01*
Y5063D01*
X14193Y5183D01*
X14130Y5292D01*
X14042Y5380D01*
X13933Y5443D01*
X13813Y5475D01*
D02*
G37*
G36*
X237Y7371D02*
X112D01*
X-9Y7339D01*
X-117Y7276D01*
X-206Y7188D01*
X-268Y7080D01*
X-300Y6959D01*
Y6834D01*
X-268Y6713D01*
X-210Y6613D01*
X-221Y6575D01*
X-278Y6465D01*
X-339D01*
X-460Y6432D01*
X-568Y6370D01*
X-656Y6281D01*
X-719Y6173D01*
X-751Y6052D01*
Y5927D01*
X-719Y5806D01*
X-656Y5698D01*
X-568Y5609D01*
X-460Y5547D01*
X-339Y5515D01*
X-221D01*
Y5397D01*
X-189Y5276D01*
X-126Y5168D01*
X-38Y5079D01*
X71Y5017D01*
X191Y4984D01*
X317D01*
X437Y5017D01*
X546Y5079D01*
X634Y5168D01*
X697Y5276D01*
X729Y5397D01*
Y5522D01*
X697Y5643D01*
X634Y5751D01*
X546Y5839D01*
X437Y5902D01*
X317Y5934D01*
X199D01*
Y6052D01*
X166Y6173D01*
X109Y6273D01*
X119Y6311D01*
X176Y6421D01*
X237D01*
X358Y6454D01*
X466Y6516D01*
X555Y6605D01*
X617Y6713D01*
X650Y6834D01*
Y6959D01*
X617Y7080D01*
X555Y7188D01*
X466Y7276D01*
X358Y7339D01*
X237Y7371D01*
D02*
G37*
G36*
X1723Y7364D02*
X1598D01*
X1478Y7331D01*
X1369Y7269D01*
X1281Y7181D01*
X1218Y7072D01*
X1186Y6951D01*
Y6826D01*
X1218Y6706D01*
X1281Y6597D01*
X1355Y6523D01*
X1369Y6486D01*
X1366Y6338D01*
X1320Y6292D01*
X1257Y6183D01*
X1225Y6063D01*
Y5937D01*
X1257Y5817D01*
X1320Y5708D01*
X1408Y5620D01*
X1517Y5557D01*
X1534Y5397D01*
X1525Y5363D01*
Y5237D01*
X1557Y5117D01*
X1620Y5008D01*
X1708Y4920D01*
X1817Y4857D01*
X1924Y4829D01*
X1938Y4824D01*
X2028Y4675D01*
X2025Y4663D01*
Y4537D01*
X2057Y4417D01*
X2120Y4308D01*
X2208Y4220D01*
X2317Y4157D01*
X2437Y4125D01*
X2563D01*
X2683Y4157D01*
X2792Y4220D01*
X2880Y4308D01*
X2943Y4417D01*
X2975Y4537D01*
Y4663D01*
X2943Y4783D01*
X2880Y4892D01*
X2792Y4980D01*
X2683Y5043D01*
X2576Y5071D01*
X2562Y5076D01*
X2472Y5225D01*
X2475Y5237D01*
Y5363D01*
X2443Y5483D01*
X2380Y5592D01*
X2292Y5680D01*
X2183Y5743D01*
X2166Y5903D01*
X2175Y5937D01*
Y6063D01*
X2143Y6183D01*
X2080Y6292D01*
X2006Y6366D01*
X1992Y6402D01*
X1995Y6551D01*
X2041Y6597D01*
X2103Y6706D01*
X2136Y6826D01*
Y6951D01*
X2103Y7072D01*
X2041Y7181D01*
X1953Y7269D01*
X1844Y7331D01*
X1723Y7364D01*
D02*
G37*
G36*
X-1461Y2380D02*
X-1587D01*
X-1707Y2348D01*
X-1816Y2285D01*
X-1904Y2197D01*
X-1967Y2088D01*
X-1999Y1968D01*
Y1842D01*
X-1967Y1722D01*
X-1904Y1613D01*
X-1816Y1525D01*
X-1707Y1462D01*
X-1587Y1430D01*
X-1461D01*
X-1341Y1462D01*
X-1232Y1525D01*
X-1144Y1613D01*
X-1081Y1722D01*
X-1049Y1842D01*
Y1968D01*
X-1081Y2088D01*
X-1144Y2197D01*
X-1232Y2285D01*
X-1341Y2348D01*
X-1461Y2380D01*
D02*
G37*
G36*
X1263Y2375D02*
X1137D01*
X1017Y2343D01*
X908Y2280D01*
X820Y2192D01*
X757Y2083D01*
X725Y1963D01*
Y1837D01*
X757Y1717D01*
X820Y1608D01*
X908Y1520D01*
X1017Y1457D01*
X1137Y1425D01*
X1263D01*
X1383Y1457D01*
X1492Y1520D01*
X1580Y1608D01*
X1643Y1717D01*
X1675Y1837D01*
Y1963D01*
X1643Y2083D01*
X1580Y2192D01*
X1492Y2280D01*
X1383Y2343D01*
X1263Y2375D01*
D02*
G37*
G36*
X11864Y3875D02*
X11739D01*
X11618Y3843D01*
X11510Y3780D01*
X11421Y3692D01*
X11359Y3583D01*
X11326Y3463D01*
Y3337D01*
X11359Y3217D01*
X11421Y3108D01*
X11427Y3102D01*
X11496Y2999D01*
X11427Y2899D01*
X11420Y2892D01*
X11357Y2783D01*
X11325Y2663D01*
Y2537D01*
X11357Y2417D01*
X11420Y2308D01*
X11427Y2301D01*
X11496Y2201D01*
X11427Y2098D01*
X11421Y2092D01*
X11359Y1983D01*
X11326Y1863D01*
Y1737D01*
X11359Y1617D01*
X11421Y1508D01*
X11510Y1420D01*
X11618Y1357D01*
X11739Y1325D01*
X11864D01*
X11985Y1357D01*
X12093Y1420D01*
X12181Y1508D01*
X12244Y1617D01*
X12276Y1737D01*
Y1863D01*
X12244Y1983D01*
X12181Y2092D01*
X12174Y2099D01*
X12106Y2199D01*
X12174Y2302D01*
X12180Y2308D01*
X12243Y2417D01*
X12275Y2537D01*
Y2663D01*
X12243Y2783D01*
X12180Y2892D01*
X12174Y2898D01*
X12106Y3001D01*
X12174Y3101D01*
X12181Y3108D01*
X12244Y3217D01*
X12276Y3337D01*
Y3463D01*
X12244Y3583D01*
X12181Y3692D01*
X12093Y3780D01*
X11985Y3843D01*
X11864Y3875D01*
D02*
G37*
G36*
X11663Y1075D02*
X11537D01*
X11417Y1043D01*
X11308Y980D01*
X11220Y892D01*
X11157Y783D01*
X11139Y716D01*
X10982Y689D01*
X10980Y692D01*
X10892Y780D01*
X10783Y843D01*
X10663Y875D01*
X10537D01*
X10417Y843D01*
X10308Y780D01*
X10220Y692D01*
X10157Y583D01*
X10125Y463D01*
Y337D01*
X10157Y217D01*
X10220Y108D01*
X10308Y20D01*
X10417Y-43D01*
X10537Y-75D01*
X10663D01*
X10783Y-43D01*
X10892Y20D01*
X10980Y108D01*
X11043Y217D01*
X11061Y284D01*
X11218Y311D01*
X11220Y308D01*
X11308Y220D01*
X11417Y157D01*
X11537Y125D01*
X11663D01*
X11783Y157D01*
X11892Y220D01*
X11980Y308D01*
X12043Y417D01*
X12075Y537D01*
Y663D01*
X12043Y783D01*
X11980Y892D01*
X11892Y980D01*
X11783Y1043D01*
X11663Y1075D01*
D02*
G37*
G36*
X-5937Y2075D02*
X-6063D01*
X-6183Y2043D01*
X-6292Y1980D01*
X-6380Y1892D01*
X-6443Y1783D01*
X-6475Y1663D01*
Y1537D01*
X-6443Y1417D01*
X-6380Y1308D01*
X-6292Y1220D01*
X-6183Y1157D01*
X-6063Y1125D01*
X-5937D01*
X-5862Y990D01*
X-5843Y917D01*
X-5780Y808D01*
X-5692Y720D01*
X-5583Y657D01*
X-5539Y645D01*
X-5487Y509D01*
X-5486Y482D01*
X-5543Y383D01*
X-5575Y263D01*
Y137D01*
X-5543Y17D01*
X-5480Y-92D01*
X-5392Y-180D01*
X-5283Y-243D01*
X-5163Y-275D01*
X-5037D01*
X-4917Y-243D01*
X-4808Y-180D01*
X-4720Y-92D01*
X-4657Y17D01*
X-4625Y137D01*
Y263D01*
X-4657Y383D01*
X-4720Y492D01*
X-4808Y580D01*
X-4917Y643D01*
X-4961Y655D01*
X-5013Y791D01*
X-5014Y818D01*
X-4957Y917D01*
X-4925Y1037D01*
Y1163D01*
X-4957Y1283D01*
X-5020Y1392D01*
X-5108Y1480D01*
X-5217Y1543D01*
X-5337Y1575D01*
X-5463D01*
X-5538Y1710D01*
X-5557Y1783D01*
X-5620Y1892D01*
X-5708Y1980D01*
X-5817Y2043D01*
X-5937Y2075D01*
D02*
G37*
G36*
X7863Y-25D02*
X7737D01*
X7617Y-57D01*
X7508Y-120D01*
X7420Y-208D01*
X7357Y-317D01*
X7325Y-437D01*
Y-563D01*
X7357Y-683D01*
X7420Y-792D01*
X7508Y-880D01*
X7617Y-943D01*
X7737Y-975D01*
X7863D01*
X7983Y-943D01*
X8049Y-905D01*
X8158Y-1015D01*
X8157Y-1017D01*
X8125Y-1137D01*
Y-1263D01*
X8157Y-1383D01*
X8220Y-1492D01*
X8308Y-1580D01*
X8417Y-1643D01*
X8537Y-1675D01*
X8663D01*
X8783Y-1643D01*
X8892Y-1580D01*
X8980Y-1492D01*
X9043Y-1383D01*
X9075Y-1263D01*
Y-1137D01*
X9043Y-1017D01*
X8980Y-908D01*
X8892Y-820D01*
X8783Y-757D01*
X8663Y-725D01*
X8537D01*
X8417Y-757D01*
X8351Y-795D01*
X8241Y-685D01*
X8243Y-683D01*
X8275Y-563D01*
Y-437D01*
X8243Y-317D01*
X8180Y-208D01*
X8092Y-120D01*
X7983Y-57D01*
X7863Y-25D01*
D02*
G37*
G36*
X7163Y-1025D02*
X7037D01*
X6917Y-1057D01*
X6808Y-1120D01*
X6720Y-1208D01*
X6657Y-1317D01*
X6625Y-1437D01*
Y-1563D01*
X6657Y-1683D01*
X6720Y-1792D01*
X6808Y-1880D01*
X6917Y-1943D01*
X7037Y-1975D01*
X7163D01*
X7283Y-1943D01*
X7392Y-1880D01*
X7480Y-1792D01*
X7543Y-1683D01*
X7575Y-1563D01*
Y-1437D01*
X7543Y-1317D01*
X7480Y-1208D01*
X7392Y-1120D01*
X7283Y-1057D01*
X7163Y-1025D01*
D02*
G37*
G36*
X10663Y-1825D02*
X10537D01*
X10417Y-1857D01*
X10308Y-1920D01*
X10220Y-2008D01*
X10157Y-2117D01*
X10125Y-2237D01*
Y-2363D01*
X10157Y-2483D01*
X10220Y-2592D01*
X10308Y-2680D01*
X10417Y-2743D01*
X10537Y-2775D01*
X10663D01*
X10783Y-2743D01*
X10892Y-2680D01*
X10980Y-2592D01*
X11043Y-2483D01*
X11075Y-2363D01*
Y-2237D01*
X11043Y-2117D01*
X10980Y-2008D01*
X10892Y-1920D01*
X10783Y-1857D01*
X10663Y-1825D01*
D02*
G37*
G36*
X-4382Y-2700D02*
X-4508D01*
X-4628Y-2732D01*
X-4737Y-2795D01*
X-4825Y-2883D01*
X-4888Y-2992D01*
X-4920Y-3112D01*
Y-3238D01*
X-4888Y-3358D01*
X-4825Y-3467D01*
X-4737Y-3555D01*
X-4628Y-3618D01*
X-4508Y-3650D01*
X-4382D01*
X-4262Y-3618D01*
X-4153Y-3555D01*
X-4065Y-3467D01*
X-4002Y-3358D01*
X-3970Y-3238D01*
Y-3112D01*
X-4002Y-2992D01*
X-4065Y-2883D01*
X-4153Y-2795D01*
X-4262Y-2732D01*
X-4382Y-2700D01*
D02*
G37*
G36*
X2063Y-3025D02*
X1937D01*
X1817Y-3057D01*
X1708Y-3120D01*
X1620Y-3208D01*
X1557Y-3317D01*
X1525Y-3437D01*
Y-3563D01*
X1557Y-3683D01*
X1620Y-3792D01*
X1708Y-3880D01*
X1817Y-3943D01*
X1937Y-3975D01*
X2063D01*
X2183Y-3943D01*
X2292Y-3880D01*
X2380Y-3792D01*
X2443Y-3683D01*
X2475Y-3563D01*
Y-3437D01*
X2443Y-3317D01*
X2380Y-3208D01*
X2292Y-3120D01*
X2183Y-3057D01*
X2063Y-3025D01*
D02*
G37*
G36*
X5348Y-3145D02*
X5222D01*
X5102Y-3177D01*
X4993Y-3239D01*
X4905Y-3328D01*
X4842Y-3436D01*
X4810Y-3557D01*
Y-3682D01*
X4842Y-3803D01*
X4905Y-3911D01*
X4993Y-4000D01*
X5102Y-4062D01*
X5222Y-4095D01*
X5348D01*
X5468Y-4062D01*
X5577Y-4000D01*
X5665Y-3911D01*
X5728Y-3803D01*
X5760Y-3682D01*
Y-3557D01*
X5728Y-3436D01*
X5665Y-3328D01*
X5577Y-3239D01*
X5468Y-3177D01*
X5348Y-3145D01*
D02*
G37*
G36*
X12713Y-3825D02*
X12587D01*
X12467Y-3857D01*
X12358Y-3920D01*
X12270Y-4008D01*
X12207Y-4117D01*
X12175Y-4237D01*
Y-4363D01*
X12207Y-4483D01*
X12270Y-4592D01*
X12358Y-4680D01*
X12467Y-4743D01*
X12587Y-4775D01*
X12713D01*
X12833Y-4743D01*
X12942Y-4680D01*
X13030Y-4592D01*
X13093Y-4483D01*
X13125Y-4363D01*
Y-4237D01*
X13093Y-4117D01*
X13030Y-4008D01*
X12942Y-3920D01*
X12833Y-3857D01*
X12713Y-3825D01*
D02*
G37*
G36*
X-3837Y-4225D02*
X-3963D01*
X-4083Y-4257D01*
X-4192Y-4320D01*
X-4280Y-4408D01*
X-4343Y-4517D01*
X-4375Y-4637D01*
Y-4763D01*
X-4343Y-4883D01*
X-4280Y-4992D01*
X-4192Y-5080D01*
X-4083Y-5143D01*
X-3963Y-5175D01*
X-3837D01*
X-3717Y-5143D01*
X-3608Y-5080D01*
X-3520Y-4992D01*
X-3457Y-4883D01*
X-3425Y-4763D01*
Y-4637D01*
X-3457Y-4517D01*
X-3520Y-4408D01*
X-3608Y-4320D01*
X-3717Y-4257D01*
X-3837Y-4225D01*
D02*
G37*
G36*
X8663Y-4325D02*
X8537D01*
X8417Y-4357D01*
X8308Y-4420D01*
X8220Y-4508D01*
X8157Y-4617D01*
X8125Y-4737D01*
Y-4863D01*
X8157Y-4983D01*
X8220Y-5092D01*
X8308Y-5180D01*
X8417Y-5243D01*
X8537Y-5275D01*
X8663D01*
X8783Y-5243D01*
X8892Y-5180D01*
X8980Y-5092D01*
X9043Y-4983D01*
X9075Y-4863D01*
Y-4737D01*
X9043Y-4617D01*
X8980Y-4508D01*
X8892Y-4420D01*
X8783Y-4357D01*
X8663Y-4325D01*
D02*
G37*
G36*
X963Y-4625D02*
X837D01*
X717Y-4657D01*
X608Y-4720D01*
X520Y-4808D01*
X457Y-4917D01*
X425Y-5037D01*
Y-5163D01*
X457Y-5283D01*
X520Y-5392D01*
X608Y-5480D01*
X717Y-5543D01*
X837Y-5575D01*
X963D01*
X1083Y-5543D01*
X1192Y-5480D01*
X1280Y-5392D01*
X1343Y-5283D01*
X1375Y-5163D01*
Y-5037D01*
X1343Y-4917D01*
X1280Y-4808D01*
X1192Y-4720D01*
X1083Y-4657D01*
X963Y-4625D01*
D02*
G37*
G36*
X7063Y-4925D02*
X6937D01*
X6817Y-4957D01*
X6708Y-5020D01*
X6620Y-5108D01*
X6557Y-5217D01*
X6525Y-5337D01*
Y-5463D01*
X6557Y-5583D01*
X6620Y-5692D01*
X6708Y-5780D01*
X6817Y-5843D01*
X6937Y-5875D01*
X7063D01*
X7183Y-5843D01*
X7292Y-5780D01*
X7380Y-5692D01*
X7443Y-5583D01*
X7475Y-5463D01*
Y-5337D01*
X7443Y-5217D01*
X7380Y-5108D01*
X7292Y-5020D01*
X7183Y-4957D01*
X7063Y-4925D01*
D02*
G37*
G36*
X-2937Y-5383D02*
X-3063D01*
X-3183Y-5415D01*
X-3292Y-5478D01*
X-3380Y-5566D01*
X-3443Y-5675D01*
X-3475Y-5795D01*
Y-5921D01*
X-3443Y-6041D01*
X-3380Y-6150D01*
X-3292Y-6238D01*
X-3183Y-6301D01*
X-3063Y-6333D01*
X-2937D01*
X-2817Y-6301D01*
X-2708Y-6238D01*
X-2620Y-6150D01*
X-2557Y-6041D01*
X-2525Y-5921D01*
Y-5795D01*
X-2557Y-5675D01*
X-2620Y-5566D01*
X-2708Y-5478D01*
X-2817Y-5415D01*
X-2937Y-5383D01*
D02*
G37*
G36*
X3063Y-5383D02*
X2937D01*
X2817Y-5415D01*
X2708Y-5478D01*
X2620Y-5566D01*
X2557Y-5675D01*
X2525Y-5795D01*
Y-5921D01*
X2557Y-6041D01*
X2620Y-6150D01*
X2708Y-6238D01*
X2817Y-6301D01*
X2937Y-6333D01*
X3063D01*
X3183Y-6301D01*
X3292Y-6238D01*
X3380Y-6150D01*
X3443Y-6041D01*
X3475Y-5921D01*
Y-5795D01*
X3443Y-5675D01*
X3380Y-5566D01*
X3292Y-5478D01*
X3183Y-5415D01*
X3063Y-5383D01*
D02*
G37*
G36*
X-4890Y-5494D02*
X-5016D01*
X-5136Y-5526D01*
X-5245Y-5589D01*
X-5333Y-5677D01*
X-5396Y-5786D01*
X-5428Y-5906D01*
Y-6032D01*
X-5396Y-6152D01*
X-5333Y-6261D01*
X-5245Y-6349D01*
X-5136Y-6412D01*
X-5016Y-6444D01*
X-4890D01*
X-4770Y-6412D01*
X-4661Y-6349D01*
X-4573Y-6261D01*
X-4510Y-6152D01*
X-4478Y-6032D01*
Y-5906D01*
X-4510Y-5786D01*
X-4573Y-5677D01*
X-4661Y-5589D01*
X-4770Y-5526D01*
X-4890Y-5494D01*
D02*
G37*
G36*
X12186Y-5543D02*
X12003D01*
X11822Y-5572D01*
X11648Y-5629D01*
X11485Y-5712D01*
X11337Y-5819D01*
X11207Y-5949D01*
X11100Y-6097D01*
X11017Y-6260D01*
X10960Y-6434D01*
X10932Y-6614D01*
Y-6797D01*
X10960Y-6978D01*
X11017Y-7152D01*
X11100Y-7315D01*
X11207Y-7463D01*
X11337Y-7593D01*
X11485Y-7700D01*
X11648Y-7783D01*
X11822Y-7840D01*
X12003Y-7868D01*
X12186D01*
X12366Y-7840D01*
X12540Y-7783D01*
X12703Y-7700D01*
X12851Y-7593D01*
X12981Y-7463D01*
X13088Y-7315D01*
X13171Y-7152D01*
X13228Y-6978D01*
X13257Y-6797D01*
Y-6614D01*
X13228Y-6434D01*
X13171Y-6260D01*
X13088Y-6097D01*
X12981Y-5949D01*
X12851Y-5819D01*
X12703Y-5712D01*
X12540Y-5629D01*
X12366Y-5572D01*
X12186Y-5543D01*
D02*
G37*
G36*
X4635Y-8050D02*
X4509D01*
X4389Y-8082D01*
X4280Y-8145D01*
X4192Y-8233D01*
X4129Y-8342D01*
X4097Y-8462D01*
Y-8588D01*
X4129Y-8708D01*
X4192Y-8817D01*
X4280Y-8905D01*
X4389Y-8968D01*
X4509Y-9000D01*
X4635D01*
X4755Y-8968D01*
X4864Y-8905D01*
X4952Y-8817D01*
X5015Y-8708D01*
X5047Y-8588D01*
Y-8462D01*
X5015Y-8342D01*
X4952Y-8233D01*
X4864Y-8145D01*
X4755Y-8082D01*
X4635Y-8050D01*
D02*
G37*
G36*
X-1207Y-8062D02*
X-1333D01*
X-1453Y-8094D01*
X-1562Y-8157D01*
X-1650Y-8245D01*
X-1713Y-8354D01*
X-1745Y-8474D01*
Y-8600D01*
X-1713Y-8720D01*
X-1650Y-8829D01*
X-1562Y-8917D01*
X-1453Y-8980D01*
X-1333Y-9012D01*
X-1207D01*
X-1087Y-8980D01*
X-978Y-8917D01*
X-890Y-8829D01*
X-827Y-8720D01*
X-795Y-8600D01*
Y-8474D01*
X-827Y-8354D01*
X-890Y-8245D01*
X-978Y-8157D01*
X-1087Y-8094D01*
X-1207Y-8062D01*
D02*
G37*
G36*
X10390Y-7339D02*
X10207D01*
X10026Y-7368D01*
X9852Y-7425D01*
X9689Y-7508D01*
X9541Y-7615D01*
X9411Y-7745D01*
X9304Y-7893D01*
X9221Y-8056D01*
X9164Y-8230D01*
X9136Y-8410D01*
Y-8593D01*
X9164Y-8774D01*
X9221Y-8948D01*
X9304Y-9111D01*
X9411Y-9259D01*
X9541Y-9389D01*
X9689Y-9496D01*
X9852Y-9579D01*
X10026Y-9636D01*
X10207Y-9664D01*
X10390D01*
X10570Y-9636D01*
X10744Y-9579D01*
X10907Y-9496D01*
X11055Y-9389D01*
X11185Y-9259D01*
X11292Y-9111D01*
X11375Y-8948D01*
X11432Y-8774D01*
X11461Y-8593D01*
Y-8410D01*
X11432Y-8230D01*
X11375Y-8056D01*
X11292Y-7893D01*
X11185Y-7745D01*
X11055Y-7615D01*
X10907Y-7508D01*
X10744Y-7425D01*
X10570Y-7368D01*
X10390Y-7339D01*
D02*
G37*
G36*
X8593Y-9136D02*
X8410D01*
X8230Y-9164D01*
X8056Y-9221D01*
X7893Y-9304D01*
X7745Y-9411D01*
X7615Y-9541D01*
X7508Y-9689D01*
X7425Y-9852D01*
X7368Y-10026D01*
X7339Y-10207D01*
Y-10390D01*
X7368Y-10570D01*
X7425Y-10744D01*
X7508Y-10907D01*
X7615Y-11055D01*
X7745Y-11185D01*
X7893Y-11292D01*
X8056Y-11375D01*
X8230Y-11432D01*
X8410Y-11461D01*
X8593D01*
X8774Y-11432D01*
X8948Y-11375D01*
X9111Y-11292D01*
X9259Y-11185D01*
X9389Y-11055D01*
X9496Y-10907D01*
X9579Y-10744D01*
X9636Y-10570D01*
X9664Y-10390D01*
Y-10207D01*
X9636Y-10026D01*
X9579Y-9852D01*
X9496Y-9689D01*
X9389Y-9541D01*
X9259Y-9411D01*
X9111Y-9304D01*
X8948Y-9221D01*
X8774Y-9164D01*
X8593Y-9136D01*
D02*
G37*
G36*
X131Y-11000D02*
X-131D01*
X-391Y-11034D01*
X-644Y-11102D01*
X-886Y-11202D01*
X-1114Y-11333D01*
X-1322Y-11493D01*
X-1507Y-11678D01*
X-1667Y-11886D01*
X-1798Y-12114D01*
X-1898Y-12356D01*
X-1966Y-12609D01*
X-2000Y-12869D01*
Y-13131D01*
X-1966Y-13391D01*
X-1898Y-13644D01*
X-1798Y-13886D01*
X-1667Y-14114D01*
X-1507Y-14322D01*
X-1322Y-14507D01*
X-1114Y-14667D01*
X-886Y-14798D01*
X-644Y-14898D01*
X-391Y-14966D01*
X-131Y-15000D01*
X131D01*
X391Y-14966D01*
X644Y-14898D01*
X886Y-14798D01*
X1114Y-14667D01*
X1322Y-14507D01*
X1507Y-14322D01*
X1667Y-14114D01*
X1798Y-13886D01*
X1898Y-13644D01*
X1966Y-13391D01*
X2000Y-13131D01*
Y-12869D01*
X1966Y-12609D01*
X1898Y-12356D01*
X1798Y-12114D01*
X1667Y-11886D01*
X1507Y-11678D01*
X1322Y-11493D01*
X1114Y-11333D01*
X886Y-11202D01*
X644Y-11102D01*
X391Y-11034D01*
X131Y-11000D01*
D02*
G37*
%LPD*%
D55*
X6706Y-12094D02*
D03*
D56*
X-10804Y-9008D02*
D03*
D59*
X15050Y1200D02*
D03*
X8500Y6100D02*
D03*
X7300Y3500D02*
D03*
Y2000D02*
D03*
X0Y1800D02*
D03*
X-700Y-5100D02*
D03*
X-2000Y10000D02*
D03*
X13900Y-3050D02*
D03*
X4100Y4250D02*
D03*
X7100Y-2300D02*
D03*
X-8763Y-6477D02*
D03*
Y-5461D02*
D03*
Y-4445D02*
D03*
X-6604Y-1905D02*
D03*
X-9906Y5715D02*
D03*
X-9017D02*
D03*
X-10392Y2100D02*
D03*
Y-2100D02*
D03*
X-8714Y-2287D02*
D03*
M02*
