G04*
G04 #@! TF.GenerationSoftware,Altium Limited,Altium Designer,25.1.2 (22)*
G04*
G04 Layer_Color=12040119*
%FSLAX43Y43*%
%MOMM*%
G71*
G04*
G04 #@! TF.SameCoordinates,66C82C06-DC23-4D2E-A039-6B46B43C7AA7*
G04*
G04*
G04 #@! TF.FilePolarity,Positive*
G04*
G01*
G75*
%ADD10C,0.250*%
%ADD11C,0.600*%
%ADD12C,0.100*%
%ADD13C,0.150*%
G36*
X-11369Y-7305D02*
X-11487Y-7423D01*
X-12222Y-7074D01*
X-12106Y-6958D01*
X-11573Y-7227D01*
X-11836Y-6688D01*
X-11718Y-6570D01*
X-11369Y-7305D01*
D02*
G37*
G36*
X-11732Y-7668D02*
X-11842Y-7778D01*
X-12384Y-7236D01*
X-12274Y-7126D01*
X-11732Y-7668D01*
D02*
G37*
G36*
X-11947Y-7883D02*
X-12048Y-7984D01*
X-12403Y-7630D01*
X-12267Y-8203D01*
X-12377Y-8313D01*
X-12919Y-7771D01*
X-12817Y-7670D01*
X-12454Y-8033D01*
X-12595Y-7447D01*
X-12489Y-7341D01*
X-11947Y-7883D01*
D02*
G37*
G36*
X-7150Y-11275D02*
X-7135Y-11276D01*
X-7122Y-11278D01*
X-7109Y-11279D01*
X-7098Y-11281D01*
X-7089Y-11283D01*
X-7082Y-11285D01*
X-7076Y-11286D01*
X-7073Y-11287D01*
X-7071Y-11287D01*
X-7053Y-11293D01*
X-7034Y-11301D01*
X-7017Y-11309D01*
X-7000Y-11318D01*
X-6984Y-11327D01*
X-6969Y-11337D01*
X-6954Y-11346D01*
X-6941Y-11356D01*
X-6929Y-11365D01*
X-6918Y-11374D01*
X-6909Y-11382D01*
X-6900Y-11388D01*
X-6895Y-11394D01*
X-6892Y-11396D01*
X-6890Y-11398D01*
X-6888Y-11400D01*
X-6887Y-11401D01*
X-6886Y-11402D01*
X-6886Y-11402D01*
X-6872Y-11417D01*
X-6859Y-11432D01*
X-6847Y-11448D01*
X-6835Y-11463D01*
X-6825Y-11478D01*
X-6816Y-11492D01*
X-6808Y-11506D01*
X-6801Y-11520D01*
X-6794Y-11532D01*
X-6788Y-11543D01*
X-6784Y-11553D01*
X-6780Y-11561D01*
X-6777Y-11569D01*
X-6775Y-11574D01*
X-6774Y-11577D01*
X-6773Y-11578D01*
X-6767Y-11597D01*
X-6763Y-11615D01*
X-6759Y-11633D01*
X-6757Y-11650D01*
X-6756Y-11667D01*
X-6756Y-11684D01*
X-6756Y-11699D01*
X-6757Y-11713D01*
X-6758Y-11727D01*
X-6759Y-11738D01*
X-6761Y-11749D01*
X-6763Y-11758D01*
X-6764Y-11765D01*
X-6765Y-11771D01*
X-6766Y-11774D01*
X-6766Y-11775D01*
X-6772Y-11793D01*
X-6779Y-11811D01*
X-6787Y-11828D01*
X-6795Y-11846D01*
X-6805Y-11861D01*
X-6814Y-11877D01*
X-6823Y-11891D01*
X-6833Y-11904D01*
X-6842Y-11916D01*
X-6851Y-11927D01*
X-6859Y-11936D01*
X-6865Y-11944D01*
X-6871Y-11950D01*
X-6873Y-11953D01*
X-6879Y-11959D01*
X-6892Y-11971D01*
X-6905Y-11983D01*
X-6918Y-11994D01*
X-6932Y-12004D01*
X-6945Y-12013D01*
X-6958Y-12022D01*
X-6970Y-12030D01*
X-6983Y-12038D01*
X-6994Y-12044D01*
X-7004Y-12049D01*
X-7013Y-12054D01*
X-7021Y-12058D01*
X-7027Y-12062D01*
X-7032Y-12064D01*
X-7035Y-12065D01*
X-7036Y-12066D01*
X-7052Y-12073D01*
X-7069Y-12079D01*
X-7084Y-12085D01*
X-7099Y-12089D01*
X-7113Y-12093D01*
X-7126Y-12096D01*
X-7138Y-12099D01*
X-7149Y-12101D01*
X-7159Y-12103D01*
X-7168Y-12104D01*
X-7176Y-12106D01*
X-7183Y-12106D01*
X-7188Y-12106D01*
X-7191Y-12107D01*
X-7194D01*
X-7411Y-11891D01*
X-7175Y-11655D01*
X-7083Y-11747D01*
X-7209Y-11872D01*
X-7140Y-11941D01*
X-7123Y-11938D01*
X-7106Y-11934D01*
X-7091Y-11930D01*
X-7077Y-11925D01*
X-7071Y-11923D01*
X-7065Y-11921D01*
X-7060Y-11919D01*
X-7056Y-11917D01*
X-7052Y-11916D01*
X-7050Y-11915D01*
X-7048Y-11914D01*
X-7048Y-11914D01*
X-7030Y-11905D01*
X-7014Y-11896D01*
X-7001Y-11887D01*
X-6994Y-11883D01*
X-6988Y-11878D01*
X-6983Y-11874D01*
X-6979Y-11870D01*
X-6975Y-11867D01*
X-6972Y-11864D01*
X-6969Y-11862D01*
X-6965Y-11858D01*
X-6953Y-11845D01*
X-6943Y-11832D01*
X-6934Y-11818D01*
X-6926Y-11804D01*
X-6920Y-11790D01*
X-6914Y-11777D01*
X-6911Y-11764D01*
X-6907Y-11752D01*
X-6905Y-11741D01*
X-6903Y-11730D01*
X-6902Y-11721D01*
X-6902Y-11713D01*
X-6901Y-11706D01*
Y-11702D01*
Y-11698D01*
Y-11698D01*
X-6903Y-11681D01*
X-6907Y-11664D01*
X-6913Y-11646D01*
X-6920Y-11630D01*
X-6927Y-11614D01*
X-6936Y-11599D01*
X-6945Y-11584D01*
X-6954Y-11570D01*
X-6963Y-11557D01*
X-6972Y-11546D01*
X-6980Y-11536D01*
X-6988Y-11527D01*
X-6991Y-11523D01*
X-6994Y-11520D01*
X-6996Y-11517D01*
X-6999Y-11515D01*
X-7001Y-11513D01*
X-7002Y-11512D01*
X-7003Y-11511D01*
X-7003Y-11511D01*
X-7019Y-11495D01*
X-7036Y-11481D01*
X-7052Y-11469D01*
X-7068Y-11458D01*
X-7084Y-11449D01*
X-7098Y-11442D01*
X-7112Y-11436D01*
X-7125Y-11431D01*
X-7137Y-11427D01*
X-7147Y-11424D01*
X-7157Y-11422D01*
X-7165Y-11420D01*
X-7171Y-11419D01*
X-7176Y-11418D01*
X-7196D01*
X-7212Y-11420D01*
X-7227Y-11423D01*
X-7242Y-11427D01*
X-7256Y-11432D01*
X-7269Y-11439D01*
X-7281Y-11444D01*
X-7293Y-11451D01*
X-7303Y-11458D01*
X-7312Y-11464D01*
X-7320Y-11470D01*
X-7327Y-11475D01*
X-7332Y-11480D01*
X-7337Y-11483D01*
X-7340Y-11486D01*
X-7348Y-11495D01*
X-7355Y-11504D01*
X-7362Y-11514D01*
X-7368Y-11522D01*
X-7373Y-11531D01*
X-7378Y-11540D01*
X-7382Y-11547D01*
X-7385Y-11555D01*
X-7387Y-11562D01*
X-7390Y-11568D01*
X-7392Y-11574D01*
X-7393Y-11579D01*
X-7394Y-11583D01*
X-7395Y-11586D01*
X-7395Y-11588D01*
Y-11588D01*
X-7396Y-11599D01*
Y-11609D01*
X-7396Y-11619D01*
X-7396Y-11628D01*
X-7395Y-11637D01*
X-7393Y-11646D01*
X-7391Y-11655D01*
X-7389Y-11662D01*
X-7386Y-11669D01*
X-7384Y-11675D01*
X-7382Y-11681D01*
X-7380Y-11686D01*
X-7378Y-11689D01*
X-7377Y-11693D01*
X-7376Y-11694D01*
X-7376Y-11695D01*
X-7505Y-11783D01*
X-7515Y-11765D01*
X-7523Y-11749D01*
X-7530Y-11731D01*
X-7536Y-11715D01*
X-7540Y-11698D01*
X-7544Y-11682D01*
X-7546Y-11668D01*
X-7548Y-11654D01*
X-7549Y-11641D01*
X-7550Y-11629D01*
Y-11619D01*
X-7549Y-11610D01*
Y-11603D01*
X-7548Y-11597D01*
Y-11594D01*
X-7548Y-11593D01*
X-7544Y-11574D01*
X-7539Y-11556D01*
X-7532Y-11537D01*
X-7524Y-11520D01*
X-7516Y-11502D01*
X-7505Y-11486D01*
X-7496Y-11470D01*
X-7485Y-11456D01*
X-7476Y-11442D01*
X-7466Y-11430D01*
X-7457Y-11419D01*
X-7449Y-11410D01*
X-7446Y-11406D01*
X-7443Y-11403D01*
X-7440Y-11399D01*
X-7433Y-11393D01*
X-7419Y-11379D01*
X-7404Y-11366D01*
X-7390Y-11354D01*
X-7376Y-11344D01*
X-7362Y-11334D01*
X-7349Y-11326D01*
X-7337Y-11318D01*
X-7326Y-11312D01*
X-7315Y-11307D01*
X-7306Y-11302D01*
X-7297Y-11298D01*
X-7290Y-11295D01*
X-7284Y-11293D01*
X-7280Y-11291D01*
X-7277Y-11290D01*
X-7276Y-11290D01*
X-7257Y-11284D01*
X-7238Y-11280D01*
X-7219Y-11277D01*
X-7201Y-11275D01*
X-7183Y-11274D01*
X-7166D01*
X-7150Y-11275D01*
D02*
G37*
G36*
X-7222Y-12283D02*
X-7323Y-12384D01*
X-7678Y-12030D01*
X-7542Y-12603D01*
X-7652Y-12713D01*
X-8194Y-12171D01*
X-8092Y-12070D01*
X-7729Y-12433D01*
X-7870Y-11847D01*
X-7764Y-11741D01*
X-7222Y-12283D01*
D02*
G37*
G36*
X-7767Y-12828D02*
X-7984Y-13045D01*
X-7995Y-13055D01*
X-8005Y-13064D01*
X-8016Y-13073D01*
X-8025Y-13081D01*
X-8034Y-13088D01*
X-8042Y-13094D01*
X-8050Y-13099D01*
X-8057Y-13104D01*
X-8063Y-13108D01*
X-8068Y-13112D01*
X-8073Y-13115D01*
X-8076Y-13117D01*
X-8079Y-13119D01*
X-8081Y-13119D01*
X-8081Y-13120D01*
X-8093Y-13126D01*
X-8105Y-13131D01*
X-8116Y-13135D01*
X-8127Y-13139D01*
X-8137Y-13142D01*
X-8147Y-13145D01*
X-8156Y-13147D01*
X-8165Y-13149D01*
X-8173Y-13150D01*
X-8180Y-13151D01*
X-8186Y-13152D01*
X-8191Y-13153D01*
X-8195D01*
X-8199Y-13153D01*
X-8215D01*
X-8229Y-13152D01*
X-8243Y-13150D01*
X-8257Y-13148D01*
X-8270Y-13145D01*
X-8283Y-13142D01*
X-8295Y-13138D01*
X-8306Y-13135D01*
X-8317Y-13131D01*
X-8326Y-13128D01*
X-8334Y-13124D01*
X-8341Y-13121D01*
X-8347Y-13119D01*
X-8351Y-13117D01*
X-8354Y-13116D01*
X-8355Y-13115D01*
X-8367Y-13109D01*
X-8379Y-13102D01*
X-8403Y-13087D01*
X-8425Y-13071D01*
X-8436Y-13062D01*
X-8445Y-13055D01*
X-8454Y-13047D01*
X-8462Y-13040D01*
X-8470Y-13034D01*
X-8475Y-13028D01*
X-8480Y-13024D01*
X-8484Y-13020D01*
X-8486Y-13018D01*
X-8487Y-13017D01*
X-8501Y-13003D01*
X-8514Y-12989D01*
X-8526Y-12975D01*
X-8536Y-12962D01*
X-8546Y-12949D01*
X-8555Y-12937D01*
X-8563Y-12926D01*
X-8571Y-12915D01*
X-8577Y-12906D01*
X-8582Y-12897D01*
X-8587Y-12890D01*
X-8590Y-12883D01*
X-8593Y-12878D01*
X-8595Y-12874D01*
X-8597Y-12872D01*
Y-12871D01*
X-8603Y-12858D01*
X-8608Y-12845D01*
X-8613Y-12832D01*
X-8617Y-12820D01*
X-8620Y-12808D01*
X-8623Y-12796D01*
X-8626Y-12786D01*
X-8628Y-12775D01*
X-8629Y-12766D01*
X-8631Y-12758D01*
X-8632Y-12750D01*
X-8632Y-12744D01*
X-8633Y-12738D01*
X-8633Y-12735D01*
Y-12733D01*
Y-12732D01*
Y-12718D01*
X-8632Y-12706D01*
X-8631Y-12693D01*
X-8629Y-12682D01*
X-8626Y-12670D01*
X-8624Y-12659D01*
X-8621Y-12649D01*
X-8618Y-12639D01*
X-8615Y-12631D01*
X-8612Y-12623D01*
X-8609Y-12616D01*
X-8606Y-12610D01*
X-8604Y-12606D01*
X-8602Y-12603D01*
X-8602Y-12600D01*
X-8601Y-12600D01*
X-8596Y-12591D01*
X-8590Y-12582D01*
X-8584Y-12572D01*
X-8577Y-12563D01*
X-8561Y-12544D01*
X-8553Y-12535D01*
X-8546Y-12526D01*
X-8539Y-12518D01*
X-8532Y-12510D01*
X-8525Y-12503D01*
X-8520Y-12497D01*
X-8309Y-12287D01*
X-7767Y-12828D01*
D02*
G37*
%LPC*%
G36*
X-8327Y-12487D02*
X-8388Y-12549D01*
X-8398Y-12560D01*
X-8409Y-12570D01*
X-8417Y-12579D01*
X-8425Y-12588D01*
X-8432Y-12596D01*
X-8438Y-12603D01*
X-8443Y-12609D01*
X-8448Y-12615D01*
X-8451Y-12619D01*
X-8454Y-12623D01*
X-8456Y-12626D01*
X-8458Y-12629D01*
X-8460Y-12630D01*
X-8460Y-12632D01*
X-8460Y-12632D01*
X-8468Y-12646D01*
X-8475Y-12660D01*
X-8479Y-12673D01*
X-8482Y-12684D01*
X-8484Y-12694D01*
X-8485Y-12698D01*
X-8485Y-12702D01*
X-8486Y-12704D01*
Y-12707D01*
Y-12707D01*
Y-12708D01*
X-8485Y-12723D01*
X-8483Y-12738D01*
X-8479Y-12751D01*
X-8476Y-12765D01*
X-8471Y-12775D01*
X-8469Y-12780D01*
X-8468Y-12784D01*
X-8466Y-12787D01*
X-8465Y-12790D01*
X-8465Y-12791D01*
X-8464Y-12792D01*
X-8460Y-12800D01*
X-8454Y-12809D01*
X-8448Y-12818D01*
X-8441Y-12828D01*
X-8427Y-12846D01*
X-8420Y-12854D01*
X-8413Y-12862D01*
X-8407Y-12870D01*
X-8400Y-12877D01*
X-8395Y-12883D01*
X-8389Y-12889D01*
X-8385Y-12893D01*
X-8382Y-12897D01*
X-8380Y-12899D01*
X-8379Y-12899D01*
X-8368Y-12911D01*
X-8357Y-12921D01*
X-8346Y-12931D01*
X-8336Y-12940D01*
X-8326Y-12948D01*
X-8317Y-12955D01*
X-8308Y-12961D01*
X-8301Y-12967D01*
X-8293Y-12972D01*
X-8287Y-12976D01*
X-8282Y-12980D01*
X-8277Y-12982D01*
X-8274Y-12984D01*
X-8271Y-12986D01*
X-8269Y-12987D01*
X-8269Y-12987D01*
X-8260Y-12992D01*
X-8252Y-12995D01*
X-8244Y-12999D01*
X-8236Y-13002D01*
X-8229Y-13004D01*
X-8223Y-13006D01*
X-8216Y-13007D01*
X-8210Y-13009D01*
X-8205Y-13010D01*
X-8201Y-13010D01*
X-8197Y-13011D01*
X-8194Y-13011D01*
X-8188D01*
X-8175Y-13009D01*
X-8163Y-13007D01*
X-8152Y-13003D01*
X-8142Y-12999D01*
X-8134Y-12995D01*
X-8130Y-12994D01*
X-8127Y-12992D01*
X-8125Y-12991D01*
X-8123Y-12990D01*
X-8122Y-12989D01*
X-8121Y-12989D01*
X-8117Y-12986D01*
X-8111Y-12982D01*
X-8100Y-12973D01*
X-8088Y-12963D01*
X-8076Y-12953D01*
X-8071Y-12948D01*
X-8066Y-12943D01*
X-8061Y-12939D01*
X-7968Y-12846D01*
X-8327Y-12487D01*
D02*
G37*
%LPD*%
D10*
X-2575Y-2755D02*
G03*
X-2575Y-2755I-125J0D01*
G01*
D11*
X-275Y-1475D02*
G03*
X-275Y-1475I-300J0D01*
G01*
D12*
X-1950Y6475D02*
G03*
X-1950Y6475I-50J0D01*
G01*
Y5075D02*
G03*
X-1950Y5075I-50J0D01*
G01*
X1649Y-6237D02*
G03*
X1649Y-6237I-49J0D01*
G01*
X-4351Y-6237D02*
G03*
X-4351Y-6237I-49J0D01*
G01*
D13*
X8680Y-3382D02*
X8920D01*
X8680Y-2218D02*
X8920D01*
X12618Y6720D02*
X12782D01*
X12618Y5680D02*
X12782D01*
X12182Y-1020D02*
Y-780D01*
X11018Y-1020D02*
Y-780D01*
X13418Y-520D02*
X13582Y-520D01*
X13418Y520D02*
X13582Y520D01*
X11974Y-2490D02*
X12090Y-2374D01*
X12710Y-3226D02*
X12826Y-3110D01*
X5910Y3574D02*
X6026Y3690D01*
X5174Y4310D02*
X5290Y4426D01*
X13418Y4270D02*
X13582Y4270D01*
X13418Y3230D02*
X13582Y3230D01*
X-918Y11880D02*
Y12120D01*
X-2082Y11880D02*
Y12120D01*
X2082Y11880D02*
Y12120D01*
X918Y11880D02*
Y12120D01*
X5182Y-1320D02*
Y-1080D01*
X4018Y-1320D02*
Y-1080D01*
X6482Y-1080D02*
X6482Y-1320D01*
X5318Y-1320D02*
X5318Y-1080D01*
X13418Y3020D02*
X13582Y3020D01*
X13418Y1980D02*
X13582D01*
X-520Y8418D02*
X-280D01*
X-520Y9582D02*
X-280D01*
X13418Y1770D02*
X13582Y1770D01*
X13418Y730D02*
X13582D01*
X8680Y2918D02*
X8920D01*
X8680Y4082D02*
X8920D01*
X8680Y4418D02*
X8920D01*
X8680Y5582D02*
X8920D01*
X-8520Y-218D02*
X-8280D01*
X-8520Y-1382D02*
X-8280Y-1382D01*
X-8520Y982D02*
X-8280D01*
X-8520Y-182D02*
X-8280D01*
X-8520Y2182D02*
X-8280D01*
X-8520Y1018D02*
X-8280D01*
X8680Y1418D02*
X8920D01*
X8680Y2582D02*
X8920D01*
X-82Y-3290D02*
X82Y-3290D01*
X-82Y-4330D02*
X82Y-4330D01*
X-3082Y-9117D02*
X-2918D01*
X-3082Y-10157D02*
X-2918Y-10157D01*
X2918Y-9117D02*
X3082Y-9117D01*
X2918Y-10157D02*
X3082Y-10157D01*
X-1550Y-2450D02*
Y2450D01*
X1550Y-2450D02*
Y2450D01*
X-1550Y-2450D02*
X1550D01*
X-1550Y2450D02*
X1550D01*
M02*
