M48
;Layer_Color=9474304
;FILE_FORMAT=4:3
METRIC,LZ
;TYPE=PLATED
T01F00S00C0.300
T03F00S00C1.100
;TYPE=NON_PLATED
T04F00S00C3.000
%
T01
X-0013589Y-0006477
Y-0005461
Y-0004445
X-0008763
Y-0005461
Y-0006477
X-0007874Y-0005969
X-0004953
X-0003Y-0005858
X-00039Y-00047
X-0004445Y-0003175
X-0006604Y-0001905
X-0008714Y-0002287
X-0010392Y-00021
X-0010922Y-0001524
Y0001524
X-0010392Y00021
X-0010804Y00045
X-0009455Y00046
X-00088Y0004
X-00085Y00033
X-0007855Y00029
X-00069Y00024
X-0006Y00016
X-00054Y00011
X-00051Y00002
X-0001524Y0001905
X0Y00018
X00012Y00019
X00025Y00046
X0002Y00053
X00017Y0006
X0001661Y0006889
X0000175Y0006896
X-0000276Y000599
X0000254Y0005459
X-00034Y00055
X-0006099Y0007476
X-0009017Y0005715
X-0009906
X-00031Y001
X-0002
X-0000474Y0010155
X0000322Y001013
X0Y0012685
X00031Y001
X00067Y00069
X00074Y00063
X00085Y00061
X000535Y00055
X00041Y000425
X00073Y00035
Y0002
X00078Y-00005
X00086Y-00012
X00071Y-00015
Y-00023
X0005285Y-0003619
X0002Y-00035
X00009Y-00051
X-00007
X-000127Y-0008537
X0004572Y-0008525
X0003Y-0005858
X0007Y-00054
X00086Y-00048
X00106Y-00023
Y00004
X00116Y00006
X0011801Y00018
X00118Y00026
X0011801Y00034
X00127Y00048
X001375Y0005
X001505Y00012
X00139Y-000305
X001265Y-00043
T03
X-0010804Y-0009008
X-0009008Y-0010804
X0006706Y-0012094
X0008502Y-0010298
X0010298Y-0008502
X0012094Y-0006706
T04
X0Y-0013
X0009Y001
X-0009
M30
