G04*
G04 #@! TF.GenerationSoftware,Altium Limited,Altium Designer,23.3.1 (30)*
G04*
G04 Layer_Physical_Order=1*
G04 Layer_Color=255*
%FSLAX43Y43*%
%MOMM*%
G71*
G04*
G04 #@! TF.SameCoordinates,9844E55F-96F2-4D63-9416-53F8DD85CCA4*
G04*
G04*
G04 #@! TF.FilePolarity,Positive*
G04*
G01*
G75*
%ADD10C,0.500*%
%ADD12C,0.150*%
%ADD13C,0.200*%
G04:AMPARAMS|DCode=15|XSize=0.7mm|YSize=0.9mm|CornerRadius=0.07mm|HoleSize=0mm|Usage=FLASHONLY|Rotation=0.000|XOffset=0mm|YOffset=0mm|HoleType=Round|Shape=RoundedRectangle|*
%AMROUNDEDRECTD15*
21,1,0.700,0.760,0,0,0.0*
21,1,0.560,0.900,0,0,0.0*
1,1,0.140,0.280,-0.380*
1,1,0.140,-0.280,-0.380*
1,1,0.140,-0.280,0.380*
1,1,0.140,0.280,0.380*
%
%ADD15ROUNDEDRECTD15*%
%ADD16R,0.421X1.955*%
G04:AMPARAMS|DCode=17|XSize=1.955mm|YSize=0.421mm|CornerRadius=0.21mm|HoleSize=0mm|Usage=FLASHONLY|Rotation=270.000|XOffset=0mm|YOffset=0mm|HoleType=Round|Shape=RoundedRectangle|*
%AMROUNDEDRECTD17*
21,1,1.955,0.000,0,0,270.0*
21,1,1.534,0.421,0,0,270.0*
1,1,0.421,0.000,-0.767*
1,1,0.421,0.000,0.767*
1,1,0.421,0.000,0.767*
1,1,0.421,0.000,-0.767*
%
%ADD17ROUNDEDRECTD17*%
G04:AMPARAMS|DCode=18|XSize=0.2mm|YSize=0.7mm|CornerRadius=0.02mm|HoleSize=0mm|Usage=FLASHONLY|Rotation=0.000|XOffset=0mm|YOffset=0mm|HoleType=Round|Shape=RoundedRectangle|*
%AMROUNDEDRECTD18*
21,1,0.200,0.660,0,0,0.0*
21,1,0.160,0.700,0,0,0.0*
1,1,0.040,0.080,-0.330*
1,1,0.040,-0.080,-0.330*
1,1,0.040,-0.080,0.330*
1,1,0.040,0.080,0.330*
%
%ADD18ROUNDEDRECTD18*%
G04:AMPARAMS|DCode=19|XSize=0.2mm|YSize=0.7mm|CornerRadius=0.02mm|HoleSize=0mm|Usage=FLASHONLY|Rotation=270.000|XOffset=0mm|YOffset=0mm|HoleType=Round|Shape=RoundedRectangle|*
%AMROUNDEDRECTD19*
21,1,0.200,0.660,0,0,270.0*
21,1,0.160,0.700,0,0,270.0*
1,1,0.040,-0.330,-0.080*
1,1,0.040,-0.330,0.080*
1,1,0.040,0.330,0.080*
1,1,0.040,0.330,-0.080*
%
%ADD19ROUNDEDRECTD19*%
%ADD20R,2.700X1.700*%
G04:AMPARAMS|DCode=21|XSize=2mm|YSize=3mm|CornerRadius=0.2mm|HoleSize=0mm|Usage=FLASHONLY|Rotation=90.000|XOffset=0mm|YOffset=0mm|HoleType=Round|Shape=RoundedRectangle|*
%AMROUNDEDRECTD21*
21,1,2.000,2.600,0,0,90.0*
21,1,1.600,3.000,0,0,90.0*
1,1,0.400,1.300,0.800*
1,1,0.400,1.300,-0.800*
1,1,0.400,-1.300,-0.800*
1,1,0.400,-1.300,0.800*
%
%ADD21ROUNDEDRECTD21*%
G04:AMPARAMS|DCode=22|XSize=0.57mm|YSize=1.4mm|CornerRadius=0.057mm|HoleSize=0mm|Usage=FLASHONLY|Rotation=180.000|XOffset=0mm|YOffset=0mm|HoleType=Round|Shape=RoundedRectangle|*
%AMROUNDEDRECTD22*
21,1,0.570,1.286,0,0,180.0*
21,1,0.456,1.400,0,0,180.0*
1,1,0.114,-0.228,0.643*
1,1,0.114,0.228,0.643*
1,1,0.114,0.228,-0.643*
1,1,0.114,-0.228,-0.643*
%
%ADD22ROUNDEDRECTD22*%
G04:AMPARAMS|DCode=23|XSize=0.75mm|YSize=0.96mm|CornerRadius=0.075mm|HoleSize=0mm|Usage=FLASHONLY|Rotation=180.000|XOffset=0mm|YOffset=0mm|HoleType=Round|Shape=RoundedRectangle|*
%AMROUNDEDRECTD23*
21,1,0.750,0.810,0,0,180.0*
21,1,0.600,0.960,0,0,180.0*
1,1,0.150,-0.300,0.405*
1,1,0.150,0.300,0.405*
1,1,0.150,0.300,-0.405*
1,1,0.150,-0.300,-0.405*
%
%ADD23ROUNDEDRECTD23*%
G04:AMPARAMS|DCode=24|XSize=0.8mm|YSize=0.8mm|CornerRadius=0.08mm|HoleSize=0mm|Usage=FLASHONLY|Rotation=180.000|XOffset=0mm|YOffset=0mm|HoleType=Round|Shape=RoundedRectangle|*
%AMROUNDEDRECTD24*
21,1,0.800,0.640,0,0,180.0*
21,1,0.640,0.800,0,0,180.0*
1,1,0.160,-0.320,0.320*
1,1,0.160,0.320,0.320*
1,1,0.160,0.320,-0.320*
1,1,0.160,-0.320,-0.320*
%
%ADD24ROUNDEDRECTD24*%
G04:AMPARAMS|DCode=25|XSize=1.17mm|YSize=2.7mm|CornerRadius=0.117mm|HoleSize=0mm|Usage=FLASHONLY|Rotation=0.000|XOffset=0mm|YOffset=0mm|HoleType=Round|Shape=RoundedRectangle|*
%AMROUNDEDRECTD25*
21,1,1.170,2.466,0,0,0.0*
21,1,0.936,2.700,0,0,0.0*
1,1,0.234,0.468,-1.233*
1,1,0.234,-0.468,-1.233*
1,1,0.234,-0.468,1.233*
1,1,0.234,0.468,1.233*
%
%ADD25ROUNDEDRECTD25*%
G04:AMPARAMS|DCode=26|XSize=0.95mm|YSize=1.45mm|CornerRadius=0.095mm|HoleSize=0mm|Usage=FLASHONLY|Rotation=0.000|XOffset=0mm|YOffset=0mm|HoleType=Round|Shape=RoundedRectangle|*
%AMROUNDEDRECTD26*
21,1,0.950,1.260,0,0,0.0*
21,1,0.760,1.450,0,0,0.0*
1,1,0.190,0.380,-0.630*
1,1,0.190,-0.380,-0.630*
1,1,0.190,-0.380,0.630*
1,1,0.190,0.380,0.630*
%
%ADD26ROUNDEDRECTD26*%
%ADD45C,0.800*%
%ADD46C,0.400*%
%ADD47C,0.300*%
%ADD48C,1.000*%
%ADD49C,1.925*%
G04:AMPARAMS|DCode=50|XSize=1.925mm|YSize=1.925mm|CornerRadius=0.193mm|HoleSize=0mm|Usage=FLASHONLY|Rotation=180.000|XOffset=0mm|YOffset=0mm|HoleType=Round|Shape=RoundedRectangle|*
%AMROUNDEDRECTD50*
21,1,1.925,1.540,0,0,180.0*
21,1,1.540,1.925,0,0,180.0*
1,1,0.385,-0.770,0.770*
1,1,0.385,0.770,0.770*
1,1,0.385,0.770,-0.770*
1,1,0.385,-0.770,-0.770*
%
%ADD50ROUNDEDRECTD50*%
%ADD51C,1.500*%
G04:AMPARAMS|DCode=52|XSize=1.5mm|YSize=1.5mm|CornerRadius=0.15mm|HoleSize=0mm|Usage=FLASHONLY|Rotation=270.000|XOffset=0mm|YOffset=0mm|HoleType=Round|Shape=RoundedRectangle|*
%AMROUNDEDRECTD52*
21,1,1.500,1.200,0,0,270.0*
21,1,1.200,1.500,0,0,270.0*
1,1,0.300,-0.600,-0.600*
1,1,0.300,-0.600,0.600*
1,1,0.300,0.600,0.600*
1,1,0.300,0.600,-0.600*
%
%ADD52ROUNDEDRECTD52*%
%ADD53C,0.550*%
%ADD54C,0.700*%
G36*
X-6715Y-9643D02*
X-6000Y-10358D01*
Y-13000D01*
X-8000D01*
Y-10358D01*
X-7285Y-9643D01*
X-6715Y-9643D01*
D02*
G37*
G36*
X-12827Y-4318D02*
Y-6604D01*
X-13081Y-6858D01*
X-13843D01*
X-13934Y-6767D01*
X-13970Y-6694D01*
Y-4191D01*
X-13843Y-4064D01*
X-13081D01*
X-12827Y-4318D01*
D02*
G37*
G36*
X-8382Y-3683D02*
Y-6731D01*
X-8509Y-6858D01*
X-9271D01*
X-9525Y-6604D01*
Y-3937D01*
X-9144Y-3556D01*
X-8509D01*
X-8382Y-3683D01*
D02*
G37*
D10*
X-12296Y53D02*
X-12280Y50D01*
X-12399Y71D02*
X-12296Y53D01*
X-13362Y243D02*
X-12399Y71D01*
X-13465Y261D02*
X-13362Y243D01*
X-13710Y305D02*
X-13465Y261D01*
X-12805Y0D02*
X-12305D01*
X-12280D02*
Y50D01*
Y-0D02*
Y0D01*
X-13710Y305D02*
X-13405Y0D01*
X-12305Y-0D02*
X-12280D01*
X-8500Y-9000D02*
Y-7500D01*
X-7000Y-9000D02*
Y-7500D01*
X-5500Y-9000D02*
X-5500Y-9000D01*
Y-7500D01*
X-7023Y-3175D02*
Y-2324D01*
X-6604Y-1905D01*
D12*
X11814Y5336D02*
X14650Y2500D01*
X3125Y4941D02*
X3520Y5336D01*
X11814D01*
X-5500Y-7500D02*
X-3250D01*
X-2750Y-8000D01*
X1111Y6111D02*
X3385D01*
X1000Y6000D02*
X1111Y6111D01*
X3130Y-4561D02*
X3775Y-3916D01*
Y-2240D01*
X3568Y-5000D02*
X4315D01*
X3130Y-4561D02*
X3568Y-5000D01*
X3125Y-3747D02*
Y-2240D01*
X745Y-5461D02*
X1321D01*
X-1067D02*
X745D01*
X750Y-5466D01*
Y-6500D02*
Y-5466D01*
X-5665Y-5969D02*
X-4510D01*
X-2026Y-4502D02*
X-1067Y-5461D01*
X1689Y-3858D02*
X2475Y-3072D01*
X1321Y-5461D02*
X1689Y-5092D01*
Y-3858D01*
X2475Y-3072D02*
Y-2240D01*
X7800Y4500D02*
X7815Y4485D01*
Y3000D02*
Y4485D01*
Y1968D02*
Y3000D01*
X6759Y911D02*
X7815Y1968D01*
X2578Y911D02*
X6759D01*
X1175Y2314D02*
X2578Y911D01*
X1175Y2314D02*
Y3510D01*
X5039D02*
X6500Y2049D01*
X4425Y3510D02*
X5039D01*
X6500Y1500D02*
Y2049D01*
X4083Y2019D02*
X5455D01*
X3775Y2327D02*
Y3510D01*
Y2327D02*
X4083Y2019D01*
X3125Y3510D02*
Y4941D01*
X-247Y5500D02*
X525Y4728D01*
X-1500Y5500D02*
X-247D01*
X525Y3510D02*
Y4728D01*
X7975Y-865D02*
X9000Y160D01*
Y795D01*
X8606Y1189D02*
X9000Y795D01*
X7621Y1189D02*
X8606D01*
X6918Y486D02*
X7621Y1189D01*
X2251Y486D02*
X6918D01*
X745Y1992D02*
X2251Y486D01*
X116Y1992D02*
X745D01*
X-125Y2233D02*
X116Y1992D01*
X-125Y2233D02*
Y3510D01*
X7621Y51D02*
X7975Y405D01*
X2124Y51D02*
X7621D01*
X587Y1588D02*
X2124Y51D01*
X-550Y1588D02*
X587D01*
X-775Y1812D02*
X-550Y1588D01*
X-775Y1812D02*
Y3510D01*
X7210Y-3405D02*
X7975D01*
X4191Y-386D02*
X7210Y-3405D01*
X1983Y-386D02*
X4191D01*
X408Y1189D02*
X1983Y-386D01*
X-1006Y1189D02*
X408D01*
X-1425Y1609D02*
X-1006Y1189D01*
X-1425Y1609D02*
Y3510D01*
X-3478Y1853D02*
X-2421Y795D01*
X221D02*
X1861Y-844D01*
X-2421Y795D02*
X221D01*
X1861Y-844D02*
X3873D01*
X4425Y-1396D01*
Y-2240D02*
Y-1396D01*
X-3478Y1853D02*
Y3622D01*
X-4446Y4589D02*
X-3478Y3622D01*
X-8376Y4589D02*
X-4446D01*
X-9455Y3510D02*
X-8376Y4589D01*
X-9455Y1450D02*
Y3510D01*
X-8182Y4176D02*
X-4657D01*
X-9055Y3303D02*
X-8182Y4176D01*
X-9055Y1450D02*
Y3303D01*
X-4657Y4176D02*
X-3883Y3402D01*
Y1655D02*
X-2637Y410D01*
X-3883Y1655D02*
Y3402D01*
X-2637Y410D02*
X13D01*
X1825Y-1402D01*
Y-2240D02*
Y-1402D01*
X1175Y-2240D02*
Y-1394D01*
X-211Y-7D02*
X1175Y-1394D01*
X-2787Y-7D02*
X-211D01*
X-4277Y1482D02*
X-2787Y-7D01*
X-4277Y1482D02*
Y3229D01*
X-4858Y3811D02*
X-4277Y3229D01*
X-8009Y3811D02*
X-4858D01*
X-5315Y2261D02*
Y3000D01*
Y2261D02*
X-4952Y1898D01*
X-6705Y2980D02*
X-6685Y3000D01*
X-6705Y800D02*
Y2980D01*
X-5588Y635D02*
X-4097D01*
X-3046Y-416D01*
X-1111D01*
X-125Y-1403D01*
Y-2240D02*
Y-1403D01*
X-1300Y-874D02*
X-775Y-1399D01*
X-4149Y0D02*
X-3275Y-874D01*
X-1300D01*
X-775Y-2240D02*
Y-1399D01*
X-4953Y0D02*
X-4149D01*
X-8104Y2316D02*
X-7855Y2067D01*
Y1450D02*
Y2067D01*
X-8655Y1450D02*
Y3164D01*
X-8009Y3811D01*
X-5665Y-5969D02*
Y-4699D01*
X-3881D01*
X-3052Y-3870D01*
X217D01*
X525Y-3561D01*
Y-2240D01*
X-5588Y-635D02*
X-3983Y-2240D01*
X-1425D01*
X-7855Y1450D02*
X-7455D01*
X-8255D02*
X-7855D01*
X-5823Y400D02*
X-5588Y635D01*
X-6705Y400D02*
X-5823D01*
X-4953Y0D02*
X-4953Y0D01*
X-6705Y0D02*
X-4953D01*
X-5823Y-400D02*
X-5588Y-635D01*
X-6705Y-400D02*
X-5823D01*
D13*
X-10605Y0D02*
X-10605Y0D01*
X-11643Y0D02*
X-10605D01*
X-7874Y-5969D02*
X-7035D01*
X-8509Y-4699D02*
X-7035D01*
X-8763Y-4445D02*
X-8509Y-4699D01*
X-11000Y5500D02*
X-10392Y4892D01*
Y2100D02*
Y4892D01*
X-11500Y-635D02*
X-11265Y-400D01*
X-10605D01*
X-11500Y635D02*
X-11265Y400D01*
X-10605D01*
X-7855Y-2343D02*
Y-1450D01*
Y-2343D02*
X-7023Y-3175D01*
X-5423D02*
X-4445D01*
X-8714Y-2287D02*
X-8655Y-2228D01*
Y-1450D01*
X-9855Y-1563D02*
Y-1450D01*
X-10392Y-2100D02*
X-9855Y-1563D01*
X-9055Y-400D02*
X-8655Y0D01*
X-9455Y-800D02*
X-9055Y-400D01*
X-10605Y-800D02*
X-9455D01*
X-10605Y-1207D02*
Y-800D01*
X-10922Y-1524D02*
X-10605Y-1207D01*
Y800D02*
Y1207D01*
X-10922Y1524D02*
X-10605Y1207D01*
X-10392Y2100D02*
X-9855Y1563D01*
Y1450D02*
Y1563D01*
X-9455Y-2405D02*
Y-1450D01*
X-10225Y-3175D02*
X-9455Y-2405D01*
Y800D02*
X-8655Y0D01*
X-10605Y800D02*
X-9455D01*
X-9055Y-1450D02*
Y-400D01*
X-8655Y0D02*
X-8255Y-400D01*
Y-1450D02*
Y-400D01*
D15*
X-5665Y-5969D02*
D03*
X-7035D02*
D03*
Y-4699D02*
D03*
X-5665D02*
D03*
X5685Y-5000D02*
D03*
X4315Y-5000D02*
D03*
X685Y-8000D02*
D03*
X-685D02*
D03*
X-6685Y3000D02*
D03*
X-5315D02*
D03*
X9185D02*
D03*
X7815D02*
D03*
D16*
X4425Y3510D02*
D03*
D17*
X3775D02*
D03*
X3125D02*
D03*
X2475D02*
D03*
X1825D02*
D03*
X1175D02*
D03*
X525D02*
D03*
X-125D02*
D03*
X-775D02*
D03*
X-1425D02*
D03*
Y-2240D02*
D03*
X-775D02*
D03*
X-125D02*
D03*
X525D02*
D03*
X1175D02*
D03*
X1825D02*
D03*
X2475D02*
D03*
X3125D02*
D03*
X3775D02*
D03*
X4425D02*
D03*
D18*
X-7455Y1450D02*
D03*
X-7855D02*
D03*
X-8255D02*
D03*
X-8655D02*
D03*
X-9055D02*
D03*
X-9455D02*
D03*
X-9855D02*
D03*
Y-1450D02*
D03*
X-9455D02*
D03*
X-9055D02*
D03*
X-8655D02*
D03*
X-8255D02*
D03*
X-7855D02*
D03*
X-7455D02*
D03*
D19*
X-10605Y800D02*
D03*
Y400D02*
D03*
Y0D02*
D03*
Y-400D02*
D03*
Y-800D02*
D03*
X-6705D02*
D03*
Y-400D02*
D03*
Y0D02*
D03*
Y400D02*
D03*
Y800D02*
D03*
D20*
X-8655Y0D02*
D03*
D21*
X-13405Y2500D02*
D03*
X-13405Y0D02*
D03*
X-13405Y-2500D02*
D03*
D22*
X-8500Y-9000D02*
D03*
X-7000Y-9000D02*
D03*
X-5500Y-9000D02*
D03*
D23*
X-3110Y-5969D02*
D03*
X-4510D02*
D03*
X-10225Y-3175D02*
D03*
X-8825D02*
D03*
X9200Y4500D02*
D03*
X7800D02*
D03*
D24*
X-750Y-6500D02*
D03*
X750D02*
D03*
D25*
X-12496Y-5461D02*
D03*
X-9856D02*
D03*
D26*
X-5423Y-3175D02*
D03*
X-7023D02*
D03*
D45*
X-2750Y-8000D02*
D03*
X1000Y6000D02*
D03*
X-11000Y5500D02*
D03*
D46*
X-12280Y0D02*
X-11643D01*
X-12305D02*
X-12280D01*
X-12305Y-1900D02*
X-11500Y-1095D01*
Y-635D01*
Y635D02*
Y1095D01*
X-12305Y1900D02*
X-11500Y1095D01*
D47*
X-750Y-6500D02*
X-685Y-6565D01*
Y-8000D02*
Y-6565D01*
X685Y-8000D02*
X1689D01*
X-3110Y-5969D02*
X-2310D01*
X7000Y-5000D02*
X7000Y-5000D01*
X5685Y-5000D02*
X7000D01*
X9185Y3000D02*
X10000D01*
X9200Y4500D02*
X10000D01*
X2475Y5201D02*
X3385Y6111D01*
X2475Y3510D02*
Y5201D01*
X1825Y3510D02*
Y5000D01*
D48*
X-12500Y6000D02*
X-12000Y6500D01*
X-11000Y7500D01*
X5908D02*
X7210Y6198D01*
X-11000Y7500D02*
X5908D01*
X7210Y6198D02*
X13452D01*
X14650Y5000D01*
D49*
X-3810Y9500D02*
D03*
X-1270D02*
D03*
X1270D02*
D03*
D50*
X3810D02*
D03*
D51*
X14650Y0D02*
D03*
Y2500D02*
D03*
Y-2500D02*
D03*
Y-5000D02*
D03*
D52*
Y5000D02*
D03*
D53*
X4425Y-3747D02*
D03*
X3130Y-4561D02*
D03*
X3125Y-3747D02*
D03*
X1689Y-8000D02*
D03*
X-5000Y-11000D02*
D03*
X-9000D02*
D03*
X-7874Y-5969D02*
D03*
X-8763Y-4445D02*
D03*
X-2310Y-5969D02*
D03*
X-5500Y-7500D02*
D03*
X-7000D02*
D03*
X-8500D02*
D03*
X12200Y1702D02*
D03*
X-11000Y7500D02*
D03*
X-11500Y7000D02*
D03*
X-12000Y6500D02*
D03*
X-12500Y6000D02*
D03*
X-2026Y-4502D02*
D03*
X-2700Y3000D02*
D03*
X5332Y-2868D02*
D03*
X10000Y3000D02*
D03*
Y4500D02*
D03*
X6500Y1500D02*
D03*
X5455Y2019D02*
D03*
X1825Y5000D02*
D03*
X3385Y6111D02*
D03*
X-1500Y5500D02*
D03*
X7975Y-865D02*
D03*
Y405D02*
D03*
Y-3405D02*
D03*
X-9500Y5000D02*
D03*
X-4952Y1898D02*
D03*
X-8104Y2316D02*
D03*
X7000Y-5000D02*
D03*
X-8763Y-6477D02*
D03*
Y-5461D02*
D03*
X-13589Y-6477D02*
D03*
Y-5461D02*
D03*
Y-4445D02*
D03*
X-4953Y0D02*
D03*
X-5588Y635D02*
D03*
X-5588Y-635D02*
D03*
X700Y-4699D02*
D03*
X-700D02*
D03*
X-4445Y-3175D02*
D03*
X-6604Y-1905D02*
D03*
X-10392Y2100D02*
D03*
Y-2100D02*
D03*
X-8714Y-2287D02*
D03*
X-10922Y-1524D02*
D03*
Y1524D02*
D03*
D54*
X-13405Y3100D02*
D03*
X-12305D02*
D03*
Y2500D02*
D03*
Y1900D02*
D03*
X-13405D02*
D03*
Y2500D02*
D03*
X-14505Y1900D02*
D03*
Y2500D02*
D03*
Y3100D02*
D03*
X-13405Y600D02*
D03*
X-12305D02*
D03*
Y0D02*
D03*
Y-600D02*
D03*
X-13405D02*
D03*
Y0D02*
D03*
X-14505Y-600D02*
D03*
Y0D02*
D03*
Y600D02*
D03*
X-13405Y-1900D02*
D03*
X-12305D02*
D03*
Y-2500D02*
D03*
Y-3100D02*
D03*
X-13405D02*
D03*
Y-2500D02*
D03*
X-14505Y-3100D02*
D03*
Y-2500D02*
D03*
Y-1900D02*
D03*
M02*
