G04*
G04 #@! TF.GenerationSoftware,Altium Limited,Altium Designer,23.3.1 (30)*
G04*
G04 Layer_Color=16711935*
%FSLAX43Y43*%
%MOMM*%
G71*
G04*
G04 #@! TF.SameCoordinates,9844E55F-96F2-4D63-9416-53F8DD85CCA4*
G04*
G04*
G04 #@! TF.FilePolarity,Negative*
G04*
G01*
G75*
G04:AMPARAMS|DCode=28|XSize=0.8mm|YSize=1mm|CornerRadius=0.12mm|HoleSize=0mm|Usage=FLASHONLY|Rotation=0.000|XOffset=0mm|YOffset=0mm|HoleType=Round|Shape=RoundedRectangle|*
%AMROUNDEDRECTD28*
21,1,0.800,0.760,0,0,0.0*
21,1,0.560,1.000,0,0,0.0*
1,1,0.240,0.280,-0.380*
1,1,0.240,-0.280,-0.380*
1,1,0.240,-0.280,0.380*
1,1,0.240,0.280,0.380*
%
%ADD28ROUNDEDRECTD28*%
G04:AMPARAMS|DCode=34|XSize=2.1mm|YSize=3.1mm|CornerRadius=0.25mm|HoleSize=0mm|Usage=FLASHONLY|Rotation=90.000|XOffset=0mm|YOffset=0mm|HoleType=Round|Shape=RoundedRectangle|*
%AMROUNDEDRECTD34*
21,1,2.100,2.600,0,0,90.0*
21,1,1.600,3.100,0,0,90.0*
1,1,0.500,1.300,0.800*
1,1,0.500,1.300,-0.800*
1,1,0.500,-1.300,-0.800*
1,1,0.500,-1.300,0.800*
%
%ADD34ROUNDEDRECTD34*%
G04:AMPARAMS|DCode=36|XSize=0.85mm|YSize=1.06mm|CornerRadius=0.125mm|HoleSize=0mm|Usage=FLASHONLY|Rotation=180.000|XOffset=0mm|YOffset=0mm|HoleType=Round|Shape=RoundedRectangle|*
%AMROUNDEDRECTD36*
21,1,0.850,0.810,0,0,180.0*
21,1,0.600,1.060,0,0,180.0*
1,1,0.250,-0.300,0.405*
1,1,0.250,0.300,0.405*
1,1,0.250,0.300,-0.405*
1,1,0.250,-0.300,-0.405*
%
%ADD36ROUNDEDRECTD36*%
%ADD40C,2.025*%
G04:AMPARAMS|DCode=41|XSize=2.025mm|YSize=2.025mm|CornerRadius=0.242mm|HoleSize=0mm|Usage=FLASHONLY|Rotation=180.000|XOffset=0mm|YOffset=0mm|HoleType=Round|Shape=RoundedRectangle|*
%AMROUNDEDRECTD41*
21,1,2.025,1.540,0,0,180.0*
21,1,1.540,2.025,0,0,180.0*
1,1,0.485,-0.770,0.770*
1,1,0.485,0.770,0.770*
1,1,0.485,0.770,-0.770*
1,1,0.485,-0.770,-0.770*
%
%ADD41ROUNDEDRECTD41*%
%ADD42C,1.600*%
G04:AMPARAMS|DCode=43|XSize=1.6mm|YSize=1.6mm|CornerRadius=0.2mm|HoleSize=0mm|Usage=FLASHONLY|Rotation=270.000|XOffset=0mm|YOffset=0mm|HoleType=Round|Shape=RoundedRectangle|*
%AMROUNDEDRECTD43*
21,1,1.600,1.200,0,0,270.0*
21,1,1.200,1.600,0,0,270.0*
1,1,0.400,-0.600,-0.600*
1,1,0.400,-0.600,0.600*
1,1,0.400,0.600,0.600*
1,1,0.400,0.600,-0.600*
%
%ADD43ROUNDEDRECTD43*%
%ADD44C,3.100*%
G04:AMPARAMS|DCode=58|XSize=0.7mm|YSize=1.6mm|CornerRadius=0.11mm|HoleSize=0mm|Usage=FLASHONLY|Rotation=270.000|XOffset=0mm|YOffset=0mm|HoleType=Round|Shape=RoundedRectangle|*
%AMROUNDEDRECTD58*
21,1,0.700,1.380,0,0,270.0*
21,1,0.480,1.600,0,0,270.0*
1,1,0.220,-0.690,-0.240*
1,1,0.220,-0.690,0.240*
1,1,0.220,0.690,0.240*
1,1,0.220,0.690,-0.240*
%
%ADD58ROUNDEDRECTD58*%
G04:AMPARAMS|DCode=59|XSize=0.8mm|YSize=1mm|CornerRadius=0.12mm|HoleSize=0mm|Usage=FLASHONLY|Rotation=90.000|XOffset=0mm|YOffset=0mm|HoleType=Round|Shape=RoundedRectangle|*
%AMROUNDEDRECTD59*
21,1,0.800,0.760,0,0,90.0*
21,1,0.560,1.000,0,0,90.0*
1,1,0.240,0.380,0.280*
1,1,0.240,0.380,-0.280*
1,1,0.240,-0.380,-0.280*
1,1,0.240,-0.380,0.280*
%
%ADD59ROUNDEDRECTD59*%
G04:AMPARAMS|DCode=60|XSize=0.85mm|YSize=1.06mm|CornerRadius=0.125mm|HoleSize=0mm|Usage=FLASHONLY|Rotation=90.000|XOffset=0mm|YOffset=0mm|HoleType=Round|Shape=RoundedRectangle|*
%AMROUNDEDRECTD60*
21,1,0.850,0.810,0,0,90.0*
21,1,0.600,1.060,0,0,90.0*
1,1,0.250,0.405,0.300*
1,1,0.250,0.405,-0.300*
1,1,0.250,-0.405,-0.300*
1,1,0.250,-0.405,0.300*
%
%ADD60ROUNDEDRECTD60*%
G36*
X-6075Y-9600D02*
X-7925D01*
Y-8400D01*
X-6075D01*
Y-9600D01*
D02*
G37*
D28*
X12685Y3000D02*
D03*
X11315D02*
D03*
X-6185Y5000D02*
D03*
X-4815D02*
D03*
X-6185Y3500D02*
D03*
X-4815Y3500D02*
D03*
X-8685Y6500D02*
D03*
X-7315D02*
D03*
X-8685Y5000D02*
D03*
X-7315D02*
D03*
X-8685Y3500D02*
D03*
X-7315D02*
D03*
X-6185Y6500D02*
D03*
X-4815D02*
D03*
D34*
X-13405Y2500D02*
D03*
X-13405Y0D02*
D03*
X-13405Y-2500D02*
D03*
D36*
X4054Y3500D02*
D03*
X2654D02*
D03*
X4054Y5000D02*
D03*
X2654D02*
D03*
X12700Y-5000D02*
D03*
X11300D02*
D03*
X700Y-3810D02*
D03*
X-700D02*
D03*
D40*
X-3810Y9500D02*
D03*
X-1270D02*
D03*
X1270D02*
D03*
D41*
X3810D02*
D03*
D42*
X14650Y0D02*
D03*
Y2500D02*
D03*
Y-2500D02*
D03*
Y-5000D02*
D03*
D43*
Y5000D02*
D03*
D44*
X9000Y10000D02*
D03*
X-9000D02*
D03*
X0Y-13000D02*
D03*
D58*
X6800Y-3405D02*
D03*
Y-2135D02*
D03*
Y-865D02*
D03*
Y405D02*
D03*
X12200Y-3405D02*
D03*
Y-2135D02*
D03*
Y-865D02*
D03*
Y405D02*
D03*
X-2700Y-1905D02*
D03*
Y-635D02*
D03*
Y635D02*
D03*
Y1905D02*
D03*
X2700Y-1905D02*
D03*
Y-635D02*
D03*
Y635D02*
D03*
Y1905D02*
D03*
D59*
X4500Y815D02*
D03*
Y2185D02*
D03*
Y-815D02*
D03*
Y-2185D02*
D03*
D60*
X-5000Y-10200D02*
D03*
Y-8800D02*
D03*
X-9000Y-10200D02*
D03*
X-9000Y-8800D02*
D03*
M02*
