G04*
G04 #@! TF.GenerationSoftware,Altium Limited,Altium Designer,23.3.1 (30)*
G04*
G04 Layer_Physical_Order=3*
G04 Layer_Color=16440176*
%FSLAX43Y43*%
%MOMM*%
G71*
G04*
G04 #@! TF.SameCoordinates,9844E55F-96F2-4D63-9416-53F8DD85CCA4*
G04*
G04*
G04 #@! TF.FilePolarity,Positive*
G04*
G01*
G75*
%ADD49C,1.925*%
%ADD53C,0.550*%
G36*
X1346Y15454D02*
X2464Y15316D01*
X3570Y15096D01*
X4657Y14797D01*
X5720Y14420D01*
X6752Y13966D01*
X7748Y13439D01*
X8704Y12841D01*
X9614Y12174D01*
X9846Y11977D01*
X9767Y11847D01*
X9644Y11898D01*
X9391Y11966D01*
X9131Y12000D01*
X8869D01*
X8609Y11966D01*
X8356Y11898D01*
X8114Y11798D01*
X7886Y11667D01*
X7678Y11507D01*
X7493Y11322D01*
X7333Y11114D01*
X7202Y10886D01*
X7102Y10644D01*
X7034Y10391D01*
X7000Y10131D01*
Y9869D01*
X7034Y9609D01*
X7102Y9356D01*
X7202Y9114D01*
X7333Y8886D01*
X7493Y8678D01*
X7678Y8493D01*
X7886Y8333D01*
X8114Y8202D01*
X8356Y8102D01*
X8609Y8034D01*
X8869Y8000D01*
X9131D01*
X9391Y8034D01*
X9644Y8102D01*
X9886Y8202D01*
X10114Y8333D01*
X10322Y8493D01*
X10507Y8678D01*
X10667Y8886D01*
X10798Y9114D01*
X10898Y9356D01*
X10966Y9609D01*
X11000Y9869D01*
Y10131D01*
X10966Y10391D01*
X10898Y10644D01*
X10798Y10886D01*
X10761Y10949D01*
X10881Y11042D01*
X11276Y10653D01*
X12020Y9806D01*
X12700Y8907D01*
X13314Y7961D01*
X13585Y7467D01*
X13631Y7413D01*
X13671Y7353D01*
X13695Y7337D01*
X13713Y7315D01*
X13777Y7282D01*
X13836Y7242D01*
X13864Y7237D01*
X13890Y7223D01*
X13961Y7217D01*
X14031Y7203D01*
X16419Y7198D01*
Y-7197D01*
X14021Y-7197D01*
X13951Y-7211D01*
X13879Y-7217D01*
X13854Y-7231D01*
X13826Y-7236D01*
X13767Y-7276D01*
X13703Y-7309D01*
X13685Y-7331D01*
X13661Y-7347D01*
X13621Y-7406D01*
X13575Y-7461D01*
X13303Y-7956D01*
X12690Y-8902D01*
X12009Y-9801D01*
X11264Y-10648D01*
X10461Y-11439D01*
X9601Y-12169D01*
X8691Y-12835D01*
X7735Y-13433D01*
X6738Y-13959D01*
X5705Y-14412D01*
X4642Y-14789D01*
X3555Y-15087D01*
X2449Y-15306D01*
X1329Y-15443D01*
X203Y-15499D01*
X-924Y-15473D01*
X-2047Y-15365D01*
X-3159Y-15175D01*
X-4253Y-14905D01*
X-5326Y-14557D01*
X-6370Y-14131D01*
X-7381Y-13631D01*
X-7620Y-13489D01*
Y-7575D01*
X-7475Y-7563D01*
X-7470Y-7581D01*
X-7443Y-7683D01*
X-7380Y-7792D01*
X-7292Y-7880D01*
X-7183Y-7943D01*
X-7063Y-7975D01*
X-6937D01*
X-6817Y-7943D01*
X-6708Y-7880D01*
X-6620Y-7792D01*
X-6557Y-7683D01*
X-6525Y-7563D01*
Y-7437D01*
X-6557Y-7317D01*
X-6620Y-7208D01*
X-6708Y-7120D01*
X-6817Y-7057D01*
X-6937Y-7025D01*
X-7063D01*
X-7183Y-7057D01*
X-7292Y-7120D01*
X-7380Y-7208D01*
X-7443Y-7317D01*
X-7470Y-7419D01*
X-7475Y-7437D01*
X-7620Y-7425D01*
Y-6371D01*
X-7582Y-6349D01*
X-7494Y-6261D01*
X-7431Y-6152D01*
X-7399Y-6032D01*
Y-5906D01*
X-7431Y-5786D01*
X-7494Y-5677D01*
X-7582Y-5589D01*
X-7620Y-5567D01*
Y8552D01*
X-7493Y8678D01*
X-7333Y8886D01*
X-7202Y9114D01*
X-7102Y9356D01*
X-7034Y9609D01*
X-7000Y9869D01*
Y10131D01*
X-7034Y10391D01*
X-7102Y10644D01*
X-7202Y10886D01*
X-7333Y11114D01*
X-7493Y11322D01*
X-7620Y11448D01*
Y13503D01*
X-7365Y13653D01*
X-6354Y14152D01*
X-5309Y14576D01*
X-4237Y14923D01*
X-3142Y15191D01*
X-2030Y15379D01*
X-908Y15486D01*
X220Y15511D01*
X1346Y15454D01*
D02*
G37*
G36*
X-7824Y13232D02*
Y11804D01*
X-7974Y11717D01*
X-8114Y11798D01*
X-8356Y11898D01*
X-8609Y11966D01*
X-8869Y12000D01*
X-9131D01*
X-9391Y11966D01*
X-9644Y11898D01*
X-9765Y11848D01*
X-9843Y11978D01*
X-9265Y12442D01*
X-8337Y13082D01*
X-7954Y13307D01*
X-7824Y13232D01*
D02*
G37*
G36*
X-10751Y10967D02*
X-10798Y10886D01*
X-10898Y10644D01*
X-10966Y10391D01*
X-11000Y10131D01*
Y9869D01*
X-10966Y9609D01*
X-10898Y9356D01*
X-10798Y9114D01*
X-10667Y8886D01*
X-10507Y8678D01*
X-10322Y8493D01*
X-10114Y8333D01*
X-9886Y8202D01*
X-9644Y8102D01*
X-9391Y8034D01*
X-9131Y8000D01*
X-8869D01*
X-8609Y8034D01*
X-8356Y8102D01*
X-8114Y8202D01*
X-7974Y8283D01*
X-7824Y8196D01*
Y2859D01*
X-7974Y2773D01*
X-8042Y2791D01*
X-8167D01*
X-8288Y2759D01*
X-8396Y2696D01*
X-8484Y2608D01*
X-8547Y2499D01*
X-8579Y2379D01*
Y2254D01*
X-8547Y2133D01*
X-8484Y2024D01*
X-8396Y1936D01*
X-8288Y1873D01*
X-8167Y1841D01*
X-8042D01*
X-7974Y1859D01*
X-7824Y1773D01*
Y-5494D01*
X-7937D01*
X-8057Y-5526D01*
X-8166Y-5589D01*
X-8254Y-5677D01*
X-8317Y-5786D01*
X-8349Y-5906D01*
Y-6032D01*
X-8317Y-6152D01*
X-8254Y-6261D01*
X-8166Y-6349D01*
X-8057Y-6412D01*
X-7937Y-6444D01*
X-7824D01*
Y-7425D01*
X-7818Y-7456D01*
X-7814Y-7488D01*
X-7810Y-7495D01*
X-7809Y-7500D01*
X-7810Y-7505D01*
X-7814Y-7512D01*
X-7818Y-7544D01*
X-7824Y-7575D01*
Y-13218D01*
X-7954Y-13292D01*
X-8352Y-13058D01*
X-9279Y-12416D01*
X-10157Y-11709D01*
X-10982Y-10939D01*
X-11748Y-10112D01*
X-12452Y-9231D01*
X-13090Y-8301D01*
X-13659Y-7328D01*
X-13785Y-7072D01*
X-13680Y-6944D01*
X-13652Y-6952D01*
X-13526D01*
X-13406Y-6920D01*
X-13297Y-6857D01*
X-13209Y-6769D01*
X-13146Y-6660D01*
X-13114Y-6540D01*
Y-6414D01*
X-13146Y-6294D01*
X-13209Y-6185D01*
X-13297Y-6097D01*
X-13377Y-6051D01*
X-13393Y-5969D01*
X-13377Y-5887D01*
X-13297Y-5841D01*
X-13209Y-5753D01*
X-13146Y-5644D01*
X-13114Y-5524D01*
Y-5398D01*
X-13146Y-5278D01*
X-13209Y-5169D01*
X-13297Y-5081D01*
X-13377Y-5035D01*
X-13393Y-4953D01*
X-13377Y-4871D01*
X-13297Y-4825D01*
X-13209Y-4737D01*
X-13146Y-4628D01*
X-13114Y-4508D01*
Y-4382D01*
X-13146Y-4262D01*
X-13209Y-4153D01*
X-13297Y-4065D01*
X-13406Y-4002D01*
X-13526Y-3970D01*
X-13652D01*
X-13772Y-4002D01*
X-13881Y-4065D01*
X-13969Y-4153D01*
X-14032Y-4262D01*
X-14064Y-4382D01*
Y-4508D01*
X-14032Y-4628D01*
X-13969Y-4737D01*
X-13881Y-4825D01*
X-13801Y-4871D01*
X-13785Y-4953D01*
X-13801Y-5035D01*
X-13881Y-5081D01*
X-13969Y-5169D01*
X-14032Y-5278D01*
X-14064Y-5398D01*
Y-5524D01*
X-14032Y-5644D01*
X-13969Y-5753D01*
X-13881Y-5841D01*
X-13801Y-5887D01*
X-13785Y-5969D01*
X-13801Y-6051D01*
X-13881Y-6097D01*
X-13969Y-6185D01*
X-14014Y-6263D01*
X-14029Y-6269D01*
X-14110Y-6276D01*
X-14178Y-6260D01*
X-14577Y-5269D01*
X-14725Y-4808D01*
X-14725Y-3766D01*
X-14578Y-3650D01*
X-14575Y-3650D01*
X-14433D01*
X-14293Y-3613D01*
X-14167Y-3540D01*
X-14065Y-3438D01*
X-14042Y-3397D01*
X-13868D01*
X-13845Y-3438D01*
X-13743Y-3540D01*
X-13617Y-3613D01*
X-13477Y-3650D01*
X-13333D01*
X-13193Y-3613D01*
X-13067Y-3540D01*
X-12965Y-3438D01*
X-12942Y-3397D01*
X-12768D01*
X-12745Y-3438D01*
X-12643Y-3540D01*
X-12517Y-3613D01*
X-12377Y-3650D01*
X-12233D01*
X-12093Y-3613D01*
X-11967Y-3540D01*
X-11865Y-3438D01*
X-11792Y-3312D01*
X-11755Y-3172D01*
Y-3028D01*
X-11792Y-2888D01*
X-11843Y-2800D01*
X-11792Y-2712D01*
X-11755Y-2572D01*
Y-2428D01*
X-11792Y-2288D01*
X-11843Y-2200D01*
X-11792Y-2112D01*
X-11755Y-1972D01*
Y-1828D01*
X-11792Y-1688D01*
X-11865Y-1562D01*
X-11967Y-1460D01*
X-12093Y-1387D01*
X-12233Y-1350D01*
X-12377D01*
X-12517Y-1387D01*
X-12643Y-1460D01*
X-12745Y-1562D01*
X-12768Y-1603D01*
X-12942D01*
X-12965Y-1562D01*
X-13067Y-1460D01*
X-13193Y-1387D01*
X-13333Y-1350D01*
X-13477D01*
X-13617Y-1387D01*
X-13743Y-1460D01*
X-13845Y-1562D01*
X-13868Y-1603D01*
X-14042D01*
X-14065Y-1562D01*
X-14167Y-1460D01*
X-14293Y-1387D01*
X-14433Y-1350D01*
X-14470D01*
X-14609Y-1213D01*
X-14609Y-1175D01*
X-14578Y-1150D01*
X-14575Y-1150D01*
X-14433D01*
X-14293Y-1113D01*
X-14167Y-1040D01*
X-14065Y-938D01*
X-14042Y-897D01*
X-13868D01*
X-13845Y-938D01*
X-13743Y-1040D01*
X-13617Y-1113D01*
X-13477Y-1150D01*
X-13333D01*
X-13193Y-1113D01*
X-13067Y-1040D01*
X-12965Y-938D01*
X-12942Y-897D01*
X-12768D01*
X-12745Y-938D01*
X-12643Y-1040D01*
X-12517Y-1113D01*
X-12377Y-1150D01*
X-12233D01*
X-12093Y-1113D01*
X-11967Y-1040D01*
X-11865Y-938D01*
X-11792Y-812D01*
X-11755Y-672D01*
Y-528D01*
X-11792Y-388D01*
X-11843Y-300D01*
X-11792Y-212D01*
X-11755Y-72D01*
Y72D01*
X-11792Y212D01*
X-11843Y300D01*
X-11792Y388D01*
X-11755Y528D01*
Y672D01*
X-11792Y812D01*
X-11865Y938D01*
X-11967Y1040D01*
X-12093Y1113D01*
X-12233Y1150D01*
X-12377D01*
X-12517Y1113D01*
X-12643Y1040D01*
X-12745Y938D01*
X-12768Y897D01*
X-12942D01*
X-12965Y938D01*
X-13067Y1040D01*
X-13193Y1113D01*
X-13333Y1150D01*
X-13477D01*
X-13617Y1113D01*
X-13743Y1040D01*
X-13845Y938D01*
X-13868Y897D01*
X-14042D01*
X-14065Y938D01*
X-14167Y1040D01*
X-14293Y1113D01*
X-14433Y1150D01*
X-14577D01*
X-14609Y1175D01*
Y1214D01*
X-14470Y1350D01*
X-14433D01*
X-14293Y1387D01*
X-14167Y1460D01*
X-14065Y1562D01*
X-14042Y1603D01*
X-13868D01*
X-13845Y1562D01*
X-13743Y1460D01*
X-13617Y1387D01*
X-13477Y1350D01*
X-13333D01*
X-13193Y1387D01*
X-13067Y1460D01*
X-12965Y1562D01*
X-12942Y1603D01*
X-12768D01*
X-12745Y1562D01*
X-12643Y1460D01*
X-12517Y1387D01*
X-12377Y1350D01*
X-12233D01*
X-12093Y1387D01*
X-11967Y1460D01*
X-11865Y1562D01*
X-11792Y1688D01*
X-11755Y1828D01*
Y1972D01*
X-11792Y2112D01*
X-11843Y2200D01*
X-11792Y2288D01*
X-11755Y2428D01*
Y2572D01*
X-11792Y2712D01*
X-11843Y2800D01*
X-11792Y2888D01*
X-11755Y3028D01*
Y3172D01*
X-11792Y3312D01*
X-11865Y3438D01*
X-11967Y3540D01*
X-12093Y3613D01*
X-12233Y3650D01*
X-12377D01*
X-12517Y3613D01*
X-12643Y3540D01*
X-12745Y3438D01*
X-12768Y3397D01*
X-12942D01*
X-12965Y3438D01*
X-13067Y3540D01*
X-13193Y3613D01*
X-13333Y3650D01*
X-13477D01*
X-13617Y3613D01*
X-13743Y3540D01*
X-13845Y3438D01*
X-13868Y3397D01*
X-14042D01*
X-14065Y3438D01*
X-14167Y3540D01*
X-14293Y3613D01*
X-14433Y3650D01*
X-14577D01*
X-14725Y3766D01*
X-14725Y4847D01*
X-14577Y5307D01*
X-14153Y6352D01*
X-13654Y7363D01*
X-13083Y8335D01*
X-12443Y9263D01*
X-11738Y10142D01*
X-10970Y10968D01*
X-10870Y11061D01*
X-10751Y10967D01*
D02*
G37*
%LPC*%
G36*
X1361Y10663D02*
X1179D01*
X998Y10634D01*
X824Y10577D01*
X661Y10494D01*
X513Y10387D01*
X383Y10257D01*
X276Y10109D01*
X193Y9946D01*
X136Y9772D01*
X108Y9591D01*
Y9409D01*
X136Y9228D01*
X193Y9054D01*
X276Y8891D01*
X383Y8743D01*
X513Y8613D01*
X661Y8506D01*
X824Y8423D01*
X998Y8366D01*
X1179Y8337D01*
X1361D01*
X1542Y8366D01*
X1716Y8423D01*
X1879Y8506D01*
X2027Y8613D01*
X2157Y8743D01*
X2264Y8891D01*
X2347Y9054D01*
X2404Y9228D01*
X2432Y9409D01*
Y9591D01*
X2404Y9772D01*
X2347Y9946D01*
X2264Y10109D01*
X2157Y10257D01*
X2027Y10387D01*
X1879Y10494D01*
X1716Y10577D01*
X1542Y10634D01*
X1361Y10663D01*
D02*
G37*
G36*
X-1179D02*
X-1361D01*
X-1542Y10634D01*
X-1716Y10577D01*
X-1879Y10494D01*
X-2027Y10387D01*
X-2157Y10257D01*
X-2264Y10109D01*
X-2347Y9946D01*
X-2404Y9772D01*
X-2432Y9591D01*
Y9409D01*
X-2404Y9228D01*
X-2347Y9054D01*
X-2264Y8891D01*
X-2157Y8743D01*
X-2027Y8613D01*
X-1879Y8506D01*
X-1716Y8423D01*
X-1542Y8366D01*
X-1361Y8337D01*
X-1179D01*
X-998Y8366D01*
X-824Y8423D01*
X-661Y8506D01*
X-513Y8613D01*
X-383Y8743D01*
X-276Y8891D01*
X-193Y9054D01*
X-136Y9228D01*
X-108Y9409D01*
Y9591D01*
X-136Y9772D01*
X-193Y9946D01*
X-276Y10109D01*
X-383Y10257D01*
X-513Y10387D01*
X-661Y10494D01*
X-824Y10577D01*
X-998Y10634D01*
X-1179Y10663D01*
D02*
G37*
G36*
X4580Y10666D02*
X3040D01*
X2938Y10652D01*
X2842Y10613D01*
X2760Y10550D01*
X2697Y10468D01*
X2658Y10372D01*
X2644Y10270D01*
Y8730D01*
X2658Y8628D01*
X2697Y8532D01*
X2760Y8450D01*
X2842Y8387D01*
X2938Y8348D01*
X3040Y8334D01*
X4580D01*
X4682Y8348D01*
X4778Y8387D01*
X4860Y8450D01*
X4923Y8532D01*
X4962Y8628D01*
X4976Y8730D01*
Y10270D01*
X4962Y10372D01*
X4923Y10468D01*
X4860Y10550D01*
X4778Y10613D01*
X4682Y10652D01*
X4580Y10666D01*
D02*
G37*
G36*
X-1437Y5975D02*
X-1563D01*
X-1683Y5943D01*
X-1792Y5880D01*
X-1880Y5792D01*
X-1943Y5683D01*
X-1975Y5563D01*
Y5437D01*
X-1943Y5317D01*
X-1880Y5208D01*
X-1792Y5120D01*
X-1683Y5057D01*
X-1563Y5025D01*
X-1437D01*
X-1317Y5057D01*
X-1208Y5120D01*
X-1120Y5208D01*
X-1057Y5317D01*
X-1025Y5437D01*
Y5563D01*
X-1057Y5683D01*
X-1120Y5792D01*
X-1208Y5880D01*
X-1317Y5943D01*
X-1437Y5975D01*
D02*
G37*
G36*
X1888Y5475D02*
X1762D01*
X1642Y5443D01*
X1533Y5380D01*
X1445Y5292D01*
X1382Y5183D01*
X1350Y5063D01*
Y4937D01*
X1382Y4817D01*
X1445Y4708D01*
X1533Y4620D01*
X1642Y4557D01*
X1762Y4525D01*
X1888D01*
X2008Y4557D01*
X2117Y4620D01*
X2205Y4708D01*
X2268Y4817D01*
X2300Y4937D01*
Y5063D01*
X2268Y5183D01*
X2205Y5292D01*
X2117Y5380D01*
X2008Y5443D01*
X1888Y5475D01*
D02*
G37*
G36*
X15250Y5953D02*
X14050D01*
X13959Y5941D01*
X13873Y5906D01*
X13800Y5850D01*
X13744Y5777D01*
X13709Y5691D01*
X13697Y5600D01*
Y4400D01*
X13709Y4309D01*
X13744Y4223D01*
X13800Y4150D01*
X13873Y4094D01*
X13959Y4059D01*
X14050Y4047D01*
X15250D01*
X15341Y4059D01*
X15427Y4094D01*
X15500Y4150D01*
X15556Y4223D01*
X15591Y4309D01*
X15603Y4400D01*
Y5600D01*
X15591Y5691D01*
X15556Y5777D01*
X15500Y5850D01*
X15427Y5906D01*
X15341Y5941D01*
X15250Y5953D01*
D02*
G37*
G36*
X10063Y4975D02*
X9937D01*
X9817Y4943D01*
X9708Y4880D01*
X9620Y4792D01*
X9557Y4683D01*
X9525Y4563D01*
Y4437D01*
X9557Y4317D01*
X9620Y4208D01*
X9708Y4120D01*
X9817Y4057D01*
X9937Y4025D01*
X10063D01*
X10183Y4057D01*
X10292Y4120D01*
X10380Y4208D01*
X10443Y4317D01*
X10475Y4437D01*
Y4563D01*
X10443Y4683D01*
X10380Y4792D01*
X10292Y4880D01*
X10183Y4943D01*
X10063Y4975D01*
D02*
G37*
G36*
X-2637Y3475D02*
X-2763D01*
X-2883Y3443D01*
X-2992Y3380D01*
X-3080Y3292D01*
X-3143Y3183D01*
X-3175Y3063D01*
Y2937D01*
X-3143Y2817D01*
X-3080Y2708D01*
X-2992Y2620D01*
X-2883Y2557D01*
X-2763Y2525D01*
X-2637D01*
X-2517Y2557D01*
X-2408Y2620D01*
X-2320Y2708D01*
X-2257Y2817D01*
X-2225Y2937D01*
Y3063D01*
X-2257Y3183D01*
X-2320Y3292D01*
X-2408Y3380D01*
X-2517Y3443D01*
X-2637Y3475D01*
D02*
G37*
G36*
X14744Y3450D02*
X14556D01*
X14373Y3413D01*
X14200Y3342D01*
X14044Y3238D01*
X13912Y3106D01*
X13808Y2950D01*
X13737Y2777D01*
X13700Y2594D01*
Y2406D01*
X13737Y2223D01*
X13808Y2050D01*
X13912Y1894D01*
X14044Y1762D01*
X14200Y1658D01*
X14373Y1587D01*
X14556Y1550D01*
X14744D01*
X14927Y1587D01*
X15100Y1658D01*
X15256Y1762D01*
X15388Y1894D01*
X15492Y2050D01*
X15563Y2223D01*
X15600Y2406D01*
Y2594D01*
X15563Y2777D01*
X15492Y2950D01*
X15388Y3106D01*
X15256Y3238D01*
X15100Y3342D01*
X14927Y3413D01*
X14744Y3450D01*
D02*
G37*
G36*
X5517Y2494D02*
X5392D01*
X5271Y2462D01*
X5163Y2399D01*
X5075Y2311D01*
X5012Y2202D01*
X4980Y2081D01*
Y1956D01*
X5012Y1836D01*
X5075Y1727D01*
X5163Y1639D01*
X5271Y1576D01*
X5392Y1544D01*
X5517D01*
X5638Y1576D01*
X5746Y1639D01*
X5835Y1727D01*
X5897Y1836D01*
X5930Y1956D01*
Y2081D01*
X5897Y2202D01*
X5835Y2311D01*
X5746Y2399D01*
X5638Y2462D01*
X5517Y2494D01*
D02*
G37*
G36*
X12263Y2177D02*
X12137D01*
X12017Y2145D01*
X11908Y2082D01*
X11820Y1994D01*
X11757Y1885D01*
X11725Y1765D01*
Y1639D01*
X11757Y1519D01*
X11820Y1410D01*
X11908Y1322D01*
X12017Y1259D01*
X12137Y1227D01*
X12263D01*
X12383Y1259D01*
X12492Y1322D01*
X12580Y1410D01*
X12643Y1519D01*
X12675Y1639D01*
Y1765D01*
X12643Y1885D01*
X12580Y1994D01*
X12492Y2082D01*
X12383Y2145D01*
X12263Y2177D01*
D02*
G37*
G36*
X6563Y1975D02*
X6437D01*
X6317Y1943D01*
X6208Y1880D01*
X6120Y1792D01*
X6057Y1683D01*
X6025Y1563D01*
Y1437D01*
X6057Y1317D01*
X6120Y1208D01*
X6208Y1120D01*
X6317Y1057D01*
X6437Y1025D01*
X6563D01*
X6683Y1057D01*
X6792Y1120D01*
X6880Y1208D01*
X6943Y1317D01*
X6975Y1437D01*
Y1563D01*
X6943Y1683D01*
X6880Y1792D01*
X6792Y1880D01*
X6683Y1943D01*
X6563Y1975D01*
D02*
G37*
G36*
X8038Y880D02*
X7912D01*
X7792Y848D01*
X7683Y785D01*
X7595Y697D01*
X7532Y588D01*
X7500Y468D01*
Y342D01*
X7532Y222D01*
X7595Y113D01*
X7683Y25D01*
X7792Y-38D01*
X7912Y-70D01*
X8038D01*
X8158Y-38D01*
X8267Y25D01*
X8355Y113D01*
X8418Y222D01*
X8450Y342D01*
Y468D01*
X8418Y588D01*
X8355Y697D01*
X8267Y785D01*
X8158Y848D01*
X8038Y880D01*
D02*
G37*
G36*
X14744Y950D02*
X14556D01*
X14373Y913D01*
X14200Y842D01*
X14044Y738D01*
X13912Y606D01*
X13808Y450D01*
X13737Y277D01*
X13700Y94D01*
Y-94D01*
X13737Y-277D01*
X13808Y-450D01*
X13912Y-606D01*
X14044Y-738D01*
X14200Y-842D01*
X14373Y-913D01*
X14556Y-950D01*
X14744D01*
X14927Y-913D01*
X15100Y-842D01*
X15256Y-738D01*
X15388Y-606D01*
X15492Y-450D01*
X15563Y-277D01*
X15600Y-94D01*
Y94D01*
X15563Y277D01*
X15492Y450D01*
X15388Y606D01*
X15256Y738D01*
X15100Y842D01*
X14927Y913D01*
X14744Y950D01*
D02*
G37*
G36*
X-5525Y1110D02*
X-5651D01*
X-5771Y1078D01*
X-5880Y1015D01*
X-5968Y927D01*
X-6031Y818D01*
X-6063Y698D01*
Y572D01*
X-6031Y452D01*
X-5968Y343D01*
X-5880Y255D01*
X-5771Y192D01*
X-5651Y160D01*
X-5557D01*
X-5484Y104D01*
X-5428Y31D01*
Y-31D01*
X-5484Y-104D01*
X-5557Y-160D01*
X-5651D01*
X-5771Y-192D01*
X-5880Y-255D01*
X-5968Y-343D01*
X-6031Y-452D01*
X-6063Y-572D01*
Y-698D01*
X-6031Y-818D01*
X-5968Y-927D01*
X-5880Y-1015D01*
X-5771Y-1078D01*
X-5651Y-1110D01*
X-5525D01*
X-5405Y-1078D01*
X-5296Y-1015D01*
X-5208Y-927D01*
X-5145Y-818D01*
X-5113Y-698D01*
Y-604D01*
X-5057Y-531D01*
X-4984Y-475D01*
X-4890D01*
X-4770Y-443D01*
X-4661Y-380D01*
X-4573Y-292D01*
X-4510Y-183D01*
X-4478Y-63D01*
Y63D01*
X-4510Y183D01*
X-4573Y292D01*
X-4661Y380D01*
X-4770Y443D01*
X-4890Y475D01*
X-4984D01*
X-5057Y531D01*
X-5113Y604D01*
Y698D01*
X-5145Y818D01*
X-5208Y927D01*
X-5296Y1015D01*
X-5405Y1078D01*
X-5525Y1110D01*
D02*
G37*
G36*
X8038Y-390D02*
X7912D01*
X7792Y-422D01*
X7683Y-485D01*
X7595Y-573D01*
X7532Y-682D01*
X7500Y-802D01*
Y-928D01*
X7532Y-1048D01*
X7595Y-1157D01*
X7683Y-1245D01*
X7792Y-1308D01*
X7912Y-1340D01*
X8038D01*
X8158Y-1308D01*
X8267Y-1245D01*
X8355Y-1157D01*
X8418Y-1048D01*
X8450Y-928D01*
Y-802D01*
X8418Y-682D01*
X8355Y-573D01*
X8267Y-485D01*
X8158Y-422D01*
X8038Y-390D01*
D02*
G37*
G36*
X14744Y-1550D02*
X14556D01*
X14373Y-1587D01*
X14200Y-1658D01*
X14044Y-1762D01*
X13912Y-1894D01*
X13808Y-2050D01*
X13737Y-2223D01*
X13700Y-2406D01*
Y-2594D01*
X13737Y-2777D01*
X13808Y-2950D01*
X13912Y-3106D01*
X14044Y-3238D01*
X14200Y-3342D01*
X14373Y-3413D01*
X14556Y-3450D01*
X14744D01*
X14927Y-3413D01*
X15100Y-3342D01*
X15256Y-3238D01*
X15388Y-3106D01*
X15492Y-2950D01*
X15563Y-2777D01*
X15600Y-2594D01*
Y-2406D01*
X15563Y-2223D01*
X15492Y-2050D01*
X15388Y-1894D01*
X15256Y-1762D01*
X15100Y-1658D01*
X14927Y-1587D01*
X14744Y-1550D01*
D02*
G37*
G36*
X-4382Y-2700D02*
X-4508D01*
X-4628Y-2732D01*
X-4737Y-2795D01*
X-4825Y-2883D01*
X-4888Y-2992D01*
X-4920Y-3112D01*
Y-3238D01*
X-4888Y-3358D01*
X-4825Y-3467D01*
X-4737Y-3555D01*
X-4628Y-3618D01*
X-4508Y-3650D01*
X-4382D01*
X-4262Y-3618D01*
X-4153Y-3555D01*
X-4065Y-3467D01*
X-4002Y-3358D01*
X-3970Y-3238D01*
Y-3112D01*
X-4002Y-2992D01*
X-4065Y-2883D01*
X-4153Y-2795D01*
X-4262Y-2732D01*
X-4382Y-2700D01*
D02*
G37*
G36*
X8038Y-2930D02*
X7912D01*
X7792Y-2962D01*
X7683Y-3025D01*
X7595Y-3113D01*
X7532Y-3222D01*
X7500Y-3342D01*
Y-3468D01*
X7532Y-3588D01*
X7595Y-3697D01*
X7683Y-3785D01*
X7792Y-3848D01*
X7912Y-3880D01*
X8038D01*
X8158Y-3848D01*
X8267Y-3785D01*
X8355Y-3697D01*
X8418Y-3588D01*
X8450Y-3468D01*
Y-3342D01*
X8418Y-3222D01*
X8355Y-3113D01*
X8267Y-3025D01*
X8158Y-2962D01*
X8038Y-2930D01*
D02*
G37*
G36*
X4488Y-3272D02*
X4362D01*
X4242Y-3304D01*
X4133Y-3366D01*
X4045Y-3455D01*
X3982Y-3563D01*
X3950Y-3684D01*
Y-3809D01*
X3982Y-3930D01*
X4045Y-4038D01*
X4133Y-4127D01*
X4242Y-4189D01*
X4362Y-4221D01*
X4488D01*
X4608Y-4189D01*
X4717Y-4127D01*
X4805Y-4038D01*
X4868Y-3930D01*
X4900Y-3809D01*
Y-3684D01*
X4868Y-3563D01*
X4805Y-3455D01*
X4717Y-3366D01*
X4608Y-3304D01*
X4488Y-3272D01*
D02*
G37*
G36*
X-1964Y-4027D02*
X-2089D01*
X-2210Y-4060D01*
X-2318Y-4122D01*
X-2406Y-4211D01*
X-2469Y-4319D01*
X-2501Y-4440D01*
Y-4565D01*
X-2469Y-4686D01*
X-2406Y-4794D01*
X-2318Y-4882D01*
X-2210Y-4945D01*
X-2089Y-4977D01*
X-1964D01*
X-1843Y-4945D01*
X-1735Y-4882D01*
X-1646Y-4794D01*
X-1584Y-4686D01*
X-1551Y-4565D01*
Y-4440D01*
X-1584Y-4319D01*
X-1646Y-4211D01*
X-1735Y-4122D01*
X-1843Y-4060D01*
X-1964Y-4027D01*
D02*
G37*
G36*
X3188Y-3272D02*
X3062D01*
X2942Y-3304D01*
X2833Y-3366D01*
X2745Y-3455D01*
X2682Y-3563D01*
X2650Y-3684D01*
Y-3809D01*
X2682Y-3930D01*
X2745Y-4038D01*
X2761Y-4054D01*
X2820Y-4151D01*
X2761Y-4258D01*
X2750Y-4270D01*
X2687Y-4378D01*
X2655Y-4499D01*
Y-4624D01*
X2687Y-4745D01*
X2750Y-4853D01*
X2838Y-4942D01*
X2946Y-5004D01*
X3067Y-5036D01*
X3192D01*
X3313Y-5004D01*
X3421Y-4942D01*
X3510Y-4853D01*
X3572Y-4745D01*
X3605Y-4624D01*
Y-4499D01*
X3572Y-4378D01*
X3510Y-4270D01*
X3494Y-4254D01*
X3435Y-4157D01*
X3493Y-4050D01*
X3505Y-4038D01*
X3568Y-3930D01*
X3600Y-3809D01*
Y-3684D01*
X3568Y-3563D01*
X3505Y-3455D01*
X3417Y-3366D01*
X3308Y-3304D01*
X3188Y-3272D01*
D02*
G37*
G36*
X763Y-4224D02*
X637D01*
X517Y-4256D01*
X408Y-4319D01*
X320Y-4407D01*
X257Y-4516D01*
X225Y-4636D01*
Y-4762D01*
X257Y-4882D01*
X320Y-4991D01*
X408Y-5079D01*
X517Y-5142D01*
X637Y-5174D01*
X763D01*
X883Y-5142D01*
X992Y-5079D01*
X1080Y-4991D01*
X1143Y-4882D01*
X1175Y-4762D01*
Y-4636D01*
X1143Y-4516D01*
X1080Y-4407D01*
X992Y-4319D01*
X883Y-4256D01*
X763Y-4224D01*
D02*
G37*
G36*
X7063Y-4525D02*
X6937D01*
X6817Y-4557D01*
X6708Y-4620D01*
X6620Y-4708D01*
X6557Y-4817D01*
X6525Y-4937D01*
Y-5063D01*
X6557Y-5183D01*
X6620Y-5292D01*
X6708Y-5380D01*
X6817Y-5443D01*
X6937Y-5475D01*
X7063D01*
X7183Y-5443D01*
X7292Y-5380D01*
X7380Y-5292D01*
X7443Y-5183D01*
X7475Y-5063D01*
Y-4937D01*
X7443Y-4817D01*
X7380Y-4708D01*
X7292Y-4620D01*
X7183Y-4557D01*
X7063Y-4525D01*
D02*
G37*
G36*
X14744Y-4050D02*
X14556D01*
X14373Y-4087D01*
X14200Y-4158D01*
X14044Y-4262D01*
X13912Y-4394D01*
X13808Y-4550D01*
X13737Y-4723D01*
X13700Y-4906D01*
Y-5094D01*
X13737Y-5277D01*
X13808Y-5450D01*
X13912Y-5606D01*
X14044Y-5738D01*
X14200Y-5842D01*
X14373Y-5913D01*
X14556Y-5950D01*
X14744D01*
X14927Y-5913D01*
X15100Y-5842D01*
X15256Y-5738D01*
X15388Y-5606D01*
X15492Y-5450D01*
X15563Y-5277D01*
X15600Y-5094D01*
Y-4906D01*
X15563Y-4723D01*
X15492Y-4550D01*
X15388Y-4394D01*
X15256Y-4262D01*
X15100Y-4158D01*
X14927Y-4087D01*
X14744Y-4050D01*
D02*
G37*
G36*
X-2247Y-5494D02*
X-2373D01*
X-2493Y-5526D01*
X-2602Y-5589D01*
X-2690Y-5677D01*
X-2753Y-5786D01*
X-2785Y-5906D01*
Y-6032D01*
X-2753Y-6152D01*
X-2690Y-6261D01*
X-2602Y-6349D01*
X-2493Y-6412D01*
X-2373Y-6444D01*
X-2247D01*
X-2127Y-6412D01*
X-2018Y-6349D01*
X-1930Y-6261D01*
X-1867Y-6152D01*
X-1835Y-6032D01*
Y-5906D01*
X-1867Y-5786D01*
X-1930Y-5677D01*
X-2018Y-5589D01*
X-2127Y-5526D01*
X-2247Y-5494D01*
D02*
G37*
G36*
X-5437Y-7025D02*
X-5563D01*
X-5683Y-7057D01*
X-5792Y-7120D01*
X-5880Y-7208D01*
X-5943Y-7317D01*
X-5975Y-7437D01*
Y-7563D01*
X-5943Y-7683D01*
X-5880Y-7792D01*
X-5792Y-7880D01*
X-5683Y-7943D01*
X-5563Y-7975D01*
X-5437D01*
X-5317Y-7943D01*
X-5208Y-7880D01*
X-5120Y-7792D01*
X-5057Y-7683D01*
X-5025Y-7563D01*
Y-7437D01*
X-5057Y-7317D01*
X-5120Y-7208D01*
X-5208Y-7120D01*
X-5317Y-7057D01*
X-5437Y-7025D01*
D02*
G37*
G36*
X1752Y-7525D02*
X1627D01*
X1506Y-7557D01*
X1398Y-7620D01*
X1309Y-7708D01*
X1247Y-7817D01*
X1214Y-7937D01*
Y-8063D01*
X1247Y-8183D01*
X1309Y-8292D01*
X1398Y-8380D01*
X1506Y-8443D01*
X1627Y-8475D01*
X1752D01*
X1873Y-8443D01*
X1981Y-8380D01*
X2069Y-8292D01*
X2132Y-8183D01*
X2164Y-8063D01*
Y-7937D01*
X2132Y-7817D01*
X2069Y-7708D01*
X1981Y-7620D01*
X1873Y-7557D01*
X1752Y-7525D01*
D02*
G37*
G36*
X-4937Y-10525D02*
X-5063D01*
X-5183Y-10557D01*
X-5292Y-10620D01*
X-5380Y-10708D01*
X-5443Y-10817D01*
X-5475Y-10937D01*
Y-11063D01*
X-5443Y-11183D01*
X-5380Y-11292D01*
X-5292Y-11380D01*
X-5183Y-11443D01*
X-5063Y-11475D01*
X-4937D01*
X-4817Y-11443D01*
X-4708Y-11380D01*
X-4620Y-11292D01*
X-4557Y-11183D01*
X-4525Y-11063D01*
Y-10937D01*
X-4557Y-10817D01*
X-4620Y-10708D01*
X-4708Y-10620D01*
X-4817Y-10557D01*
X-4937Y-10525D01*
D02*
G37*
G36*
X131Y-11000D02*
X-131D01*
X-391Y-11034D01*
X-644Y-11102D01*
X-886Y-11202D01*
X-1114Y-11333D01*
X-1322Y-11493D01*
X-1507Y-11678D01*
X-1667Y-11886D01*
X-1798Y-12114D01*
X-1898Y-12356D01*
X-1966Y-12609D01*
X-2000Y-12869D01*
Y-13131D01*
X-1966Y-13391D01*
X-1898Y-13644D01*
X-1798Y-13886D01*
X-1667Y-14114D01*
X-1507Y-14322D01*
X-1322Y-14507D01*
X-1114Y-14667D01*
X-886Y-14798D01*
X-644Y-14898D01*
X-391Y-14966D01*
X-131Y-15000D01*
X131D01*
X391Y-14966D01*
X644Y-14898D01*
X886Y-14798D01*
X1114Y-14667D01*
X1322Y-14507D01*
X1507Y-14322D01*
X1667Y-14114D01*
X1798Y-13886D01*
X1898Y-13644D01*
X1966Y-13391D01*
X2000Y-13131D01*
Y-12869D01*
X1966Y-12609D01*
X1898Y-12356D01*
X1798Y-12114D01*
X1667Y-11886D01*
X1507Y-11678D01*
X1322Y-11493D01*
X1114Y-11333D01*
X886Y-11202D01*
X644Y-11102D01*
X391Y-11034D01*
X131Y-11000D01*
D02*
G37*
G36*
X-9437Y5475D02*
X-9563D01*
X-9683Y5443D01*
X-9792Y5380D01*
X-9880Y5292D01*
X-9943Y5183D01*
X-9975Y5063D01*
Y4937D01*
X-9943Y4817D01*
X-9880Y4708D01*
X-9792Y4620D01*
X-9683Y4557D01*
X-9563Y4525D01*
X-9437D01*
X-9317Y4557D01*
X-9208Y4620D01*
X-9120Y4708D01*
X-9057Y4817D01*
X-9025Y4937D01*
Y5063D01*
X-9057Y5183D01*
X-9120Y5292D01*
X-9208Y5380D01*
X-9317Y5443D01*
X-9437Y5475D01*
D02*
G37*
G36*
X-10859Y1999D02*
X-10985D01*
X-11105Y1967D01*
X-11214Y1904D01*
X-11302Y1816D01*
X-11365Y1707D01*
X-11397Y1587D01*
Y1461D01*
X-11365Y1341D01*
X-11302Y1232D01*
X-11214Y1144D01*
X-11105Y1081D01*
X-10985Y1049D01*
X-10859D01*
X-10739Y1081D01*
X-10630Y1144D01*
X-10542Y1232D01*
X-10479Y1341D01*
X-10447Y1461D01*
Y1587D01*
X-10479Y1707D01*
X-10542Y1816D01*
X-10630Y1904D01*
X-10739Y1967D01*
X-10859Y1999D01*
D02*
G37*
G36*
Y-1049D02*
X-10985D01*
X-11105Y-1081D01*
X-11214Y-1144D01*
X-11302Y-1232D01*
X-11365Y-1341D01*
X-11397Y-1461D01*
Y-1587D01*
X-11365Y-1707D01*
X-11302Y-1816D01*
X-11214Y-1904D01*
X-11105Y-1967D01*
X-10985Y-1999D01*
X-10859D01*
X-10739Y-1967D01*
X-10630Y-1904D01*
X-10542Y-1816D01*
X-10479Y-1707D01*
X-10447Y-1587D01*
Y-1461D01*
X-10479Y-1341D01*
X-10542Y-1232D01*
X-10630Y-1144D01*
X-10739Y-1081D01*
X-10859Y-1049D01*
D02*
G37*
G36*
X-8937Y-10525D02*
X-9063D01*
X-9183Y-10557D01*
X-9292Y-10620D01*
X-9380Y-10708D01*
X-9443Y-10817D01*
X-9475Y-10937D01*
Y-11063D01*
X-9443Y-11183D01*
X-9380Y-11292D01*
X-9292Y-11380D01*
X-9183Y-11443D01*
X-9063Y-11475D01*
X-8937D01*
X-8817Y-11443D01*
X-8708Y-11380D01*
X-8620Y-11292D01*
X-8557Y-11183D01*
X-8525Y-11063D01*
Y-10937D01*
X-8557Y-10817D01*
X-8620Y-10708D01*
X-8708Y-10620D01*
X-8817Y-10557D01*
X-8937Y-10525D01*
D02*
G37*
%LPD*%
D49*
X-3810Y9500D02*
D03*
D53*
X-8763Y-4445D02*
D03*
X-8500Y-7500D02*
D03*
X-11000Y7500D02*
D03*
X-11500Y7000D02*
D03*
X-12000Y6500D02*
D03*
X-12500Y6000D02*
D03*
X5332Y-2868D02*
D03*
X10000Y3000D02*
D03*
X3385Y6111D02*
D03*
X-4952Y1898D02*
D03*
X-8763Y-6477D02*
D03*
Y-5461D02*
D03*
X-700Y-4699D02*
D03*
X-6604Y-1905D02*
D03*
X-10392Y2100D02*
D03*
Y-2100D02*
D03*
X-8714Y-2287D02*
D03*
M02*
