G04*
G04 #@! TF.GenerationSoftware,Altium Limited,Altium Designer,23.3.1 (30)*
G04*
G04 Layer_Physical_Order=4*
G04 Layer_Color=16711680*
%FSLAX43Y43*%
%MOMM*%
G71*
G04*
G04 #@! TF.SameCoordinates,9844E55F-96F2-4D63-9416-53F8DD85CCA4*
G04*
G04*
G04 #@! TF.FilePolarity,Positive*
G04*
G01*
G75*
%ADD10C,0.500*%
%ADD12C,0.150*%
%ADD13C,0.200*%
G04:AMPARAMS|DCode=15|XSize=0.7mm|YSize=0.9mm|CornerRadius=0.07mm|HoleSize=0mm|Usage=FLASHONLY|Rotation=0.000|XOffset=0mm|YOffset=0mm|HoleType=Round|Shape=RoundedRectangle|*
%AMROUNDEDRECTD15*
21,1,0.700,0.760,0,0,0.0*
21,1,0.560,0.900,0,0,0.0*
1,1,0.140,0.280,-0.380*
1,1,0.140,-0.280,-0.380*
1,1,0.140,-0.280,0.380*
1,1,0.140,0.280,0.380*
%
%ADD15ROUNDEDRECTD15*%
G04:AMPARAMS|DCode=21|XSize=2mm|YSize=3mm|CornerRadius=0.2mm|HoleSize=0mm|Usage=FLASHONLY|Rotation=90.000|XOffset=0mm|YOffset=0mm|HoleType=Round|Shape=RoundedRectangle|*
%AMROUNDEDRECTD21*
21,1,2.000,2.600,0,0,90.0*
21,1,1.600,3.000,0,0,90.0*
1,1,0.400,1.300,0.800*
1,1,0.400,1.300,-0.800*
1,1,0.400,-1.300,-0.800*
1,1,0.400,-1.300,0.800*
%
%ADD21ROUNDEDRECTD21*%
G04:AMPARAMS|DCode=23|XSize=0.75mm|YSize=0.96mm|CornerRadius=0.075mm|HoleSize=0mm|Usage=FLASHONLY|Rotation=180.000|XOffset=0mm|YOffset=0mm|HoleType=Round|Shape=RoundedRectangle|*
%AMROUNDEDRECTD23*
21,1,0.750,0.810,0,0,180.0*
21,1,0.600,0.960,0,0,180.0*
1,1,0.150,-0.300,0.405*
1,1,0.150,0.300,0.405*
1,1,0.150,0.300,-0.405*
1,1,0.150,-0.300,-0.405*
%
%ADD23ROUNDEDRECTD23*%
%ADD47C,0.300*%
%ADD49C,1.925*%
G04:AMPARAMS|DCode=50|XSize=1.925mm|YSize=1.925mm|CornerRadius=0.193mm|HoleSize=0mm|Usage=FLASHONLY|Rotation=180.000|XOffset=0mm|YOffset=0mm|HoleType=Round|Shape=RoundedRectangle|*
%AMROUNDEDRECTD50*
21,1,1.925,1.540,0,0,180.0*
21,1,1.540,1.925,0,0,180.0*
1,1,0.385,-0.770,0.770*
1,1,0.385,0.770,0.770*
1,1,0.385,0.770,-0.770*
1,1,0.385,-0.770,-0.770*
%
%ADD50ROUNDEDRECTD50*%
%ADD51C,1.500*%
G04:AMPARAMS|DCode=52|XSize=1.5mm|YSize=1.5mm|CornerRadius=0.15mm|HoleSize=0mm|Usage=FLASHONLY|Rotation=270.000|XOffset=0mm|YOffset=0mm|HoleType=Round|Shape=RoundedRectangle|*
%AMROUNDEDRECTD52*
21,1,1.500,1.200,0,0,270.0*
21,1,1.200,1.500,0,0,270.0*
1,1,0.300,-0.600,-0.600*
1,1,0.300,-0.600,0.600*
1,1,0.300,0.600,0.600*
1,1,0.300,0.600,-0.600*
%
%ADD52ROUNDEDRECTD52*%
%ADD53C,0.550*%
%ADD54C,0.700*%
G04:AMPARAMS|DCode=55|XSize=0.6mm|YSize=1.5mm|CornerRadius=0.06mm|HoleSize=0mm|Usage=FLASHONLY|Rotation=270.000|XOffset=0mm|YOffset=0mm|HoleType=Round|Shape=RoundedRectangle|*
%AMROUNDEDRECTD55*
21,1,0.600,1.380,0,0,270.0*
21,1,0.480,1.500,0,0,270.0*
1,1,0.120,-0.690,-0.240*
1,1,0.120,-0.690,0.240*
1,1,0.120,0.690,0.240*
1,1,0.120,0.690,-0.240*
%
%ADD55ROUNDEDRECTD55*%
G04:AMPARAMS|DCode=56|XSize=0.7mm|YSize=0.9mm|CornerRadius=0.07mm|HoleSize=0mm|Usage=FLASHONLY|Rotation=90.000|XOffset=0mm|YOffset=0mm|HoleType=Round|Shape=RoundedRectangle|*
%AMROUNDEDRECTD56*
21,1,0.700,0.760,0,0,90.0*
21,1,0.560,0.900,0,0,90.0*
1,1,0.140,0.380,0.280*
1,1,0.140,0.380,-0.280*
1,1,0.140,-0.380,-0.280*
1,1,0.140,-0.380,0.280*
%
%ADD56ROUNDEDRECTD56*%
G04:AMPARAMS|DCode=57|XSize=0.75mm|YSize=0.96mm|CornerRadius=0.075mm|HoleSize=0mm|Usage=FLASHONLY|Rotation=90.000|XOffset=0mm|YOffset=0mm|HoleType=Round|Shape=RoundedRectangle|*
%AMROUNDEDRECTD57*
21,1,0.750,0.810,0,0,90.0*
21,1,0.600,0.960,0,0,90.0*
1,1,0.150,0.405,0.300*
1,1,0.150,0.405,-0.300*
1,1,0.150,-0.405,-0.300*
1,1,0.150,-0.405,0.300*
%
%ADD57ROUNDEDRECTD57*%
G36*
G01X-6175Y-8550D02*
G01X-6175Y-9450D01*
G02X-6225Y-9500I-50J0D01*
G01X-7175D01*
G01X-6675Y-9000D01*
G01X-7175Y-8500D01*
G01X-6225D01*
G02X-6175Y-8550I0J-50D01*
D02*
G37*
G36*
G01X-7825Y-8550D02*
G01X-7825Y-9450D01*
G03X-7775Y-9500I50J0D01*
G01X-7325D01*
G01X-6825Y-9000D01*
G01X-7325Y-8500D01*
G01X-7775D01*
G03X-7825Y-8550I-0J-50D01*
D02*
G37*
D10*
X-5000Y-8800D02*
Y-8000D01*
X-5500Y-7500D02*
X-5000Y-8000D01*
X-9000Y-8800D02*
Y-8000D01*
X-8500Y-7500D01*
X-5000Y-8800D02*
X7500D01*
X11300Y-5000D01*
Y-4926D02*
X12200Y-4026D01*
X11300Y-5000D02*
Y-4926D01*
X12200Y-4026D02*
Y-3405D01*
D12*
X-500Y-932D02*
X3130Y-4561D01*
X-500Y-932D02*
Y6000D01*
X0Y-622D02*
X3125Y-3747D01*
X0Y-622D02*
Y6111D01*
X1270Y7381D01*
Y9500D01*
X-1270Y6770D02*
X-500Y6000D01*
X-1270Y6770D02*
Y9500D01*
X13185Y2500D02*
X14650D01*
X12685Y3000D02*
X13185Y2500D01*
X10000Y3000D02*
X11315D01*
X-8104Y754D02*
X-6007Y-1343D01*
X-5185D01*
X-8104Y754D02*
Y2316D01*
X-5185Y-1343D02*
X-2026Y-4502D01*
X4649Y-2185D02*
X5332Y-2868D01*
X4500Y-2185D02*
X4649D01*
X4500Y-815D02*
X5500Y185D01*
Y1000D01*
X6000Y1500D01*
X6500D01*
X4500Y815D02*
X5455Y1770D01*
Y2019D01*
X-2700Y635D02*
X-2234D01*
X-1500Y1369D02*
Y5500D01*
X-2234Y635D02*
X-1500Y1369D01*
X6800Y-2135D02*
Y-865D01*
X7975D01*
X6800Y405D02*
X7975D01*
X6800Y-3405D02*
X7975D01*
X2700Y635D02*
X4320D01*
X4500Y815D01*
X4320Y-635D02*
X4500Y-815D01*
X2700Y-635D02*
X4320D01*
X-4815Y6000D02*
Y6500D01*
Y3500D02*
Y6000D01*
X-4952Y3363D02*
X-4815Y3500D01*
X-4952Y1898D02*
Y3363D01*
X-4953Y0D02*
Y845D01*
X-5504Y1396D02*
Y4319D01*
Y1396D02*
X-4953Y845D01*
X-8010Y3037D02*
X-6675Y1702D01*
Y452D02*
Y1702D01*
Y452D02*
X-5588Y-635D01*
X-8010Y3037D02*
Y5805D01*
X-7315Y6500D01*
X-6185Y1232D02*
Y3500D01*
X-8685Y5000D02*
Y6500D01*
Y3500D02*
Y5000D01*
X-4815Y6000D02*
X-4815Y6000D01*
X-7315Y3500D02*
X-6185D01*
X-7315Y5000D02*
X-6185D01*
X-7315Y6500D02*
X-6185D01*
Y5000D02*
X-5504Y4319D01*
X-6185Y1232D02*
X-5588Y635D01*
D13*
X-9000Y-8800D02*
X-8800Y-9000D01*
X-7325D01*
X-6352Y-8800D02*
X-5000D01*
X-8685Y5000D02*
X-8685Y5000D01*
X-9500Y5000D02*
X-8685D01*
D15*
X12685Y3000D02*
D03*
X11315D02*
D03*
X-6185Y5000D02*
D03*
X-4815D02*
D03*
X-6185Y3500D02*
D03*
X-4815Y3500D02*
D03*
X-8685Y6500D02*
D03*
X-7315D02*
D03*
X-8685Y5000D02*
D03*
X-7315D02*
D03*
X-8685Y3500D02*
D03*
X-7315D02*
D03*
X-6185Y6500D02*
D03*
X-4815D02*
D03*
D21*
X-13405Y2500D02*
D03*
X-13405Y0D02*
D03*
X-13405Y-2500D02*
D03*
D23*
X4054Y3500D02*
D03*
X2654D02*
D03*
X4054Y5000D02*
D03*
X2654D02*
D03*
X12700Y-5000D02*
D03*
X11300D02*
D03*
X700Y-3810D02*
D03*
X-700D02*
D03*
D47*
X3648Y-2969D02*
X4425Y-3747D01*
X3648Y-2969D02*
Y-2430D01*
X3123Y-1905D02*
X3648Y-2430D01*
X2700Y-1905D02*
X3123D01*
X-5000Y-11000D02*
Y-10200D01*
X-9000Y-11000D02*
Y-10200D01*
X-5000D01*
X12200Y405D02*
Y1702D01*
X-2605Y-1905D02*
X-700Y-3810D01*
X-2700Y-1905D02*
X-2605D01*
X-2700D02*
Y-635D01*
X700Y-4699D02*
Y-3810D01*
X-700Y-4699D02*
Y-3810D01*
X-2700Y1905D02*
Y3000D01*
X14650Y-5000D02*
X14650Y-5000D01*
X12700Y-5000D02*
X14650D01*
X14285Y-2135D02*
X14650Y-2500D01*
X12200Y-2135D02*
X14285D01*
X13785Y-865D02*
X14650Y0D01*
X12200Y-865D02*
X13785D01*
X1825Y5000D02*
X1825Y5000D01*
X2654D01*
X4054D02*
Y5442D01*
X3385Y6111D02*
X4054Y5442D01*
X2654Y1951D02*
X2700Y1905D01*
X2654Y1951D02*
Y3500D01*
Y5000D01*
X4054Y3500D02*
Y5000D01*
Y2631D02*
Y3500D01*
Y2631D02*
X4500Y2185D01*
D49*
X-3810Y9500D02*
D03*
X-1270D02*
D03*
X1270D02*
D03*
D50*
X3810D02*
D03*
D51*
X14650Y0D02*
D03*
Y2500D02*
D03*
Y-2500D02*
D03*
Y-5000D02*
D03*
D52*
Y5000D02*
D03*
D53*
X4425Y-3747D02*
D03*
X3130Y-4561D02*
D03*
X3125Y-3747D02*
D03*
X1689Y-8000D02*
D03*
X-5000Y-11000D02*
D03*
X-9000D02*
D03*
X-7874Y-5969D02*
D03*
X-8763Y-4445D02*
D03*
X-2310Y-5969D02*
D03*
X-5500Y-7500D02*
D03*
X-7000D02*
D03*
X-8500D02*
D03*
X12200Y1702D02*
D03*
X-11000Y7500D02*
D03*
X-11500Y7000D02*
D03*
X-12000Y6500D02*
D03*
X-12500Y6000D02*
D03*
X-2026Y-4502D02*
D03*
X-2700Y3000D02*
D03*
X5332Y-2868D02*
D03*
X10000Y3000D02*
D03*
Y4500D02*
D03*
X6500Y1500D02*
D03*
X5455Y2019D02*
D03*
X1825Y5000D02*
D03*
X3385Y6111D02*
D03*
X-1500Y5500D02*
D03*
X7975Y-865D02*
D03*
Y405D02*
D03*
Y-3405D02*
D03*
X-9500Y5000D02*
D03*
X-4952Y1898D02*
D03*
X-8104Y2316D02*
D03*
X7000Y-5000D02*
D03*
X-8763Y-6477D02*
D03*
Y-5461D02*
D03*
X-13589Y-6477D02*
D03*
Y-5461D02*
D03*
Y-4445D02*
D03*
X-4953Y0D02*
D03*
X-5588Y635D02*
D03*
X-5588Y-635D02*
D03*
X700Y-4699D02*
D03*
X-700D02*
D03*
X-4445Y-3175D02*
D03*
X-6604Y-1905D02*
D03*
X-10392Y2100D02*
D03*
Y-2100D02*
D03*
X-8714Y-2287D02*
D03*
X-10922Y-1524D02*
D03*
Y1524D02*
D03*
D54*
X-13405Y3100D02*
D03*
X-12305D02*
D03*
Y2500D02*
D03*
Y1900D02*
D03*
X-13405D02*
D03*
Y2500D02*
D03*
X-14505Y1900D02*
D03*
Y2500D02*
D03*
Y3100D02*
D03*
X-13405Y600D02*
D03*
X-12305D02*
D03*
Y0D02*
D03*
Y-600D02*
D03*
X-13405D02*
D03*
Y0D02*
D03*
X-14505Y-600D02*
D03*
Y0D02*
D03*
Y600D02*
D03*
X-13405Y-1900D02*
D03*
X-12305D02*
D03*
Y-2500D02*
D03*
Y-3100D02*
D03*
X-13405D02*
D03*
Y-2500D02*
D03*
X-14505Y-3100D02*
D03*
Y-2500D02*
D03*
Y-1900D02*
D03*
D55*
X6800Y-3405D02*
D03*
Y-2135D02*
D03*
Y-865D02*
D03*
Y405D02*
D03*
X12200Y-3405D02*
D03*
Y-2135D02*
D03*
Y-865D02*
D03*
Y405D02*
D03*
X-2700Y-1905D02*
D03*
Y-635D02*
D03*
Y635D02*
D03*
Y1905D02*
D03*
X2700Y-1905D02*
D03*
Y-635D02*
D03*
Y635D02*
D03*
Y1905D02*
D03*
D56*
X4500Y815D02*
D03*
Y2185D02*
D03*
Y-815D02*
D03*
Y-2185D02*
D03*
D57*
X-5000Y-10200D02*
D03*
Y-8800D02*
D03*
X-9000Y-10200D02*
D03*
X-9000Y-8800D02*
D03*
M02*
