G04*
G04 #@! TF.GenerationSoftware,Altium Limited,Altium Designer,23.3.1 (30)*
G04*
G04 Layer_Physical_Order=2*
G04 Layer_Color=36540*
%FSLAX43Y43*%
%MOMM*%
G71*
G04*
G04 #@! TF.SameCoordinates,9844E55F-96F2-4D63-9416-53F8DD85CCA4*
G04*
G04*
G04 #@! TF.FilePolarity,Positive*
G04*
G01*
G75*
G04:AMPARAMS|DCode=50|XSize=1.925mm|YSize=1.925mm|CornerRadius=0.193mm|HoleSize=0mm|Usage=FLASHONLY|Rotation=180.000|XOffset=0mm|YOffset=0mm|HoleType=Round|Shape=RoundedRectangle|*
%AMROUNDEDRECTD50*
21,1,1.925,1.540,0,0,180.0*
21,1,1.540,1.925,0,0,180.0*
1,1,0.385,-0.770,0.770*
1,1,0.385,0.770,0.770*
1,1,0.385,0.770,-0.770*
1,1,0.385,-0.770,-0.770*
%
%ADD50ROUNDEDRECTD50*%
%ADD51C,1.500*%
%ADD53C,0.550*%
G36*
X1346Y15454D02*
X2464Y15316D01*
X3570Y15096D01*
X4657Y14797D01*
X5720Y14420D01*
X6752Y13966D01*
X7748Y13439D01*
X8704Y12841D01*
X9614Y12174D01*
X9846Y11977D01*
X9767Y11847D01*
X9644Y11898D01*
X9391Y11966D01*
X9131Y12000D01*
X8869D01*
X8609Y11966D01*
X8356Y11898D01*
X8114Y11798D01*
X7886Y11667D01*
X7678Y11507D01*
X7493Y11322D01*
X7333Y11114D01*
X7202Y10886D01*
X7102Y10644D01*
X7034Y10391D01*
X7000Y10131D01*
Y9869D01*
X7034Y9609D01*
X7102Y9356D01*
X7202Y9114D01*
X7333Y8886D01*
X7493Y8678D01*
X7678Y8493D01*
X7886Y8333D01*
X8114Y8202D01*
X8356Y8102D01*
X8609Y8034D01*
X8869Y8000D01*
X9131D01*
X9391Y8034D01*
X9644Y8102D01*
X9886Y8202D01*
X10114Y8333D01*
X10322Y8493D01*
X10507Y8678D01*
X10667Y8886D01*
X10798Y9114D01*
X10898Y9356D01*
X10966Y9609D01*
X11000Y9869D01*
Y10131D01*
X10966Y10391D01*
X10898Y10644D01*
X10798Y10886D01*
X10761Y10949D01*
X10881Y11042D01*
X11276Y10653D01*
X12020Y9806D01*
X12700Y8907D01*
X13314Y7961D01*
X13585Y7467D01*
X13631Y7413D01*
X13671Y7353D01*
X13695Y7337D01*
X13713Y7315D01*
X13777Y7282D01*
X13836Y7242D01*
X13864Y7237D01*
X13890Y7223D01*
X13961Y7217D01*
X14031Y7203D01*
X16419Y7198D01*
Y-7197D01*
X14021Y-7197D01*
X13951Y-7211D01*
X13879Y-7217D01*
X13854Y-7231D01*
X13826Y-7236D01*
X13767Y-7276D01*
X13703Y-7309D01*
X13685Y-7331D01*
X13661Y-7347D01*
X13621Y-7406D01*
X13575Y-7461D01*
X13303Y-7956D01*
X12690Y-8902D01*
X12009Y-9801D01*
X11264Y-10648D01*
X10461Y-11439D01*
X9601Y-12169D01*
X8691Y-12835D01*
X7735Y-13433D01*
X6738Y-13959D01*
X5705Y-14412D01*
X4642Y-14789D01*
X3555Y-15087D01*
X2449Y-15306D01*
X1329Y-15443D01*
X203Y-15499D01*
X-924Y-15473D01*
X-2047Y-15365D01*
X-3159Y-15175D01*
X-4253Y-14905D01*
X-5326Y-14557D01*
X-6370Y-14131D01*
X-7381Y-13631D01*
X-8352Y-13058D01*
X-9279Y-12416D01*
X-10157Y-11709D01*
X-10982Y-10939D01*
X-11748Y-10112D01*
X-12452Y-9231D01*
X-13090Y-8301D01*
X-13659Y-7328D01*
X-14156Y-6315D01*
X-14577Y-5269D01*
X-14725Y-4808D01*
X-14725Y-3766D01*
X-14578Y-3650D01*
X-14575Y-3650D01*
X-14433D01*
X-14293Y-3613D01*
X-14167Y-3540D01*
X-14065Y-3438D01*
X-14042Y-3397D01*
X-13868D01*
X-13845Y-3438D01*
X-13743Y-3540D01*
X-13617Y-3613D01*
X-13477Y-3650D01*
X-13333D01*
X-13193Y-3613D01*
X-13067Y-3540D01*
X-12965Y-3438D01*
X-12942Y-3397D01*
X-12768D01*
X-12745Y-3438D01*
X-12643Y-3540D01*
X-12517Y-3613D01*
X-12377Y-3650D01*
X-12233D01*
X-12093Y-3613D01*
X-11967Y-3540D01*
X-11865Y-3438D01*
X-11792Y-3312D01*
X-11755Y-3172D01*
Y-3028D01*
X-11792Y-2888D01*
X-11843Y-2800D01*
X-11792Y-2712D01*
X-11755Y-2572D01*
Y-2428D01*
X-11792Y-2288D01*
X-11843Y-2200D01*
X-11792Y-2112D01*
X-11755Y-1972D01*
Y-1828D01*
X-11792Y-1688D01*
X-11865Y-1562D01*
X-11967Y-1460D01*
X-12093Y-1387D01*
X-12233Y-1350D01*
X-12377D01*
X-12517Y-1387D01*
X-12643Y-1460D01*
X-12745Y-1562D01*
X-12768Y-1603D01*
X-12942D01*
X-12965Y-1562D01*
X-13067Y-1460D01*
X-13193Y-1387D01*
X-13333Y-1350D01*
X-13477D01*
X-13617Y-1387D01*
X-13743Y-1460D01*
X-13845Y-1562D01*
X-13868Y-1603D01*
X-14042D01*
X-14065Y-1562D01*
X-14167Y-1460D01*
X-14293Y-1387D01*
X-14433Y-1350D01*
X-14470D01*
X-14609Y-1213D01*
X-14609Y-1175D01*
X-14578Y-1150D01*
X-14575Y-1150D01*
X-14433D01*
X-14293Y-1113D01*
X-14167Y-1040D01*
X-14065Y-938D01*
X-14042Y-897D01*
X-13868D01*
X-13845Y-938D01*
X-13743Y-1040D01*
X-13617Y-1113D01*
X-13477Y-1150D01*
X-13333D01*
X-13193Y-1113D01*
X-13067Y-1040D01*
X-12965Y-938D01*
X-12942Y-897D01*
X-12768D01*
X-12745Y-938D01*
X-12643Y-1040D01*
X-12517Y-1113D01*
X-12377Y-1150D01*
X-12233D01*
X-12093Y-1113D01*
X-11967Y-1040D01*
X-11865Y-938D01*
X-11792Y-812D01*
X-11755Y-672D01*
Y-528D01*
X-11792Y-388D01*
X-11843Y-300D01*
X-11792Y-212D01*
X-11755Y-72D01*
Y72D01*
X-11792Y212D01*
X-11843Y300D01*
X-11792Y388D01*
X-11755Y528D01*
Y672D01*
X-11792Y812D01*
X-11865Y938D01*
X-11967Y1040D01*
X-12093Y1113D01*
X-12233Y1150D01*
X-12377D01*
X-12517Y1113D01*
X-12643Y1040D01*
X-12745Y938D01*
X-12768Y897D01*
X-12942D01*
X-12965Y938D01*
X-13067Y1040D01*
X-13193Y1113D01*
X-13333Y1150D01*
X-13477D01*
X-13617Y1113D01*
X-13743Y1040D01*
X-13845Y938D01*
X-13868Y897D01*
X-14042D01*
X-14065Y938D01*
X-14167Y1040D01*
X-14293Y1113D01*
X-14433Y1150D01*
X-14577D01*
X-14609Y1175D01*
Y1214D01*
X-14470Y1350D01*
X-14433D01*
X-14293Y1387D01*
X-14167Y1460D01*
X-14065Y1562D01*
X-14042Y1603D01*
X-13868D01*
X-13845Y1562D01*
X-13743Y1460D01*
X-13617Y1387D01*
X-13477Y1350D01*
X-13333D01*
X-13193Y1387D01*
X-13067Y1460D01*
X-12965Y1562D01*
X-12942Y1603D01*
X-12768D01*
X-12745Y1562D01*
X-12643Y1460D01*
X-12517Y1387D01*
X-12377Y1350D01*
X-12233D01*
X-12093Y1387D01*
X-11967Y1460D01*
X-11865Y1562D01*
X-11792Y1688D01*
X-11755Y1828D01*
Y1972D01*
X-11792Y2112D01*
X-11843Y2200D01*
X-11792Y2288D01*
X-11755Y2428D01*
Y2572D01*
X-11792Y2712D01*
X-11843Y2800D01*
X-11792Y2888D01*
X-11755Y3028D01*
Y3172D01*
X-11792Y3312D01*
X-11865Y3438D01*
X-11967Y3540D01*
X-12093Y3613D01*
X-12233Y3650D01*
X-12377D01*
X-12517Y3613D01*
X-12643Y3540D01*
X-12745Y3438D01*
X-12768Y3397D01*
X-12942D01*
X-12965Y3438D01*
X-13067Y3540D01*
X-13193Y3613D01*
X-13333Y3650D01*
X-13477D01*
X-13617Y3613D01*
X-13743Y3540D01*
X-13845Y3438D01*
X-13868Y3397D01*
X-14042D01*
X-14065Y3438D01*
X-14167Y3540D01*
X-14293Y3613D01*
X-14433Y3650D01*
X-14577D01*
X-14725Y3766D01*
X-14725Y4847D01*
X-14577Y5307D01*
X-14153Y6352D01*
X-13654Y7363D01*
X-13083Y8335D01*
X-12443Y9263D01*
X-11738Y10142D01*
X-10970Y10968D01*
X-10870Y11061D01*
X-10751Y10967D01*
X-10798Y10886D01*
X-10898Y10644D01*
X-10966Y10391D01*
X-11000Y10131D01*
Y9869D01*
X-10966Y9609D01*
X-10898Y9356D01*
X-10798Y9114D01*
X-10667Y8886D01*
X-10507Y8678D01*
X-10322Y8493D01*
X-10114Y8333D01*
X-9886Y8202D01*
X-9644Y8102D01*
X-9391Y8034D01*
X-9131Y8000D01*
X-8869D01*
X-8609Y8034D01*
X-8356Y8102D01*
X-8114Y8202D01*
X-7886Y8333D01*
X-7678Y8493D01*
X-7493Y8678D01*
X-7333Y8886D01*
X-7202Y9114D01*
X-7102Y9356D01*
X-7034Y9609D01*
X-7000Y9869D01*
Y10131D01*
X-7034Y10391D01*
X-7102Y10644D01*
X-7202Y10886D01*
X-7333Y11114D01*
X-7493Y11322D01*
X-7678Y11507D01*
X-7886Y11667D01*
X-8114Y11798D01*
X-8356Y11898D01*
X-8609Y11966D01*
X-8869Y12000D01*
X-9131D01*
X-9391Y11966D01*
X-9644Y11898D01*
X-9765Y11848D01*
X-9843Y11978D01*
X-9265Y12442D01*
X-8337Y13082D01*
X-7365Y13653D01*
X-6354Y14152D01*
X-5309Y14576D01*
X-4237Y14923D01*
X-3142Y15191D01*
X-2030Y15379D01*
X-908Y15486D01*
X220Y15511D01*
X1346Y15454D01*
D02*
G37*
%LPC*%
G36*
X1361Y10663D02*
X1179D01*
X998Y10634D01*
X824Y10577D01*
X661Y10494D01*
X513Y10387D01*
X383Y10257D01*
X276Y10109D01*
X193Y9946D01*
X136Y9772D01*
X108Y9591D01*
Y9409D01*
X136Y9228D01*
X193Y9054D01*
X276Y8891D01*
X383Y8743D01*
X513Y8613D01*
X661Y8506D01*
X824Y8423D01*
X998Y8366D01*
X1179Y8337D01*
X1361D01*
X1542Y8366D01*
X1716Y8423D01*
X1879Y8506D01*
X2027Y8613D01*
X2157Y8743D01*
X2264Y8891D01*
X2347Y9054D01*
X2404Y9228D01*
X2432Y9409D01*
Y9591D01*
X2404Y9772D01*
X2347Y9946D01*
X2264Y10109D01*
X2157Y10257D01*
X2027Y10387D01*
X1879Y10494D01*
X1716Y10577D01*
X1542Y10634D01*
X1361Y10663D01*
D02*
G37*
G36*
X-1179D02*
X-1361D01*
X-1542Y10634D01*
X-1716Y10577D01*
X-1879Y10494D01*
X-2027Y10387D01*
X-2157Y10257D01*
X-2264Y10109D01*
X-2347Y9946D01*
X-2404Y9772D01*
X-2432Y9591D01*
Y9409D01*
X-2404Y9228D01*
X-2347Y9054D01*
X-2264Y8891D01*
X-2157Y8743D01*
X-2027Y8613D01*
X-1879Y8506D01*
X-1716Y8423D01*
X-1542Y8366D01*
X-1361Y8337D01*
X-1179D01*
X-998Y8366D01*
X-824Y8423D01*
X-661Y8506D01*
X-513Y8613D01*
X-383Y8743D01*
X-276Y8891D01*
X-193Y9054D01*
X-136Y9228D01*
X-108Y9409D01*
Y9591D01*
X-136Y9772D01*
X-193Y9946D01*
X-276Y10109D01*
X-383Y10257D01*
X-513Y10387D01*
X-661Y10494D01*
X-824Y10577D01*
X-998Y10634D01*
X-1179Y10663D01*
D02*
G37*
G36*
X-3719D02*
X-3901D01*
X-4082Y10634D01*
X-4256Y10577D01*
X-4419Y10494D01*
X-4567Y10387D01*
X-4697Y10257D01*
X-4804Y10109D01*
X-4887Y9946D01*
X-4944Y9772D01*
X-4972Y9591D01*
Y9409D01*
X-4944Y9228D01*
X-4887Y9054D01*
X-4804Y8891D01*
X-4697Y8743D01*
X-4567Y8613D01*
X-4419Y8506D01*
X-4256Y8423D01*
X-4082Y8366D01*
X-3901Y8337D01*
X-3719D01*
X-3538Y8366D01*
X-3364Y8423D01*
X-3201Y8506D01*
X-3053Y8613D01*
X-2923Y8743D01*
X-2816Y8891D01*
X-2733Y9054D01*
X-2676Y9228D01*
X-2648Y9409D01*
Y9591D01*
X-2676Y9772D01*
X-2733Y9946D01*
X-2816Y10109D01*
X-2923Y10257D01*
X-3053Y10387D01*
X-3201Y10494D01*
X-3364Y10577D01*
X-3538Y10634D01*
X-3719Y10663D01*
D02*
G37*
G36*
X3447Y6586D02*
X3322D01*
X3202Y6554D01*
X3093Y6491D01*
X3005Y6403D01*
X2942Y6294D01*
X2910Y6173D01*
Y6048D01*
X2942Y5928D01*
X3005Y5819D01*
X3093Y5731D01*
X3202Y5668D01*
X3322Y5636D01*
X3447D01*
X3568Y5668D01*
X3677Y5731D01*
X3765Y5819D01*
X3828Y5928D01*
X3860Y6048D01*
Y6173D01*
X3828Y6294D01*
X3765Y6403D01*
X3677Y6491D01*
X3568Y6554D01*
X3447Y6586D01*
D02*
G37*
G36*
X-10937Y7975D02*
X-11063D01*
X-11183Y7943D01*
X-11292Y7880D01*
X-11380Y7792D01*
X-11443Y7683D01*
X-11475Y7563D01*
Y7475D01*
X-11563D01*
X-11683Y7443D01*
X-11792Y7380D01*
X-11880Y7292D01*
X-11943Y7183D01*
X-11975Y7063D01*
Y6975D01*
X-12063D01*
X-12183Y6943D01*
X-12292Y6880D01*
X-12380Y6792D01*
X-12443Y6683D01*
X-12475Y6563D01*
Y6475D01*
X-12563D01*
X-12683Y6443D01*
X-12792Y6380D01*
X-12880Y6292D01*
X-12943Y6183D01*
X-12975Y6063D01*
Y5937D01*
X-12943Y5817D01*
X-12880Y5708D01*
X-12792Y5620D01*
X-12683Y5557D01*
X-12563Y5525D01*
X-12437D01*
X-12317Y5557D01*
X-12208Y5620D01*
X-12120Y5708D01*
X-12057Y5817D01*
X-12025Y5937D01*
Y6025D01*
X-11937D01*
X-11817Y6057D01*
X-11708Y6120D01*
X-11620Y6208D01*
X-11557Y6317D01*
X-11525Y6437D01*
Y6525D01*
X-11437D01*
X-11317Y6557D01*
X-11208Y6620D01*
X-11120Y6708D01*
X-11057Y6817D01*
X-11025Y6937D01*
Y7025D01*
X-10937D01*
X-10817Y7057D01*
X-10708Y7120D01*
X-10620Y7208D01*
X-10557Y7317D01*
X-10525Y7437D01*
Y7563D01*
X-10557Y7683D01*
X-10620Y7792D01*
X-10708Y7880D01*
X-10817Y7943D01*
X-10937Y7975D01*
D02*
G37*
G36*
X-1437Y5975D02*
X-1563D01*
X-1683Y5943D01*
X-1792Y5880D01*
X-1880Y5792D01*
X-1943Y5683D01*
X-1975Y5563D01*
Y5437D01*
X-1943Y5317D01*
X-1880Y5208D01*
X-1792Y5120D01*
X-1683Y5057D01*
X-1563Y5025D01*
X-1437D01*
X-1317Y5057D01*
X-1208Y5120D01*
X-1120Y5208D01*
X-1057Y5317D01*
X-1025Y5437D01*
Y5563D01*
X-1057Y5683D01*
X-1120Y5792D01*
X-1208Y5880D01*
X-1317Y5943D01*
X-1437Y5975D01*
D02*
G37*
G36*
X15250Y5953D02*
X14050D01*
X13959Y5941D01*
X13873Y5906D01*
X13800Y5850D01*
X13744Y5777D01*
X13709Y5691D01*
X13697Y5600D01*
Y4400D01*
X13709Y4309D01*
X13744Y4223D01*
X13800Y4150D01*
X13873Y4094D01*
X13959Y4059D01*
X14050Y4047D01*
X15250D01*
X15341Y4059D01*
X15427Y4094D01*
X15500Y4150D01*
X15556Y4223D01*
X15591Y4309D01*
X15603Y4400D01*
Y5600D01*
X15591Y5691D01*
X15556Y5777D01*
X15500Y5850D01*
X15427Y5906D01*
X15341Y5941D01*
X15250Y5953D01*
D02*
G37*
G36*
X10063Y3475D02*
X9937D01*
X9817Y3443D01*
X9708Y3380D01*
X9620Y3292D01*
X9557Y3183D01*
X9525Y3063D01*
Y2937D01*
X9557Y2817D01*
X9620Y2708D01*
X9708Y2620D01*
X9817Y2557D01*
X9937Y2525D01*
X10063D01*
X10183Y2557D01*
X10292Y2620D01*
X10380Y2708D01*
X10443Y2817D01*
X10475Y2937D01*
Y3063D01*
X10443Y3183D01*
X10380Y3292D01*
X10292Y3380D01*
X10183Y3443D01*
X10063Y3475D01*
D02*
G37*
G36*
X-8042Y2791D02*
X-8167D01*
X-8288Y2759D01*
X-8396Y2696D01*
X-8484Y2608D01*
X-8547Y2499D01*
X-8579Y2379D01*
Y2254D01*
X-8547Y2133D01*
X-8484Y2024D01*
X-8396Y1936D01*
X-8288Y1873D01*
X-8167Y1841D01*
X-8042D01*
X-7921Y1873D01*
X-7813Y1936D01*
X-7724Y2024D01*
X-7662Y2133D01*
X-7629Y2254D01*
Y2379D01*
X-7662Y2499D01*
X-7724Y2608D01*
X-7813Y2696D01*
X-7921Y2759D01*
X-8042Y2791D01*
D02*
G37*
G36*
X-10330Y2575D02*
X-10455D01*
X-10576Y2543D01*
X-10684Y2480D01*
X-10773Y2392D01*
X-10835Y2283D01*
X-10867Y2163D01*
Y2037D01*
X-10835Y1917D01*
X-10773Y1808D01*
X-10684Y1720D01*
X-10576Y1657D01*
X-10455Y1625D01*
X-10330D01*
X-10209Y1657D01*
X-10101Y1720D01*
X-10012Y1808D01*
X-9950Y1917D01*
X-9917Y2037D01*
Y2163D01*
X-9950Y2283D01*
X-10012Y2392D01*
X-10101Y2480D01*
X-10209Y2543D01*
X-10330Y2575D01*
D02*
G37*
G36*
X14744Y3450D02*
X14556D01*
X14373Y3413D01*
X14200Y3342D01*
X14044Y3238D01*
X13912Y3106D01*
X13808Y2950D01*
X13737Y2777D01*
X13700Y2594D01*
Y2406D01*
X13737Y2223D01*
X13808Y2050D01*
X13912Y1894D01*
X14044Y1762D01*
X14200Y1658D01*
X14373Y1587D01*
X14556Y1550D01*
X14744D01*
X14927Y1587D01*
X15100Y1658D01*
X15256Y1762D01*
X15388Y1894D01*
X15492Y2050D01*
X15563Y2223D01*
X15600Y2406D01*
Y2594D01*
X15563Y2777D01*
X15492Y2950D01*
X15388Y3106D01*
X15256Y3238D01*
X15100Y3342D01*
X14927Y3413D01*
X14744Y3450D01*
D02*
G37*
G36*
X5517Y2494D02*
X5392D01*
X5271Y2462D01*
X5163Y2399D01*
X5075Y2311D01*
X5012Y2202D01*
X4980Y2081D01*
Y1956D01*
X5012Y1836D01*
X5075Y1727D01*
X5163Y1639D01*
X5271Y1576D01*
X5392Y1544D01*
X5517D01*
X5638Y1576D01*
X5746Y1639D01*
X5835Y1727D01*
X5897Y1836D01*
X5930Y1956D01*
Y2081D01*
X5897Y2202D01*
X5835Y2311D01*
X5746Y2399D01*
X5638Y2462D01*
X5517Y2494D01*
D02*
G37*
G36*
X-4889Y2373D02*
X-5014D01*
X-5135Y2340D01*
X-5243Y2278D01*
X-5332Y2189D01*
X-5394Y2081D01*
X-5427Y1960D01*
Y1835D01*
X-5394Y1714D01*
X-5332Y1606D01*
X-5243Y1518D01*
X-5135Y1455D01*
X-5014Y1423D01*
X-4889D01*
X-4768Y1455D01*
X-4660Y1518D01*
X-4572Y1606D01*
X-4509Y1714D01*
X-4477Y1835D01*
Y1960D01*
X-4509Y2081D01*
X-4572Y2189D01*
X-4660Y2278D01*
X-4768Y2340D01*
X-4889Y2373D01*
D02*
G37*
G36*
X6563Y1975D02*
X6437D01*
X6317Y1943D01*
X6208Y1880D01*
X6120Y1792D01*
X6057Y1683D01*
X6025Y1563D01*
Y1437D01*
X6057Y1317D01*
X6120Y1208D01*
X6208Y1120D01*
X6317Y1057D01*
X6437Y1025D01*
X6563D01*
X6683Y1057D01*
X6792Y1120D01*
X6880Y1208D01*
X6943Y1317D01*
X6975Y1437D01*
Y1563D01*
X6943Y1683D01*
X6880Y1792D01*
X6792Y1880D01*
X6683Y1943D01*
X6563Y1975D01*
D02*
G37*
G36*
X8038Y880D02*
X7912D01*
X7792Y848D01*
X7683Y785D01*
X7595Y697D01*
X7532Y588D01*
X7500Y468D01*
Y342D01*
X7532Y222D01*
X7595Y113D01*
X7683Y25D01*
X7792Y-38D01*
X7912Y-70D01*
X8038D01*
X8158Y-38D01*
X8267Y25D01*
X8355Y113D01*
X8418Y222D01*
X8450Y342D01*
Y468D01*
X8418Y588D01*
X8355Y697D01*
X8267Y785D01*
X8158Y848D01*
X8038Y880D01*
D02*
G37*
G36*
X14744Y950D02*
X14556D01*
X14373Y913D01*
X14200Y842D01*
X14044Y738D01*
X13912Y606D01*
X13808Y450D01*
X13737Y277D01*
X13700Y94D01*
Y-94D01*
X13737Y-277D01*
X13808Y-450D01*
X13912Y-606D01*
X14044Y-738D01*
X14200Y-842D01*
X14373Y-913D01*
X14556Y-950D01*
X14744D01*
X14927Y-913D01*
X15100Y-842D01*
X15256Y-738D01*
X15388Y-606D01*
X15492Y-450D01*
X15563Y-277D01*
X15600Y-94D01*
Y94D01*
X15563Y277D01*
X15492Y450D01*
X15388Y606D01*
X15256Y738D01*
X15100Y842D01*
X14927Y913D01*
X14744Y950D01*
D02*
G37*
G36*
X-5525Y1110D02*
X-5651D01*
X-5771Y1078D01*
X-5880Y1015D01*
X-5968Y927D01*
X-6031Y818D01*
X-6063Y698D01*
Y572D01*
X-6031Y452D01*
X-5968Y343D01*
X-5880Y255D01*
X-5771Y192D01*
X-5651Y160D01*
X-5557D01*
X-5484Y104D01*
X-5428Y31D01*
Y-31D01*
X-5484Y-104D01*
X-5557Y-160D01*
X-5651D01*
X-5771Y-192D01*
X-5880Y-255D01*
X-5968Y-343D01*
X-6031Y-452D01*
X-6063Y-572D01*
Y-698D01*
X-6031Y-818D01*
X-5968Y-927D01*
X-5880Y-1015D01*
X-5771Y-1078D01*
X-5651Y-1110D01*
X-5525D01*
X-5405Y-1078D01*
X-5296Y-1015D01*
X-5208Y-927D01*
X-5145Y-818D01*
X-5113Y-698D01*
Y-604D01*
X-5057Y-531D01*
X-4984Y-475D01*
X-4890D01*
X-4770Y-443D01*
X-4661Y-380D01*
X-4573Y-292D01*
X-4510Y-183D01*
X-4478Y-63D01*
Y63D01*
X-4510Y183D01*
X-4573Y292D01*
X-4661Y380D01*
X-4770Y443D01*
X-4890Y475D01*
X-4984D01*
X-5057Y531D01*
X-5113Y604D01*
Y698D01*
X-5145Y818D01*
X-5208Y927D01*
X-5296Y1015D01*
X-5405Y1078D01*
X-5525Y1110D01*
D02*
G37*
G36*
X8038Y-390D02*
X7912D01*
X7792Y-422D01*
X7683Y-485D01*
X7595Y-573D01*
X7532Y-682D01*
X7500Y-802D01*
Y-928D01*
X7532Y-1048D01*
X7595Y-1157D01*
X7683Y-1245D01*
X7792Y-1308D01*
X7912Y-1340D01*
X8038D01*
X8158Y-1308D01*
X8267Y-1245D01*
X8355Y-1157D01*
X8418Y-1048D01*
X8450Y-928D01*
Y-802D01*
X8418Y-682D01*
X8355Y-573D01*
X8267Y-485D01*
X8158Y-422D01*
X8038Y-390D01*
D02*
G37*
G36*
X-6541Y-1430D02*
X-6667D01*
X-6787Y-1462D01*
X-6896Y-1525D01*
X-6984Y-1613D01*
X-7047Y-1722D01*
X-7079Y-1842D01*
Y-1968D01*
X-7047Y-2088D01*
X-6984Y-2197D01*
X-6896Y-2285D01*
X-6787Y-2348D01*
X-6667Y-2380D01*
X-6541D01*
X-6421Y-2348D01*
X-6312Y-2285D01*
X-6224Y-2197D01*
X-6161Y-2088D01*
X-6129Y-1968D01*
Y-1842D01*
X-6161Y-1722D01*
X-6224Y-1613D01*
X-6312Y-1525D01*
X-6421Y-1462D01*
X-6541Y-1430D01*
D02*
G37*
G36*
X-10330Y-1625D02*
X-10455D01*
X-10576Y-1657D01*
X-10684Y-1720D01*
X-10773Y-1808D01*
X-10835Y-1917D01*
X-10867Y-2037D01*
Y-2163D01*
X-10835Y-2283D01*
X-10773Y-2392D01*
X-10684Y-2480D01*
X-10576Y-2543D01*
X-10455Y-2575D01*
X-10330D01*
X-10209Y-2543D01*
X-10101Y-2480D01*
X-10012Y-2392D01*
X-9950Y-2283D01*
X-9917Y-2163D01*
Y-2037D01*
X-9950Y-1917D01*
X-10012Y-1808D01*
X-10101Y-1720D01*
X-10209Y-1657D01*
X-10330Y-1625D01*
D02*
G37*
G36*
X-8651Y-1812D02*
X-8777D01*
X-8897Y-1844D01*
X-9006Y-1907D01*
X-9094Y-1995D01*
X-9157Y-2103D01*
X-9189Y-2224D01*
Y-2349D01*
X-9157Y-2470D01*
X-9094Y-2578D01*
X-9006Y-2667D01*
X-8897Y-2729D01*
X-8777Y-2762D01*
X-8651D01*
X-8531Y-2729D01*
X-8422Y-2667D01*
X-8334Y-2578D01*
X-8271Y-2470D01*
X-8239Y-2349D01*
Y-2224D01*
X-8271Y-2103D01*
X-8334Y-1995D01*
X-8422Y-1907D01*
X-8531Y-1844D01*
X-8651Y-1812D01*
D02*
G37*
G36*
X5395Y-2393D02*
X5270D01*
X5149Y-2425D01*
X5041Y-2488D01*
X4952Y-2576D01*
X4890Y-2685D01*
X4857Y-2805D01*
Y-2930D01*
X4890Y-3051D01*
X4952Y-3160D01*
X5041Y-3248D01*
X5149Y-3311D01*
X5270Y-3343D01*
X5395D01*
X5516Y-3311D01*
X5624Y-3248D01*
X5712Y-3160D01*
X5775Y-3051D01*
X5807Y-2930D01*
Y-2805D01*
X5775Y-2685D01*
X5712Y-2576D01*
X5624Y-2488D01*
X5516Y-2425D01*
X5395Y-2393D01*
D02*
G37*
G36*
X14744Y-1550D02*
X14556D01*
X14373Y-1587D01*
X14200Y-1658D01*
X14044Y-1762D01*
X13912Y-1894D01*
X13808Y-2050D01*
X13737Y-2223D01*
X13700Y-2406D01*
Y-2594D01*
X13737Y-2777D01*
X13808Y-2950D01*
X13912Y-3106D01*
X14044Y-3238D01*
X14200Y-3342D01*
X14373Y-3413D01*
X14556Y-3450D01*
X14744D01*
X14927Y-3413D01*
X15100Y-3342D01*
X15256Y-3238D01*
X15388Y-3106D01*
X15492Y-2950D01*
X15563Y-2777D01*
X15600Y-2594D01*
Y-2406D01*
X15563Y-2223D01*
X15492Y-2050D01*
X15388Y-1894D01*
X15256Y-1762D01*
X15100Y-1658D01*
X14927Y-1587D01*
X14744Y-1550D01*
D02*
G37*
G36*
X8038Y-2930D02*
X7912D01*
X7792Y-2962D01*
X7683Y-3025D01*
X7595Y-3113D01*
X7532Y-3222D01*
X7500Y-3342D01*
Y-3468D01*
X7532Y-3588D01*
X7595Y-3697D01*
X7683Y-3785D01*
X7792Y-3848D01*
X7912Y-3880D01*
X8038D01*
X8158Y-3848D01*
X8267Y-3785D01*
X8355Y-3697D01*
X8418Y-3588D01*
X8450Y-3468D01*
Y-3342D01*
X8418Y-3222D01*
X8355Y-3113D01*
X8267Y-3025D01*
X8158Y-2962D01*
X8038Y-2930D01*
D02*
G37*
G36*
X-1964Y-4027D02*
X-2089D01*
X-2210Y-4060D01*
X-2318Y-4122D01*
X-2406Y-4211D01*
X-2469Y-4319D01*
X-2501Y-4440D01*
Y-4565D01*
X-2469Y-4686D01*
X-2406Y-4794D01*
X-2318Y-4882D01*
X-2210Y-4945D01*
X-2089Y-4977D01*
X-1964D01*
X-1843Y-4945D01*
X-1735Y-4882D01*
X-1646Y-4794D01*
X-1584Y-4686D01*
X-1551Y-4565D01*
Y-4440D01*
X-1584Y-4319D01*
X-1646Y-4211D01*
X-1735Y-4122D01*
X-1843Y-4060D01*
X-1964Y-4027D01*
D02*
G37*
G36*
X3188Y-3272D02*
X3062D01*
X2942Y-3304D01*
X2833Y-3366D01*
X2745Y-3455D01*
X2682Y-3563D01*
X2650Y-3684D01*
Y-3809D01*
X2682Y-3930D01*
X2745Y-4038D01*
X2761Y-4054D01*
X2820Y-4151D01*
X2761Y-4258D01*
X2750Y-4270D01*
X2687Y-4378D01*
X2655Y-4499D01*
Y-4624D01*
X2687Y-4745D01*
X2750Y-4853D01*
X2838Y-4942D01*
X2946Y-5004D01*
X3067Y-5036D01*
X3192D01*
X3313Y-5004D01*
X3421Y-4942D01*
X3510Y-4853D01*
X3572Y-4745D01*
X3605Y-4624D01*
Y-4499D01*
X3572Y-4378D01*
X3510Y-4270D01*
X3494Y-4254D01*
X3435Y-4157D01*
X3493Y-4050D01*
X3505Y-4038D01*
X3568Y-3930D01*
X3600Y-3809D01*
Y-3684D01*
X3568Y-3563D01*
X3505Y-3455D01*
X3417Y-3366D01*
X3308Y-3304D01*
X3188Y-3272D01*
D02*
G37*
G36*
X-637Y-4224D02*
X-763D01*
X-883Y-4256D01*
X-992Y-4319D01*
X-1080Y-4407D01*
X-1143Y-4516D01*
X-1175Y-4636D01*
Y-4762D01*
X-1143Y-4882D01*
X-1080Y-4991D01*
X-992Y-5079D01*
X-883Y-5142D01*
X-763Y-5174D01*
X-637D01*
X-517Y-5142D01*
X-408Y-5079D01*
X-320Y-4991D01*
X-257Y-4882D01*
X-225Y-4762D01*
Y-4636D01*
X-257Y-4516D01*
X-320Y-4407D01*
X-408Y-4319D01*
X-517Y-4256D01*
X-637Y-4224D01*
D02*
G37*
G36*
X-5437Y-7025D02*
X-5563D01*
X-5683Y-7057D01*
X-5792Y-7120D01*
X-5880Y-7208D01*
X-5943Y-7317D01*
X-5975Y-7437D01*
Y-7563D01*
X-5943Y-7683D01*
X-5880Y-7792D01*
X-5792Y-7880D01*
X-5683Y-7943D01*
X-5563Y-7975D01*
X-5437D01*
X-5317Y-7943D01*
X-5208Y-7880D01*
X-5120Y-7792D01*
X-5057Y-7683D01*
X-5025Y-7563D01*
Y-7437D01*
X-5057Y-7317D01*
X-5120Y-7208D01*
X-5208Y-7120D01*
X-5317Y-7057D01*
X-5437Y-7025D01*
D02*
G37*
G36*
X-8700Y-3970D02*
X-8826D01*
X-8946Y-4002D01*
X-9055Y-4065D01*
X-9143Y-4153D01*
X-9206Y-4262D01*
X-9238Y-4382D01*
Y-4508D01*
X-9206Y-4628D01*
X-9143Y-4737D01*
X-9055Y-4825D01*
X-8975Y-4871D01*
X-8959Y-4953D01*
X-8975Y-5035D01*
X-9055Y-5081D01*
X-9143Y-5169D01*
X-9206Y-5278D01*
X-9238Y-5398D01*
Y-5524D01*
X-9206Y-5644D01*
X-9143Y-5753D01*
X-9055Y-5841D01*
X-8975Y-5887D01*
X-8959Y-5969D01*
X-8975Y-6051D01*
X-9055Y-6097D01*
X-9143Y-6185D01*
X-9206Y-6294D01*
X-9238Y-6414D01*
Y-6540D01*
X-9206Y-6660D01*
X-9143Y-6769D01*
X-9055Y-6857D01*
X-8946Y-6920D01*
X-8826Y-6952D01*
X-8801D01*
X-8761Y-7102D01*
X-8792Y-7120D01*
X-8880Y-7208D01*
X-8943Y-7317D01*
X-8975Y-7437D01*
Y-7563D01*
X-8943Y-7683D01*
X-8880Y-7792D01*
X-8792Y-7880D01*
X-8683Y-7943D01*
X-8563Y-7975D01*
X-8437D01*
X-8317Y-7943D01*
X-8208Y-7880D01*
X-8120Y-7792D01*
X-8057Y-7683D01*
X-8025Y-7563D01*
Y-7437D01*
X-8057Y-7317D01*
X-8120Y-7208D01*
X-8208Y-7120D01*
X-8317Y-7057D01*
X-8437Y-7025D01*
X-8462D01*
X-8502Y-6875D01*
X-8471Y-6857D01*
X-8383Y-6769D01*
X-8320Y-6660D01*
X-8288Y-6540D01*
Y-6414D01*
X-8320Y-6294D01*
X-8383Y-6185D01*
X-8471Y-6097D01*
X-8551Y-6051D01*
X-8567Y-5969D01*
X-8551Y-5887D01*
X-8471Y-5841D01*
X-8383Y-5753D01*
X-8320Y-5644D01*
X-8288Y-5524D01*
Y-5398D01*
X-8320Y-5278D01*
X-8383Y-5169D01*
X-8471Y-5081D01*
X-8551Y-5035D01*
X-8567Y-4953D01*
X-8551Y-4871D01*
X-8471Y-4825D01*
X-8383Y-4737D01*
X-8320Y-4628D01*
X-8288Y-4508D01*
Y-4382D01*
X-8320Y-4262D01*
X-8383Y-4153D01*
X-8471Y-4065D01*
X-8580Y-4002D01*
X-8700Y-3970D01*
D02*
G37*
G36*
X131Y-11000D02*
X-131D01*
X-391Y-11034D01*
X-644Y-11102D01*
X-886Y-11202D01*
X-1114Y-11333D01*
X-1322Y-11493D01*
X-1507Y-11678D01*
X-1667Y-11886D01*
X-1798Y-12114D01*
X-1898Y-12356D01*
X-1966Y-12609D01*
X-2000Y-12869D01*
Y-13131D01*
X-1966Y-13391D01*
X-1898Y-13644D01*
X-1798Y-13886D01*
X-1667Y-14114D01*
X-1507Y-14322D01*
X-1322Y-14507D01*
X-1114Y-14667D01*
X-886Y-14798D01*
X-644Y-14898D01*
X-391Y-14966D01*
X-131Y-15000D01*
X131D01*
X391Y-14966D01*
X644Y-14898D01*
X886Y-14798D01*
X1114Y-14667D01*
X1322Y-14507D01*
X1507Y-14322D01*
X1667Y-14114D01*
X1798Y-13886D01*
X1898Y-13644D01*
X1966Y-13391D01*
X2000Y-13131D01*
Y-12869D01*
X1966Y-12609D01*
X1898Y-12356D01*
X1798Y-12114D01*
X1667Y-11886D01*
X1507Y-11678D01*
X1322Y-11493D01*
X1114Y-11333D01*
X886Y-11202D01*
X644Y-11102D01*
X391Y-11034D01*
X131Y-11000D01*
D02*
G37*
%LPD*%
D50*
X3810Y9500D02*
D03*
D51*
X14650Y-5000D02*
D03*
D53*
X4425Y-3747D02*
D03*
X1689Y-8000D02*
D03*
X-5000Y-11000D02*
D03*
X-9000D02*
D03*
X-7874Y-5969D02*
D03*
X-2310D02*
D03*
X-7000Y-7500D02*
D03*
X12200Y1702D02*
D03*
X-2700Y3000D02*
D03*
X10000Y4500D02*
D03*
X1825Y5000D02*
D03*
X-9500D02*
D03*
X7000Y-5000D02*
D03*
X-13589Y-6477D02*
D03*
Y-5461D02*
D03*
Y-4445D02*
D03*
X700Y-4699D02*
D03*
X-4445Y-3175D02*
D03*
X-10922Y-1524D02*
D03*
Y1524D02*
D03*
M02*
