M48
;Layer_Color=9474304
;FILE_FORMAT=4:3
METRIC,LZ
;TYPE=PLATED
T1F00S00C0.300
T2F00S00C0.900
T3F00S00C1.100
;TYPE=NON_PLATED
T4F00S00C3.000
%
T01
X-0014505Y-00031
Y-00025
Y-00019
X-0014505Y-00006
Y0
Y00006
X-0014505Y00019
Y00025
Y00031
X-0013405
Y00025
Y00019
X-0012305
Y00025
Y00031
X-0012305Y00006
Y0
Y-00006
X-0013405
Y0
Y00006
X-0013405Y-00019
Y-00025
Y-00031
X-0012305
Y-00025
Y-00019
X-0010922Y-0001524
X-0010392Y-00021
X-0008714Y-0002287
X-0008763Y-0004445
Y-0005461
Y-0006477
X-00085Y-00075
X-0007
X-00055
X-0007874Y-0005969
X-0006604Y-0001905
X-0005588Y-0000635
X-0004953Y0
X-0005588Y0000635
X-0004952Y0001898
X-00027Y0003
X-00015Y00055
X0001825Y0005
X0003385Y0006111
X0005455Y0002019
X00065Y00015
X0007975Y0000405
Y-0000865
Y-0003405
X0007Y-0005
X0005332Y-0002868
X0004425Y-0003747
X0003125
X000313Y-0004561
X00007Y-0004699
X-00007
X-0002026Y-0004502
X-000231Y-0005969
X-0004445Y-0003175
X-0005Y-0011
X-0009
X-0013589Y-0006477
Y-0005461
Y-0004445
X-0010922Y0001524
X-0010392Y00021
X-0008104Y0002316
X-00095Y0005
X-0011Y00075
X-00115Y0007
X-0012Y00065
X-00125Y0006
X001Y00045
Y0003
X00122Y0001702
X0001689Y-0008
T02
X001465Y-0005
Y-00025
Y0
Y00025
Y0005
T03
X-000381Y00095
X-000127
X000127
X000381
T04
X0Y-0013
X0009Y001
X-0009
M30
